<svg xmlns="http://www.w3.org/2000/svg" xmlns:xlink="http://www.w3.org/1999/xlink" viewBox="0 0 319.59 134.99"><defs><style>.cls-1,.cls-7,.cls-9{fill:none;}.cls-2{isolation:isolate;opacity:0.3;}.cls-3{clip-path:url(#clip-path);}.cls-4{fill:#29abe2;}.cls-5{fill:#ff953b;}.cls-6{fill:#1d5888;}.cls-7{stroke:#1d5888;stroke-width:1.14px;}.cls-7,.cls-9{stroke-miterlimit:10;}.cls-8{fill:#0b66a0;}.cls-9{stroke:#0b66a0;stroke-width:0.36px;}</style><clipPath id="clip-path"><rect class="cls-1" x="104.69" y="15.89" width="26.4" height="51.84"/></clipPath></defs><g id="Layer_2" data-name="Layer 2"><g id="Layer_1-2" data-name="Layer 1"><g id="glass"><g class="cls-2"><g class="cls-3"><path class="cls-4" d="M105,16.11c10.43,3,19.1,12,21.77,23.94a32.24,32.24,0,0,1-6.2,27.44A29.3,29.3,0,0,0,105,16.11Z"/></g></g><path class="cls-5" d="M63.18,45.69a36,36,0,1,1,36,35.91A36,36,0,0,1,63.18,45.69Zm120.2,80.8L133.11,76.34A45.82,45.82,0,1,0,125.62,83l50.7,50.56a5,5,0,0,0,7.06-7Z"/></g><g id="title"><path class="cls-6" d="M19.48,33.55V48.47a28,28,0,0,1-.17,3.31,10.91,10.91,0,0,1-.74,2.76,7.52,7.52,0,0,1-3.21,3.66,10.64,10.64,0,0,1-5.44,1.31,11.28,11.28,0,0,1-4.83-.91,7.1,7.1,0,0,1-3.12-3,10.53,10.53,0,0,1-1-2.5,10.25,10.25,0,0,1-.39-2.71,2.73,2.73,0,0,1,.76-2.08,2.73,2.73,0,0,1,1.94-.71A2.2,2.2,0,0,1,5,48.3a4.5,4.5,0,0,1,.89,2.06,19.5,19.5,0,0,0,.66,2.39,3.68,3.68,0,0,0,1.11,1.53,3.4,3.4,0,0,0,2.22.64q3.82,0,3.83-5.61V33.55a3.9,3.9,0,0,1,.76-2.63,2.66,2.66,0,0,1,2.09-.87,2.72,2.72,0,0,1,2.13.87A3.79,3.79,0,0,1,19.48,33.55Z"/><path class="cls-7" d="M19.48,33.55V48.47a28,28,0,0,1-.17,3.31,10.91,10.91,0,0,1-.74,2.76,7.52,7.52,0,0,1-3.21,3.66,10.64,10.64,0,0,1-5.44,1.31,11.28,11.28,0,0,1-4.83-.91,7.1,7.1,0,0,1-3.12-3,10.53,10.53,0,0,1-1-2.5,10.25,10.25,0,0,1-.39-2.71,2.73,2.73,0,0,1,.76-2.08,2.73,2.73,0,0,1,1.94-.71A2.2,2.2,0,0,1,5,48.3a4.5,4.5,0,0,1,.89,2.06,19.5,19.5,0,0,0,.66,2.39,3.68,3.68,0,0,0,1.11,1.53,3.4,3.4,0,0,0,2.22.64q3.82,0,3.83-5.61V33.55a3.9,3.9,0,0,1,.76-2.63,2.66,2.66,0,0,1,2.09-.87,2.72,2.72,0,0,1,2.13.87A3.79,3.79,0,0,1,19.48,33.55Z"/><path class="cls-6" d="M47.38,50.47a8.45,8.45,0,0,1-1.33,4.65,8.83,8.83,0,0,1-3.9,3.22,14.56,14.56,0,0,1-6.08,1.17,13.73,13.73,0,0,1-7-1.59A9.34,9.34,0,0,1,26,54.86a7,7,0,0,1-1.21-3.73,2.51,2.51,0,0,1,2.58-2.54,2.21,2.21,0,0,1,1.55.58,4.54,4.54,0,0,1,1.07,1.73,11.62,11.62,0,0,0,1.18,2.27,4.67,4.67,0,0,0,1.78,1.51,6.5,6.5,0,0,0,3,.59,6.78,6.78,0,0,0,4.17-1.19,3.59,3.59,0,0,0,1.6-3,3.15,3.15,0,0,0-.86-2.31,5.56,5.56,0,0,0-2.24-1.35q-1.36-.46-3.66-1a27,27,0,0,1-5.14-1.68,8.27,8.27,0,0,1-3.28-2.62A6.83,6.83,0,0,1,25.28,38a7.11,7.11,0,0,1,1.28-4.18A8.09,8.09,0,0,1,30.28,31a15,15,0,0,1,5.71-1,14,14,0,0,1,4.54.65,9.5,9.5,0,0,1,3.17,1.73,7.15,7.15,0,0,1,1.85,2.26A5.19,5.19,0,0,1,46.13,37a2.75,2.75,0,0,1-.72,1.86,2.35,2.35,0,0,1-1.82.83,2.1,2.1,0,0,1-1.51-.5A7,7,0,0,1,41,37.57a7.26,7.26,0,0,0-1.86-2.52,5.48,5.48,0,0,0-3.5-.9,6.06,6.06,0,0,0-3.6,1,2.83,2.83,0,0,0-1.37,2.36A2.41,2.41,0,0,0,31.09,39,4,4,0,0,0,32.37,40a9.47,9.47,0,0,0,1.66.7c.55.17,1.47.41,2.76.73,1.6.38,3.06.8,4.36,1.25a13,13,0,0,1,3.32,1.65,6.75,6.75,0,0,1,2.14,2.46A7.87,7.87,0,0,1,47.38,50.47Z"/><path class="cls-7" d="M47.38,50.47a8.45,8.45,0,0,1-1.33,4.65,8.83,8.83,0,0,1-3.9,3.22,14.56,14.56,0,0,1-6.08,1.17,13.73,13.73,0,0,1-7-1.59A9.34,9.34,0,0,1,26,54.86a7,7,0,0,1-1.21-3.73,2.51,2.51,0,0,1,2.58-2.54,2.21,2.21,0,0,1,1.55.58,4.54,4.54,0,0,1,1.07,1.73,11.62,11.62,0,0,0,1.18,2.27,4.67,4.67,0,0,0,1.78,1.51,6.5,6.5,0,0,0,3,.59,6.78,6.78,0,0,0,4.17-1.19,3.59,3.59,0,0,0,1.6-3,3.15,3.15,0,0,0-.86-2.31,5.56,5.56,0,0,0-2.24-1.35q-1.36-.46-3.66-1a27,27,0,0,1-5.14-1.68,8.27,8.27,0,0,1-3.28-2.62A6.83,6.83,0,0,1,25.28,38a7.11,7.11,0,0,1,1.28-4.18A8.09,8.09,0,0,1,30.28,31a15,15,0,0,1,5.71-1,14,14,0,0,1,4.54.65,9.5,9.5,0,0,1,3.17,1.73,7.15,7.15,0,0,1,1.85,2.26A5.19,5.19,0,0,1,46.13,37a2.75,2.75,0,0,1-.72,1.86,2.35,2.35,0,0,1-1.82.83,2.1,2.1,0,0,1-1.51-.5A7,7,0,0,1,41,37.57a7.26,7.26,0,0,0-1.86-2.52,5.48,5.48,0,0,0-3.5-.9,6.06,6.06,0,0,0-3.6,1,2.83,2.83,0,0,0-1.37,2.36A2.41,2.41,0,0,0,31.09,39,4,4,0,0,0,32.37,40a9.47,9.47,0,0,0,1.66.7c.55.17,1.47.41,2.76.73,1.6.38,3.06.8,4.36,1.25a13,13,0,0,1,3.32,1.65,6.75,6.75,0,0,1,2.14,2.46A7.87,7.87,0,0,1,47.38,50.47Z"/><path class="cls-6" d="M86.5,50A7.56,7.56,0,0,1,85.83,53a10.65,10.65,0,0,1-2.11,3.11,10.79,10.79,0,0,1-3.67,2.48,13.31,13.31,0,0,1-5.21.95,17.92,17.92,0,0,1-4.1-.43,11.4,11.4,0,0,1-3.35-1.33,11,11,0,0,1-2.77-2.38,14,14,0,0,1-1.93-3,15.44,15.44,0,0,1-1.19-3.55,19,19,0,0,1-.4-4,17.65,17.65,0,0,1,1-6.16A13.08,13.08,0,0,1,65,34a12.4,12.4,0,0,1,4.37-2.94,14,14,0,0,1,5.34-1,13.41,13.41,0,0,1,6.17,1.38A11.11,11.11,0,0,1,85,34.84a6.76,6.76,0,0,1,1.43,3.84,2.5,2.5,0,0,1-.7,1.75,2.22,2.22,0,0,1-1.69.75,2.33,2.33,0,0,1-1.66-.52,7.1,7.1,0,0,1-1.23-1.81,8.69,8.69,0,0,0-2.66-3.17,6.46,6.46,0,0,0-3.76-1,6.78,6.78,0,0,0-5.66,2.71Q66.95,40,67,45a14.28,14.28,0,0,0,.93,5.53,7,7,0,0,0,2.65,3.3,7.32,7.32,0,0,0,4,1.08,7.06,7.06,0,0,0,4.21-1.23,7.46,7.46,0,0,0,2.59-3.62,6,6,0,0,1,.92-1.84A2.06,2.06,0,0,1,84,47.52a2.44,2.44,0,0,1,1.77.72A2.36,2.36,0,0,1,86.5,50Z"/><path class="cls-7" d="M86.5,50A7.56,7.56,0,0,1,85.83,53a10.65,10.65,0,0,1-2.11,3.11,10.79,10.79,0,0,1-3.67,2.48,13.31,13.31,0,0,1-5.21.95,17.92,17.92,0,0,1-4.1-.43,11.4,11.4,0,0,1-3.35-1.33,11,11,0,0,1-2.77-2.38,14,14,0,0,1-1.93-3,15.44,15.44,0,0,1-1.19-3.55,19,19,0,0,1-.4-4,17.65,17.65,0,0,1,1-6.16A13.08,13.08,0,0,1,65,34a12.4,12.4,0,0,1,4.37-2.94,14,14,0,0,1,5.34-1,13.41,13.41,0,0,1,6.17,1.38A11.11,11.11,0,0,1,85,34.84a6.76,6.76,0,0,1,1.43,3.84,2.5,2.5,0,0,1-.7,1.75,2.22,2.22,0,0,1-1.69.75,2.33,2.33,0,0,1-1.66-.52,7.1,7.1,0,0,1-1.23-1.81,8.69,8.69,0,0,0-2.66-3.17,6.46,6.46,0,0,0-3.76-1,6.78,6.78,0,0,0-5.66,2.71Q66.95,40,67,45a14.28,14.28,0,0,0,.93,5.53,7,7,0,0,0,2.65,3.3,7.32,7.32,0,0,0,4,1.08,7.06,7.06,0,0,0,4.21-1.23,7.46,7.46,0,0,0,2.59-3.62,6,6,0,0,1,.92-1.84A2.06,2.06,0,0,1,84,47.52a2.44,2.44,0,0,1,1.77.72A2.36,2.36,0,0,1,86.5,50Z"/><path class="cls-6" d="M113.33,50.47A8.37,8.37,0,0,1,112,55.12a8.83,8.83,0,0,1-3.9,3.22A14.53,14.53,0,0,1,102,59.51a13.73,13.73,0,0,1-7-1.59,9.44,9.44,0,0,1-3.16-3.06,7,7,0,0,1-1.21-3.73,2.53,2.53,0,0,1,2.59-2.54,2.19,2.19,0,0,1,1.54.58A4.67,4.67,0,0,1,95.9,50.9a11.11,11.11,0,0,0,1.17,2.27,4.83,4.83,0,0,0,1.78,1.51,6.55,6.55,0,0,0,3,.59A6.73,6.73,0,0,0,106,54.08a3.6,3.6,0,0,0,1.61-3,3.15,3.15,0,0,0-.87-2.31,5.52,5.52,0,0,0-2.23-1.35c-.92-.31-2.14-.64-3.67-1a27.19,27.19,0,0,1-5.14-1.68,8.34,8.34,0,0,1-3.28-2.62A6.83,6.83,0,0,1,91.23,38a7,7,0,0,1,1.29-4.18A8,8,0,0,1,96.23,31a15.07,15.07,0,0,1,5.71-1,14,14,0,0,1,4.54.65,9.46,9.46,0,0,1,3.18,1.73,7.29,7.29,0,0,1,1.85,2.26,5.33,5.33,0,0,1,.58,2.31,2.72,2.72,0,0,1-.73,1.86,2.34,2.34,0,0,1-1.82.83,2.07,2.07,0,0,1-1.5-.5,6.45,6.45,0,0,1-1.12-1.62,7.28,7.28,0,0,0-1.87-2.52,5.46,5.46,0,0,0-3.5-.9,6.06,6.06,0,0,0-3.6,1,2.85,2.85,0,0,0-1.37,2.36A2.36,2.36,0,0,0,97.05,39,3.93,3.93,0,0,0,98.33,40a9.07,9.07,0,0,0,1.65.7c.56.17,1.48.41,2.76.73a44.83,44.83,0,0,1,4.36,1.25,13.1,13.1,0,0,1,3.33,1.65,6.82,6.82,0,0,1,2.13,2.46A7.75,7.75,0,0,1,113.33,50.47Z"/><path class="cls-7" d="M113.33,50.47A8.37,8.37,0,0,1,112,55.12a8.83,8.83,0,0,1-3.9,3.22A14.53,14.53,0,0,1,102,59.51a13.73,13.73,0,0,1-7-1.59,9.44,9.44,0,0,1-3.16-3.06,7,7,0,0,1-1.21-3.73,2.53,2.53,0,0,1,2.59-2.54,2.19,2.19,0,0,1,1.54.58A4.67,4.67,0,0,1,95.9,50.9a11.11,11.11,0,0,0,1.17,2.27,4.83,4.83,0,0,0,1.78,1.51,6.55,6.55,0,0,0,3,.59A6.73,6.73,0,0,0,106,54.08a3.6,3.6,0,0,0,1.61-3,3.15,3.15,0,0,0-.87-2.31,5.52,5.52,0,0,0-2.23-1.35c-.92-.31-2.14-.64-3.67-1a27.19,27.19,0,0,1-5.14-1.68,8.34,8.34,0,0,1-3.28-2.62A6.83,6.83,0,0,1,91.23,38a7,7,0,0,1,1.29-4.18A8,8,0,0,1,96.23,31a15.07,15.07,0,0,1,5.71-1,14,14,0,0,1,4.54.65,9.46,9.46,0,0,1,3.18,1.73,7.29,7.29,0,0,1,1.85,2.26,5.33,5.33,0,0,1,.58,2.31,2.72,2.72,0,0,1-.73,1.86,2.34,2.34,0,0,1-1.82.83,2.07,2.07,0,0,1-1.5-.5,6.45,6.45,0,0,1-1.12-1.62,7.28,7.28,0,0,0-1.87-2.52,5.46,5.46,0,0,0-3.5-.9,6.06,6.06,0,0,0-3.6,1,2.85,2.85,0,0,0-1.37,2.36A2.36,2.36,0,0,0,97.05,39,3.93,3.93,0,0,0,98.33,40a9.07,9.07,0,0,0,1.65.7c.56.17,1.48.41,2.76.73a44.83,44.83,0,0,1,4.36,1.25,13.1,13.1,0,0,1,3.33,1.65,6.82,6.82,0,0,1,2.13,2.46A7.75,7.75,0,0,1,113.33,50.47Z"/><path class="cls-6" d="M122.45,33.84l6.45,19.1,6.47-19.24c.34-1,.59-1.71.76-2.11a2.89,2.89,0,0,1,.84-1.07,2.47,2.47,0,0,1,1.59-.47,2.75,2.75,0,0,1,2.36,1.35,2.42,2.42,0,0,1,.36,1.23,3.88,3.88,0,0,1-.12.92,6.5,6.5,0,0,1-.29,1l-.35,1-6.9,18.62c-.24.71-.49,1.39-.74,2a8.6,8.6,0,0,1-.85,1.69A3.89,3.89,0,0,1,130.74,59a3.82,3.82,0,0,1-2,.47,3.91,3.91,0,0,1-2-.46,3.66,3.66,0,0,1-1.3-1.2,9.33,9.33,0,0,1-.87-1.7c-.24-.64-.49-1.31-.73-2L117.1,35.66q-.16-.49-.36-1a8.73,8.73,0,0,1-.31-1.05,4.63,4.63,0,0,1-.12-.95,2.55,2.55,0,0,1,.79-1.81,2.7,2.7,0,0,1,2-.81,2.32,2.32,0,0,1,2.08.9A12,12,0,0,1,122.45,33.84Z"/><path class="cls-7" d="M122.45,33.84l6.45,19.1,6.47-19.24c.34-1,.59-1.71.76-2.11a2.89,2.89,0,0,1,.84-1.07,2.47,2.47,0,0,1,1.59-.47,2.75,2.75,0,0,1,2.36,1.35,2.42,2.42,0,0,1,.36,1.23,3.88,3.88,0,0,1-.12.92,6.5,6.5,0,0,1-.29,1l-.35,1-6.9,18.62c-.24.71-.49,1.39-.74,2a8.6,8.6,0,0,1-.85,1.69A3.89,3.89,0,0,1,130.74,59a3.82,3.82,0,0,1-2,.47,3.91,3.91,0,0,1-2-.46,3.66,3.66,0,0,1-1.3-1.2,9.33,9.33,0,0,1-.87-1.7c-.24-.64-.49-1.31-.73-2L117.1,35.66q-.16-.49-.36-1a8.73,8.73,0,0,1-.31-1.05,4.63,4.63,0,0,1-.12-.95,2.55,2.55,0,0,1,.79-1.81,2.7,2.7,0,0,1,2-.81,2.32,2.32,0,0,1,2.08.9A12,12,0,0,1,122.45,33.84Z"/><path class="cls-6" d="M163.32,46.84h-2V56a3.82,3.82,0,0,1-.8,2.67,3,3,0,0,1-4.22,0,4,4,0,0,1-.75-2.63V34.07a3.74,3.74,0,0,1,.83-2.7,3.7,3.7,0,0,1,2.7-.84h9.39a28.31,28.31,0,0,1,3.32.17,8.28,8.28,0,0,1,2.49.67A7,7,0,0,1,176.63,33a7.06,7.06,0,0,1,1.57,2.44,8.3,8.3,0,0,1,.53,2.95,7.11,7.11,0,0,1-1.8,5.09,10.26,10.26,0,0,1-5.45,2.7,10.55,10.55,0,0,1,2.94,2.41,25.1,25.1,0,0,1,2.5,3.39,24,24,0,0,1,1.7,3.25,6.42,6.42,0,0,1,.62,2,2.06,2.06,0,0,1-.36,1.12,2.59,2.59,0,0,1-1,.87,3.18,3.18,0,0,1-1.44.32,2.75,2.75,0,0,1-1.63-.46,4.3,4.3,0,0,1-1.14-1.15c-.32-.47-.75-1.16-1.29-2.06L170.08,52a21.85,21.85,0,0,0-2.22-3.23,5.5,5.5,0,0,0-2-1.51A6.74,6.74,0,0,0,163.32,46.84Zm3.3-12H161.3V42.7h5.17a14.54,14.54,0,0,0,3.5-.36,4.15,4.15,0,0,0,2.16-1.22,3.55,3.55,0,0,0,.75-2.39,3.62,3.62,0,0,0-2.27-3.44A12.27,12.27,0,0,0,166.62,34.87Z"/><path class="cls-7" d="M163.32,46.84h-2V56a3.82,3.82,0,0,1-.8,2.67,3,3,0,0,1-4.22,0,4,4,0,0,1-.75-2.63V34.07a3.74,3.74,0,0,1,.83-2.7,3.7,3.7,0,0,1,2.7-.84h9.39a28.31,28.31,0,0,1,3.32.17,8.28,8.28,0,0,1,2.49.67A7,7,0,0,1,176.63,33a7.06,7.06,0,0,1,1.57,2.44,8.3,8.3,0,0,1,.53,2.95,7.11,7.11,0,0,1-1.8,5.09,10.26,10.26,0,0,1-5.45,2.7,10.55,10.55,0,0,1,2.94,2.41,25.1,25.1,0,0,1,2.5,3.39,24,24,0,0,1,1.7,3.25,6.42,6.42,0,0,1,.62,2,2.06,2.06,0,0,1-.36,1.12,2.59,2.59,0,0,1-1,.87,3.18,3.18,0,0,1-1.44.32,2.75,2.75,0,0,1-1.63-.46,4.3,4.3,0,0,1-1.14-1.15c-.32-.47-.75-1.16-1.29-2.06L170.08,52a21.85,21.85,0,0,0-2.22-3.23,5.5,5.5,0,0,0-2-1.51A6.74,6.74,0,0,0,163.32,46.84Zm3.3-12H161.3V42.7h5.17a14.54,14.54,0,0,0,3.5-.36,4.15,4.15,0,0,0,2.16-1.22,3.55,3.55,0,0,0,.75-2.39,3.62,3.62,0,0,0-2.27-3.44A12.27,12.27,0,0,0,166.62,34.87Z"/><path class="cls-6" d="M203,35H190v7h12a2.86,2.86,0,0,1,2,.59,2,2,0,0,1,.65,1.57,2.07,2.07,0,0,1-.64,1.58,2.78,2.78,0,0,1-2,.61H190v8.11h13.45a3,3,0,0,1,2.05.63,2.16,2.16,0,0,1,.69,1.68,2.12,2.12,0,0,1-.69,1.64,3,3,0,0,1-2.05.63H187.72a3.68,3.68,0,0,1-2.71-.83,3.74,3.74,0,0,1-.83-2.7V34.07a4.88,4.88,0,0,1,.37-2,2.28,2.28,0,0,1,1.16-1.15,4.82,4.82,0,0,1,2-.36H203a3,3,0,0,1,2,.62,2,2,0,0,1,.67,1.6,2.08,2.08,0,0,1-.67,1.62A3,3,0,0,1,203,35Z"/><path class="cls-7" d="M203,35H190v7h12a2.86,2.86,0,0,1,2,.59,2,2,0,0,1,.65,1.57,2.07,2.07,0,0,1-.64,1.58,2.78,2.78,0,0,1-2,.61H190v8.11h13.45a3,3,0,0,1,2.05.63,2.16,2.16,0,0,1,.69,1.68,2.12,2.12,0,0,1-.69,1.64,3,3,0,0,1-2.05.63H187.72a3.68,3.68,0,0,1-2.71-.83,3.74,3.74,0,0,1-.83-2.7V34.07a4.88,4.88,0,0,1,.37-2,2.28,2.28,0,0,1,1.16-1.15,4.82,4.82,0,0,1,2-.36H203a3,3,0,0,1,2,.62,2,2,0,0,1,.67,1.6,2.08,2.08,0,0,1-.67,1.62A3,3,0,0,1,203,35Z"/><path class="cls-6" d="M229,55.8l-1.36-3.58H216l-1.36,3.66a13.06,13.06,0,0,1-1.36,2.88,2.17,2.17,0,0,1-1.85.75,2.72,2.72,0,0,1-1.92-.8,2.42,2.42,0,0,1-.84-1.8,4.08,4.08,0,0,1,.2-1.21c.13-.41.34-1,.64-1.73l7.29-18.5c.2-.53.45-1.17.74-1.92a10.22,10.22,0,0,1,.94-1.85,3.85,3.85,0,0,1,1.3-1.2,4,4,0,0,1,2-.45,4.09,4.09,0,0,1,2,.45,3.9,3.9,0,0,1,1.3,1.18,7.91,7.91,0,0,1,.84,1.54c.23.56.52,1.29.87,2.21l7.44,18.39a9.25,9.25,0,0,1,.87,3,2.51,2.51,0,0,1-.82,1.81,2.69,2.69,0,0,1-2,.83,2.6,2.6,0,0,1-1.17-.24,2.39,2.39,0,0,1-.82-.66,6.48,6.48,0,0,1-.71-1.29C229.36,56.75,229.14,56.24,229,55.8Zm-11.42-7.91h8.51l-4.3-11.76Z"/><path class="cls-7" d="M229,55.8l-1.36-3.58H216l-1.36,3.66a13.06,13.06,0,0,1-1.36,2.88,2.17,2.17,0,0,1-1.85.75,2.72,2.72,0,0,1-1.92-.8,2.42,2.42,0,0,1-.84-1.8,4.08,4.08,0,0,1,.2-1.21c.13-.41.34-1,.64-1.73l7.29-18.5c.2-.53.45-1.17.74-1.92a10.22,10.22,0,0,1,.94-1.85,3.85,3.85,0,0,1,1.3-1.2,4,4,0,0,1,2-.45,4.09,4.09,0,0,1,2,.45,3.9,3.9,0,0,1,1.3,1.18,7.91,7.91,0,0,1,.84,1.54c.23.56.52,1.29.87,2.21l7.44,18.39a9.25,9.25,0,0,1,.87,3,2.51,2.51,0,0,1-.82,1.81,2.69,2.69,0,0,1-2,.83,2.6,2.6,0,0,1-1.17-.24,2.39,2.39,0,0,1-.82-.66,6.48,6.48,0,0,1-.71-1.29C229.36,56.75,229.14,56.24,229,55.8Zm-11.42-7.91h8.51l-4.3-11.76Z"/><path class="cls-6" d="M242.93,30.53h7.52a19.93,19.93,0,0,1,5,.55,9.19,9.19,0,0,1,3.81,2q4.45,3.81,4.45,11.58a23.44,23.44,0,0,1-.44,4.69,13.88,13.88,0,0,1-1.38,3.81,11.94,11.94,0,0,1-2.4,3A10.22,10.22,0,0,1,257,57.9a11.71,11.71,0,0,1-2.93.87,22.1,22.1,0,0,1-3.53.25H243a4.68,4.68,0,0,1-2.37-.47,2.27,2.27,0,0,1-1-1.34,8.68,8.68,0,0,1-.24-2.25V34.07a3.7,3.7,0,0,1,.84-2.7A3.67,3.67,0,0,1,242.93,30.53Zm2.23,4.57V54.44h4.38c1,0,1.71,0,2.25-.08a6.85,6.85,0,0,0,1.69-.39A4.83,4.83,0,0,0,255,53.1q2.89-2.46,2.89-8.44c0-2.81-.42-4.92-1.27-6.31a5.73,5.73,0,0,0-3.14-2.68A15.57,15.57,0,0,0,249,35.1Z"/><path class="cls-7" d="M242.93,30.53h7.52a19.93,19.93,0,0,1,5,.55,9.19,9.19,0,0,1,3.81,2q4.45,3.81,4.45,11.58a23.44,23.44,0,0,1-.44,4.69,13.88,13.88,0,0,1-1.38,3.81,11.94,11.94,0,0,1-2.4,3A10.22,10.22,0,0,1,257,57.9a11.71,11.71,0,0,1-2.93.87,22.1,22.1,0,0,1-3.53.25H243a4.68,4.68,0,0,1-2.37-.47,2.27,2.27,0,0,1-1-1.34,8.68,8.68,0,0,1-.24-2.25V34.07a3.7,3.7,0,0,1,.84-2.7A3.67,3.67,0,0,1,242.93,30.53Zm2.23,4.57V54.44h4.38c1,0,1.71,0,2.25-.08a6.85,6.85,0,0,0,1.69-.39A4.83,4.83,0,0,0,255,53.1q2.89-2.46,2.89-8.44c0-2.81-.42-4.92-1.27-6.31a5.73,5.73,0,0,0-3.14-2.68A15.57,15.57,0,0,0,249,35.1Z"/><path class="cls-6" d="M287.58,35h-13v7h12a2.86,2.86,0,0,1,2,.59,2,2,0,0,1,.65,1.57,2.07,2.07,0,0,1-.64,1.58,2.78,2.78,0,0,1-2,.61h-12v8.11H288a3,3,0,0,1,2.05.63,2.16,2.16,0,0,1,.69,1.68,2.12,2.12,0,0,1-.69,1.64A3,3,0,0,1,288,59H272.34a3.7,3.7,0,0,1-2.71-.83,3.74,3.74,0,0,1-.83-2.7V34.07a4.88,4.88,0,0,1,.37-2,2.32,2.32,0,0,1,1.16-1.15,4.89,4.89,0,0,1,2-.36h15.24a3,3,0,0,1,2.05.62,2,2,0,0,1,.67,1.6,2.08,2.08,0,0,1-.67,1.62A3,3,0,0,1,287.58,35Z"/><path class="cls-7" d="M287.58,35h-13v7h12a2.86,2.86,0,0,1,2,.59,2,2,0,0,1,.65,1.57,2.07,2.07,0,0,1-.64,1.58,2.78,2.78,0,0,1-2,.61h-12v8.11H288a3,3,0,0,1,2.05.63,2.16,2.16,0,0,1,.69,1.68,2.12,2.12,0,0,1-.69,1.64A3,3,0,0,1,288,59H272.34a3.7,3.7,0,0,1-2.71-.83,3.74,3.74,0,0,1-.83-2.7V34.07a4.88,4.88,0,0,1,.37-2,2.32,2.32,0,0,1,1.16-1.15,4.89,4.89,0,0,1,2-.36h15.24a3,3,0,0,1,2.05.62,2,2,0,0,1,.67,1.6,2.08,2.08,0,0,1-.67,1.62A3,3,0,0,1,287.58,35Z"/><path class="cls-6" d="M303.11,46.84h-2V56a3.82,3.82,0,0,1-.8,2.67,3,3,0,0,1-4.22,0,4,4,0,0,1-.76-2.63V34.07a3.7,3.7,0,0,1,.84-2.7,3.7,3.7,0,0,1,2.7-.84h9.39a28.44,28.44,0,0,1,3.32.17,8.28,8.28,0,0,1,2.49.67A7.17,7.17,0,0,1,316.42,33,7.06,7.06,0,0,1,318,35.42a8.3,8.3,0,0,1,.53,2.95,7.11,7.11,0,0,1-1.8,5.09,10.3,10.3,0,0,1-5.45,2.7,10.55,10.55,0,0,1,2.94,2.41,26.43,26.43,0,0,1,4.2,6.64,6.42,6.42,0,0,1,.62,2,2.06,2.06,0,0,1-.36,1.12,2.54,2.54,0,0,1-1,.87,3.11,3.11,0,0,1-1.43.32,2.78,2.78,0,0,1-1.64-.46,4.27,4.27,0,0,1-1.13-1.15c-.32-.47-.75-1.16-1.3-2.06L309.87,52a21.85,21.85,0,0,0-2.22-3.23,5.45,5.45,0,0,0-2-1.51A6.65,6.65,0,0,0,303.11,46.84Zm3.3-12h-5.32V42.7h5.17a14.54,14.54,0,0,0,3.5-.36,4.15,4.15,0,0,0,2.16-1.22,3.55,3.55,0,0,0,.75-2.39,3.62,3.62,0,0,0-2.27-3.44A12.31,12.31,0,0,0,306.41,34.87Z"/><path class="cls-7" d="M303.11,46.84h-2V56a3.82,3.82,0,0,1-.8,2.67,3,3,0,0,1-4.22,0,4,4,0,0,1-.76-2.63V34.07a3.7,3.7,0,0,1,.84-2.7,3.7,3.7,0,0,1,2.7-.84h9.39a28.44,28.44,0,0,1,3.32.17,8.28,8.28,0,0,1,2.49.67A7.17,7.17,0,0,1,316.42,33,7.06,7.06,0,0,1,318,35.42a8.3,8.3,0,0,1,.53,2.95,7.11,7.11,0,0,1-1.8,5.09,10.3,10.3,0,0,1-5.45,2.7,10.55,10.55,0,0,1,2.94,2.41,26.43,26.43,0,0,1,4.2,6.64,6.42,6.42,0,0,1,.62,2,2.06,2.06,0,0,1-.36,1.12,2.54,2.54,0,0,1-1,.87,3.11,3.11,0,0,1-1.43.32,2.78,2.78,0,0,1-1.64-.46,4.27,4.27,0,0,1-1.13-1.15c-.32-.47-.75-1.16-1.3-2.06L309.87,52a21.85,21.85,0,0,0-2.22-3.23,5.45,5.45,0,0,0-2-1.51A6.65,6.65,0,0,0,303.11,46.84Zm3.3-12h-5.32V42.7h5.17a14.54,14.54,0,0,0,3.5-.36,4.15,4.15,0,0,0,2.16-1.22,3.55,3.55,0,0,0,.75-2.39,3.62,3.62,0,0,0-2.27-3.44A12.31,12.31,0,0,0,306.41,34.87Z"/></g><g id="lead"><path class="cls-8" d="M157.28,67.48h2.39a6.7,6.7,0,0,1,1.6.17,3,3,0,0,1,1.22.65A4.61,4.61,0,0,1,163.9,72a7.62,7.62,0,0,1-.14,1.49,4.45,4.45,0,0,1-.44,1.21,3.75,3.75,0,0,1-.76,1,3.27,3.27,0,0,1-.8.53,3.57,3.57,0,0,1-.93.27,6.41,6.41,0,0,1-1.12.08h-2.4a1.5,1.5,0,0,1-.75-.15.69.69,0,0,1-.33-.42,2.86,2.86,0,0,1-.08-.72V68.6a1.18,1.18,0,0,1,.27-.86A1.19,1.19,0,0,1,157.28,67.48Zm.71,1.45v6.16h1.39a6.7,6.7,0,0,0,.72,0,2.94,2.94,0,0,0,.54-.12,1.64,1.64,0,0,0,.48-.28A3.39,3.39,0,0,0,162,72a4,4,0,0,0-.41-2,1.86,1.86,0,0,0-1-.85,5.05,5.05,0,0,0-1.44-.18Z"/><path class="cls-9" d="M157.28,67.48h2.39a6.7,6.7,0,0,1,1.6.17,3,3,0,0,1,1.22.65A4.61,4.61,0,0,1,163.9,72a7.62,7.62,0,0,1-.14,1.49,4.45,4.45,0,0,1-.44,1.21,3.75,3.75,0,0,1-.76,1,3.27,3.27,0,0,1-.8.53,3.57,3.57,0,0,1-.93.27,6.41,6.41,0,0,1-1.12.08h-2.4a1.5,1.5,0,0,1-.75-.15.69.69,0,0,1-.33-.42,2.86,2.86,0,0,1-.08-.72V68.6a1.18,1.18,0,0,1,.27-.86A1.19,1.19,0,0,1,157.28,67.48Zm.71,1.45v6.16h1.39a6.7,6.7,0,0,0,.72,0,2.94,2.94,0,0,0,.54-.12,1.64,1.64,0,0,0,.48-.28A3.39,3.39,0,0,0,162,72a4,4,0,0,0-.41-2,1.86,1.86,0,0,0-1-.85,5.05,5.05,0,0,0-1.44-.18Z"/><path class="cls-8" d="M167,75.58V68.44a1.22,1.22,0,0,1,.26-.84.92.92,0,0,1,1.32,0,1.19,1.19,0,0,1,.26.84v7.14a1.21,1.21,0,0,1-.26.84.85.85,0,0,1-.67.28.83.83,0,0,1-.65-.28A1.22,1.22,0,0,1,167,75.58Z"/><path class="cls-9" d="M167,75.58V68.44a1.22,1.22,0,0,1,.26-.84.92.92,0,0,1,1.32,0,1.19,1.19,0,0,1,.26.84v7.14a1.21,1.21,0,0,1-.26.84.85.85,0,0,1-.67.28.83.83,0,0,1-.65-.28A1.22,1.22,0,0,1,167,75.58Z"/><path class="cls-8" d="M179.14,73.82a2.69,2.69,0,0,1-.42,1.48,2.83,2.83,0,0,1-1.24,1,4.6,4.6,0,0,1-1.94.37,4.33,4.33,0,0,1-2.21-.51,3,3,0,0,1-1-1,2.28,2.28,0,0,1-.38-1.19.81.81,0,0,1,.23-.57.78.78,0,0,1,.59-.24.67.67,0,0,1,.49.19,1.45,1.45,0,0,1,.35.55,3.43,3.43,0,0,0,.37.72,1.36,1.36,0,0,0,.57.48,2,2,0,0,0,1,.19,2.18,2.18,0,0,0,1.33-.38,1.14,1.14,0,0,0,.51-1,1,1,0,0,0-.27-.73,1.78,1.78,0,0,0-.72-.43,10.93,10.93,0,0,0-1.16-.32,8.79,8.79,0,0,1-1.64-.53,2.63,2.63,0,0,1-1-.84,2.14,2.14,0,0,1-.39-1.31,2.28,2.28,0,0,1,.41-1.33,2.51,2.51,0,0,1,1.18-.89,4.81,4.81,0,0,1,1.82-.32,4.38,4.38,0,0,1,1.44.21,2.94,2.94,0,0,1,1,.55,2.26,2.26,0,0,1,.59.72,1.6,1.6,0,0,1,.19.74.89.89,0,0,1-.23.59.77.77,0,0,1-.58.26.65.65,0,0,1-.48-.16,2,2,0,0,1-.36-.51,2.2,2.2,0,0,0-.59-.8,1.68,1.68,0,0,0-1.11-.29,1.91,1.91,0,0,0-1.15.31.92.92,0,0,0-.44.75.75.75,0,0,0,.15.47,1.27,1.27,0,0,0,.41.34,2.31,2.31,0,0,0,.52.22c.18.06.47.14.88.24a12.33,12.33,0,0,1,1.39.4,4.19,4.19,0,0,1,1.06.52,2.21,2.21,0,0,1,.68.78A2.58,2.58,0,0,1,179.14,73.82Z"/><path class="cls-9" d="M179.14,73.82a2.69,2.69,0,0,1-.42,1.48,2.83,2.83,0,0,1-1.24,1,4.6,4.6,0,0,1-1.94.37,4.33,4.33,0,0,1-2.21-.51,3,3,0,0,1-1-1,2.28,2.28,0,0,1-.38-1.19.81.81,0,0,1,.23-.57.78.78,0,0,1,.59-.24.67.67,0,0,1,.49.19,1.45,1.45,0,0,1,.35.55,3.43,3.43,0,0,0,.37.72,1.36,1.36,0,0,0,.57.48,2,2,0,0,0,1,.19,2.18,2.18,0,0,0,1.33-.38,1.14,1.14,0,0,0,.51-1,1,1,0,0,0-.27-.73,1.78,1.78,0,0,0-.72-.43,10.93,10.93,0,0,0-1.16-.32,8.79,8.79,0,0,1-1.64-.53,2.63,2.63,0,0,1-1-.84,2.14,2.14,0,0,1-.39-1.31,2.28,2.28,0,0,1,.41-1.33,2.51,2.51,0,0,1,1.18-.89,4.81,4.81,0,0,1,1.82-.32,4.38,4.38,0,0,1,1.44.21,2.94,2.94,0,0,1,1,.55,2.26,2.26,0,0,1,.59.72,1.6,1.6,0,0,1,.19.74.89.89,0,0,1-.23.59.77.77,0,0,1-.58.26.65.65,0,0,1-.48-.16,2,2,0,0,1-.36-.51,2.2,2.2,0,0,0-.59-.8,1.68,1.68,0,0,0-1.11-.29,1.91,1.91,0,0,0-1.15.31.92.92,0,0,0-.44.75.75.75,0,0,0,.15.47,1.27,1.27,0,0,0,.41.34,2.31,2.31,0,0,0,.52.22c.18.06.47.14.88.24a12.33,12.33,0,0,1,1.39.4,4.19,4.19,0,0,1,1.06.52,2.21,2.21,0,0,1,.68.78A2.58,2.58,0,0,1,179.14,73.82Z"/><path class="cls-8" d="M185.61,73h-1.68v2.57a1.18,1.18,0,0,1-.26.83.88.88,0,0,1-.66.29.85.85,0,0,1-.67-.28,1.21,1.21,0,0,1-.25-.83v-7a1.11,1.11,0,0,1,.28-.86,1.22,1.22,0,0,1,.88-.26h2.36a6.09,6.09,0,0,1,1.61.16,2.34,2.34,0,0,1,1,.51,2.29,2.29,0,0,1,.61.88A3.13,3.13,0,0,1,189,70.2a2.59,2.59,0,0,1-.85,2.1A3.92,3.92,0,0,1,185.61,73Zm-.45-4.15h-1.23v2.77h1.23a3.7,3.7,0,0,0,1.09-.14,1.27,1.27,0,0,0,.66-.44,1.3,1.3,0,0,0,.23-.81,1.4,1.4,0,0,0-.35-1A2.35,2.35,0,0,0,185.16,68.86Z"/><path class="cls-9" d="M185.61,73h-1.68v2.57a1.18,1.18,0,0,1-.26.83.88.88,0,0,1-.66.29.85.85,0,0,1-.67-.28,1.21,1.21,0,0,1-.25-.83v-7a1.11,1.11,0,0,1,.28-.86,1.22,1.22,0,0,1,.88-.26h2.36a6.09,6.09,0,0,1,1.61.16,2.34,2.34,0,0,1,1,.51,2.29,2.29,0,0,1,.61.88A3.13,3.13,0,0,1,189,70.2a2.59,2.59,0,0,1-.85,2.1A3.92,3.92,0,0,1,185.61,73Zm-.45-4.15h-1.23v2.77h1.23a3.7,3.7,0,0,0,1.09-.14,1.27,1.27,0,0,0,.66-.44,1.3,1.3,0,0,0,.23-.81,1.4,1.4,0,0,0-.35-1A2.35,2.35,0,0,0,185.16,68.86Z"/><path class="cls-8" d="M193.73,68.44V75h3.72a1,1,0,0,1,.68.21.72.72,0,0,1,.24.55.71.71,0,0,1-.23.54,1,1,0,0,1-.69.2H193a1.17,1.17,0,0,1-.86-.26,1.23,1.23,0,0,1-.26-.86v-7a1.22,1.22,0,0,1,.25-.84.87.87,0,0,1,.66-.28.86.86,0,0,1,.67.28A1.19,1.19,0,0,1,193.73,68.44Z"/><path class="cls-9" d="M193.73,68.44V75h3.72a1,1,0,0,1,.68.21.72.72,0,0,1,.24.55.71.71,0,0,1-.23.54,1,1,0,0,1-.69.2H193a1.17,1.17,0,0,1-.86-.26,1.23,1.23,0,0,1-.26-.86v-7a1.22,1.22,0,0,1,.25-.84.87.87,0,0,1,.66-.28.86.86,0,0,1,.67.28A1.19,1.19,0,0,1,193.73,68.44Z"/><path class="cls-8" d="M206.77,75.52l-.44-1.14h-3.68l-.44,1.16a3.63,3.63,0,0,1-.43.92.68.68,0,0,1-.59.24.9.9,0,0,1-.61-.25.78.78,0,0,1-.26-.58,1.31,1.31,0,0,1,.06-.38c0-.13.11-.32.2-.55l2.32-5.89c.07-.17.15-.37.24-.61a2.7,2.7,0,0,1,.3-.59,1.15,1.15,0,0,1,.41-.38,1.22,1.22,0,0,1,.63-.15,1.3,1.3,0,0,1,.65.15,1.33,1.33,0,0,1,.41.37,2.87,2.87,0,0,1,.26.49c.08.18.17.41.28.71l2.37,5.85a3.08,3.08,0,0,1,.28,1,.81.81,0,0,1-.27.58.86.86,0,0,1-.63.26.84.84,0,0,1-.37-.08.75.75,0,0,1-.26-.21A1.8,1.8,0,0,1,207,76C206.89,75.82,206.82,75.66,206.77,75.52ZM203.13,73h2.71l-1.37-3.74Z"/><path class="cls-9" d="M206.77,75.52l-.44-1.14h-3.68l-.44,1.16a3.63,3.63,0,0,1-.43.92.68.68,0,0,1-.59.24.9.9,0,0,1-.61-.25.78.78,0,0,1-.26-.58,1.31,1.31,0,0,1,.06-.38c0-.13.11-.32.2-.55l2.32-5.89c.07-.17.15-.37.24-.61a2.7,2.7,0,0,1,.3-.59,1.15,1.15,0,0,1,.41-.38,1.22,1.22,0,0,1,.63-.15,1.3,1.3,0,0,1,.65.15,1.33,1.33,0,0,1,.41.37,2.87,2.87,0,0,1,.26.49c.08.18.17.41.28.71l2.37,5.85a3.08,3.08,0,0,1,.28,1,.81.81,0,0,1-.27.58.86.86,0,0,1-.63.26.84.84,0,0,1-.37-.08.75.75,0,0,1-.26-.21A1.8,1.8,0,0,1,207,76C206.89,75.82,206.82,75.66,206.77,75.52ZM203.13,73h2.71l-1.37-3.74Z"/><path class="cls-8" d="M213.48,75.58V72.7l-2.21-3.43a6.81,6.81,0,0,1-.42-.72,1.16,1.16,0,0,1-.12-.45.75.75,0,0,1,.25-.55.85.85,0,0,1,.6-.23.71.71,0,0,1,.57.22,5.79,5.79,0,0,1,.59.85l1.69,2.75,1.72-2.75.26-.43a1.86,1.86,0,0,1,.23-.32.9.9,0,0,1,.28-.24.86.86,0,0,1,.38-.08.78.78,0,0,1,.57.23.69.69,0,0,1,.24.52,1.07,1.07,0,0,1-.12.48,6,6,0,0,1-.4.67l-2.27,3.48v2.88a1.21,1.21,0,0,1-.26.84.87.87,0,0,1-.66.28.85.85,0,0,1-.67-.28A1.19,1.19,0,0,1,213.48,75.58Z"/><path class="cls-9" d="M213.48,75.58V72.7l-2.21-3.43a6.81,6.81,0,0,1-.42-.72,1.16,1.16,0,0,1-.12-.45.75.75,0,0,1,.25-.55.85.85,0,0,1,.6-.23.71.71,0,0,1,.57.22,5.79,5.79,0,0,1,.59.85l1.69,2.75,1.72-2.75.26-.43a1.86,1.86,0,0,1,.23-.32.9.9,0,0,1,.28-.24.86.86,0,0,1,.38-.08.78.78,0,0,1,.57.23.69.69,0,0,1,.24.52,1.07,1.07,0,0,1-.12.48,6,6,0,0,1-.4.67l-2.27,3.48v2.88a1.21,1.21,0,0,1-.26.84.87.87,0,0,1-.66.28.85.85,0,0,1-.67-.28A1.19,1.19,0,0,1,213.48,75.58Z"/><path class="cls-8" d="M233.05,73.68a2.32,2.32,0,0,1-.22.94,3.4,3.4,0,0,1-.67,1,3.49,3.49,0,0,1-1.17.79,4.19,4.19,0,0,1-1.65.3,5.85,5.85,0,0,1-1.31-.14,3.73,3.73,0,0,1-1.07-.42,3.64,3.64,0,0,1-.88-.76,4.41,4.41,0,0,1-.61-.95,4.85,4.85,0,0,1-.38-1.13A6.53,6.53,0,0,1,225,72a5.71,5.71,0,0,1,.32-2,4.44,4.44,0,0,1,.91-1.48,4.06,4.06,0,0,1,1.4-.94,4.59,4.59,0,0,1,1.7-.32,4.31,4.31,0,0,1,2,.44,3.61,3.61,0,0,1,1.32,1.09,2.17,2.17,0,0,1,.45,1.22.81.81,0,0,1-.22.56.71.71,0,0,1-.54.24.77.77,0,0,1-.53-.17,2.57,2.57,0,0,1-.39-.58,2.83,2.83,0,0,0-.84-1,2,2,0,0,0-1.2-.34,2.17,2.17,0,0,0-1.8.86,3.9,3.9,0,0,0-.67,2.45,4.53,4.53,0,0,0,.29,1.76,2.26,2.26,0,0,0,.84,1,2.36,2.36,0,0,0,1.28.35,2.26,2.26,0,0,0,1.34-.39,2.36,2.36,0,0,0,.82-1.16,2.09,2.09,0,0,1,.29-.58.67.67,0,0,1,.56-.23.77.77,0,0,1,.56.23A.75.75,0,0,1,233.05,73.68Z"/><path class="cls-9" d="M233.05,73.68a2.32,2.32,0,0,1-.22.94,3.4,3.4,0,0,1-.67,1,3.49,3.49,0,0,1-1.17.79,4.19,4.19,0,0,1-1.65.3,5.85,5.85,0,0,1-1.31-.14,3.73,3.73,0,0,1-1.07-.42,3.64,3.64,0,0,1-.88-.76,4.41,4.41,0,0,1-.61-.95,4.85,4.85,0,0,1-.38-1.13A6.53,6.53,0,0,1,225,72a5.71,5.71,0,0,1,.32-2,4.44,4.44,0,0,1,.91-1.48,4.06,4.06,0,0,1,1.4-.94,4.59,4.59,0,0,1,1.7-.32,4.31,4.31,0,0,1,2,.44,3.61,3.61,0,0,1,1.32,1.09,2.17,2.17,0,0,1,.45,1.22.81.81,0,0,1-.22.56.71.71,0,0,1-.54.24.77.77,0,0,1-.53-.17,2.57,2.57,0,0,1-.39-.58,2.83,2.83,0,0,0-.84-1,2,2,0,0,0-1.2-.34,2.17,2.17,0,0,0-1.8.86,3.9,3.9,0,0,0-.67,2.45,4.53,4.53,0,0,0,.29,1.76,2.26,2.26,0,0,0,.84,1,2.36,2.36,0,0,0,1.28.35,2.26,2.26,0,0,0,1.34-.39,2.36,2.36,0,0,0,.82-1.16,2.09,2.09,0,0,1,.29-.58.67.67,0,0,1,.56-.23.77.77,0,0,1,.56.23A.75.75,0,0,1,233.05,73.68Z"/><path class="cls-8" d="M243,73.82a2.69,2.69,0,0,1-.42,1.48,2.83,2.83,0,0,1-1.24,1,4.63,4.63,0,0,1-1.94.37,4.33,4.33,0,0,1-2.21-.51,3,3,0,0,1-1-1,2.28,2.28,0,0,1-.38-1.19.8.8,0,0,1,.82-.81.67.67,0,0,1,.49.19,1.44,1.44,0,0,1,.34.55,4,4,0,0,0,.38.72,1.39,1.39,0,0,0,.56.48,2.08,2.08,0,0,0,1,.19,2.18,2.18,0,0,0,1.33-.38,1.14,1.14,0,0,0,.51-1,1,1,0,0,0-.28-.73,1.74,1.74,0,0,0-.71-.43,11.65,11.65,0,0,0-1.16-.32,8.79,8.79,0,0,1-1.64-.53,2.57,2.57,0,0,1-1-.84,2.14,2.14,0,0,1-.39-1.31,2.28,2.28,0,0,1,.41-1.33,2.46,2.46,0,0,1,1.18-.89,4.81,4.81,0,0,1,1.82-.32,4.42,4.42,0,0,1,1.44.21,2.94,2.94,0,0,1,1,.55,2.26,2.26,0,0,1,.59.72,1.73,1.73,0,0,1,.19.74.86.86,0,0,1-.24.59.73.73,0,0,1-.57.26.65.65,0,0,1-.48-.16,2,2,0,0,1-.36-.51,2.2,2.2,0,0,0-.59-.8,1.69,1.69,0,0,0-1.12-.29,1.9,1.9,0,0,0-1.14.31.92.92,0,0,0-.44.75.75.75,0,0,0,.15.47,1.17,1.17,0,0,0,.41.34,2.31,2.31,0,0,0,.52.22c.18.06.47.14.88.24a12.33,12.33,0,0,1,1.39.4,4.36,4.36,0,0,1,1.06.52,2.21,2.21,0,0,1,.68.78A2.58,2.58,0,0,1,243,73.82Z"/><path class="cls-9" d="M243,73.82a2.69,2.69,0,0,1-.42,1.48,2.83,2.83,0,0,1-1.24,1,4.63,4.63,0,0,1-1.94.37,4.33,4.33,0,0,1-2.21-.51,3,3,0,0,1-1-1,2.28,2.28,0,0,1-.38-1.19.8.8,0,0,1,.82-.81.67.67,0,0,1,.49.19,1.44,1.44,0,0,1,.34.55,4,4,0,0,0,.38.72,1.39,1.39,0,0,0,.56.48,2.08,2.08,0,0,0,1,.19,2.18,2.18,0,0,0,1.33-.38,1.14,1.14,0,0,0,.51-1,1,1,0,0,0-.28-.73,1.74,1.74,0,0,0-.71-.43,11.65,11.65,0,0,0-1.16-.32,8.79,8.79,0,0,1-1.64-.53,2.57,2.57,0,0,1-1-.84,2.14,2.14,0,0,1-.39-1.31,2.28,2.28,0,0,1,.41-1.33,2.46,2.46,0,0,1,1.18-.89,4.81,4.81,0,0,1,1.82-.32,4.42,4.42,0,0,1,1.44.21,2.94,2.94,0,0,1,1,.55,2.26,2.26,0,0,1,.59.72,1.73,1.73,0,0,1,.19.74.86.86,0,0,1-.24.59.73.73,0,0,1-.57.26.65.65,0,0,1-.48-.16,2,2,0,0,1-.36-.51,2.2,2.2,0,0,0-.59-.8,1.69,1.69,0,0,0-1.12-.29,1.9,1.9,0,0,0-1.14.31.92.92,0,0,0-.44.75.75.75,0,0,0,.15.47,1.17,1.17,0,0,0,.41.34,2.31,2.31,0,0,0,.52.22c.18.06.47.14.88.24a12.33,12.33,0,0,1,1.39.4,4.36,4.36,0,0,1,1.06.52,2.21,2.21,0,0,1,.68.78A2.58,2.58,0,0,1,243,73.82Z"/><path class="cls-8" d="M247.26,68.53l2.05,6.08,2.06-6.12c.11-.33.19-.55.25-.68a1,1,0,0,1,.26-.34.89.89,0,0,1,.94,0,.87.87,0,0,1,.32.31.73.73,0,0,1,.11.4,1.59,1.59,0,0,1,0,.29c0,.1-.06.21-.1.31s-.07.2-.11.31L250.82,75c-.08.22-.16.44-.24.64a2.72,2.72,0,0,1-.27.54,1.25,1.25,0,0,1-.41.38,1.4,1.4,0,0,1-1.26,0,1.07,1.07,0,0,1-.41-.38,2.74,2.74,0,0,1-.28-.54l-.23-.64-2.16-5.88c0-.11-.08-.21-.11-.32a1.59,1.59,0,0,1-.1-.33,1.24,1.24,0,0,1,0-.3.82.82,0,0,1,.25-.58.87.87,0,0,1,.64-.26.74.74,0,0,1,.66.29A4,4,0,0,1,247.26,68.53Z"/><path class="cls-9" d="M247.26,68.53l2.05,6.08,2.06-6.12c.11-.33.19-.55.25-.68a1,1,0,0,1,.26-.34.89.89,0,0,1,.94,0,.87.87,0,0,1,.32.31.73.73,0,0,1,.11.4,1.59,1.59,0,0,1,0,.29c0,.1-.06.21-.1.31s-.07.2-.11.31L250.82,75c-.08.22-.16.44-.24.64a2.72,2.72,0,0,1-.27.54,1.25,1.25,0,0,1-.41.38,1.4,1.4,0,0,1-1.26,0,1.07,1.07,0,0,1-.41-.38,2.74,2.74,0,0,1-.28-.54l-.23-.64-2.16-5.88c0-.11-.08-.21-.11-.32a1.59,1.59,0,0,1-.1-.33,1.24,1.24,0,0,1,0-.3.82.82,0,0,1,.25-.58.87.87,0,0,1,.64-.26.74.74,0,0,1,.66.29A4,4,0,0,1,247.26,68.53Z"/><path class="cls-8" d="M261.72,67.48h2.39a6.7,6.7,0,0,1,1.6.17,2.92,2.92,0,0,1,1.21.65A4.58,4.58,0,0,1,268.34,72a7.62,7.62,0,0,1-.14,1.49,4.45,4.45,0,0,1-.44,1.21,3.75,3.75,0,0,1-.76,1,3.27,3.27,0,0,1-.8.53,3.57,3.57,0,0,1-.93.27,6.41,6.41,0,0,1-1.12.08h-2.4a1.5,1.5,0,0,1-.75-.15.69.69,0,0,1-.33-.42,2.86,2.86,0,0,1-.08-.72V68.6a1.18,1.18,0,0,1,.27-.86A1.19,1.19,0,0,1,261.72,67.48Zm.71,1.45v6.16h1.39a6.7,6.7,0,0,0,.72,0,2.94,2.94,0,0,0,.54-.12,1.64,1.64,0,0,0,.48-.28,3.39,3.39,0,0,0,.92-2.69,4,4,0,0,0-.41-2,1.86,1.86,0,0,0-1-.85,5.05,5.05,0,0,0-1.44-.18Z"/><path class="cls-9" d="M261.72,67.48h2.39a6.7,6.7,0,0,1,1.6.17,2.92,2.92,0,0,1,1.21.65A4.58,4.58,0,0,1,268.34,72a7.62,7.62,0,0,1-.14,1.49,4.45,4.45,0,0,1-.44,1.21,3.75,3.75,0,0,1-.76,1,3.27,3.27,0,0,1-.8.53,3.57,3.57,0,0,1-.93.27,6.41,6.41,0,0,1-1.12.08h-2.4a1.5,1.5,0,0,1-.75-.15.69.69,0,0,1-.33-.42,2.86,2.86,0,0,1-.08-.72V68.6a1.18,1.18,0,0,1,.27-.86A1.19,1.19,0,0,1,261.72,67.48Zm.71,1.45v6.16h1.39a6.7,6.7,0,0,0,.72,0,2.94,2.94,0,0,0,.54-.12,1.64,1.64,0,0,0,.48-.28,3.39,3.39,0,0,0,.92-2.69,4,4,0,0,0-.41-2,1.86,1.86,0,0,0-1-.85,5.05,5.05,0,0,0-1.44-.18Z"/><path class="cls-8" d="M277.14,75.52l-.43-1.14H273l-.43,1.16a3.94,3.94,0,0,1-.44.92.67.67,0,0,1-.58.24.92.92,0,0,1-.62-.25.82.82,0,0,1-.26-.58,1.31,1.31,0,0,1,.06-.38c0-.13.11-.32.2-.55l2.32-5.89c.07-.17.15-.37.24-.61a2.7,2.7,0,0,1,.3-.59,1.15,1.15,0,0,1,.41-.38,1.44,1.44,0,0,1,1.28,0,1.23,1.23,0,0,1,.41.37,2.91,2.91,0,0,1,.27.49c.07.18.16.41.27.71l2.37,5.85a2.82,2.82,0,0,1,.28,1,.83.83,0,0,1-.26.58.9.9,0,0,1-.64.26.84.84,0,0,1-.37-.08.75.75,0,0,1-.26-.21,1.84,1.84,0,0,1-.22-.41ZM273.5,73h2.71l-1.37-3.74Z"/><path class="cls-9" d="M277.14,75.52l-.43-1.14H273l-.43,1.16a3.94,3.94,0,0,1-.44.92.67.67,0,0,1-.58.24.92.92,0,0,1-.62-.25.82.82,0,0,1-.26-.58,1.31,1.31,0,0,1,.06-.38c0-.13.11-.32.2-.55l2.32-5.89c.07-.17.15-.37.24-.61a2.7,2.7,0,0,1,.3-.59,1.15,1.15,0,0,1,.41-.38,1.44,1.44,0,0,1,1.28,0,1.23,1.23,0,0,1,.41.37,2.91,2.91,0,0,1,.27.49c.07.18.16.41.27.71l2.37,5.85a2.82,2.82,0,0,1,.28,1,.83.83,0,0,1-.26.58.9.9,0,0,1-.64.26.84.84,0,0,1-.37-.08.75.75,0,0,1-.26-.21,1.84,1.84,0,0,1-.22-.41ZM273.5,73h2.71l-1.37-3.74Z"/><path class="cls-8" d="M287.72,69h-2v6.59a1.19,1.19,0,0,1-.25.84.83.83,0,0,1-.65.28.85.85,0,0,1-.67-.28,1.21,1.21,0,0,1-.26-.84V69h-2a1.06,1.06,0,0,1-.7-.2.72.72,0,0,1-.23-.55.7.7,0,0,1,.24-.56,1.07,1.07,0,0,1,.69-.2h5.84a1,1,0,0,1,.71.21.72.72,0,0,1,.23.55.69.69,0,0,1-.24.55A1.06,1.06,0,0,1,287.72,69Z"/><path class="cls-9" d="M287.72,69h-2v6.59a1.19,1.19,0,0,1-.25.84.83.83,0,0,1-.65.28.85.85,0,0,1-.67-.28,1.21,1.21,0,0,1-.26-.84V69h-2a1.06,1.06,0,0,1-.7-.2.72.72,0,0,1-.23-.55.7.7,0,0,1,.24-.56,1.07,1.07,0,0,1,.69-.2h5.84a1,1,0,0,1,.71.21.72.72,0,0,1,.23.55.69.69,0,0,1-.24.55A1.06,1.06,0,0,1,287.72,69Z"/><path class="cls-8" d="M296.94,75.52l-.44-1.14h-3.68l-.44,1.16a3.63,3.63,0,0,1-.43.92.68.68,0,0,1-.59.24.9.9,0,0,1-.61-.25.78.78,0,0,1-.26-.58,1.31,1.31,0,0,1,.06-.38c0-.13.11-.32.2-.55l2.32-5.89c.07-.17.15-.37.24-.61a2.7,2.7,0,0,1,.3-.59,1.15,1.15,0,0,1,.41-.38,1.22,1.22,0,0,1,.63-.15,1.3,1.3,0,0,1,.65.15,1.33,1.33,0,0,1,.41.37,2.87,2.87,0,0,1,.26.49c.08.18.17.41.28.71l2.37,5.85a3.08,3.08,0,0,1,.28,1,.81.81,0,0,1-.27.58.86.86,0,0,1-.63.26.84.84,0,0,1-.37-.08.75.75,0,0,1-.26-.21,1.8,1.8,0,0,1-.23-.41C297.06,75.82,297,75.66,296.94,75.52ZM293.3,73H296l-1.37-3.74Z"/><path class="cls-9" d="M296.94,75.52l-.44-1.14h-3.68l-.44,1.16a3.63,3.63,0,0,1-.43.92.68.68,0,0,1-.59.24.9.9,0,0,1-.61-.25.78.78,0,0,1-.26-.58,1.31,1.31,0,0,1,.06-.38c0-.13.11-.32.2-.55l2.32-5.89c.07-.17.15-.37.24-.61a2.7,2.7,0,0,1,.3-.59,1.15,1.15,0,0,1,.41-.38,1.22,1.22,0,0,1,.63-.15,1.3,1.3,0,0,1,.65.15,1.33,1.33,0,0,1,.41.37,2.87,2.87,0,0,1,.26.49c.08.18.17.41.28.71l2.37,5.85a3.08,3.08,0,0,1,.28,1,.81.81,0,0,1-.27.58.86.86,0,0,1-.63.26.84.84,0,0,1-.37-.08.75.75,0,0,1-.26-.21,1.8,1.8,0,0,1-.23-.41C297.06,75.82,297,75.66,296.94,75.52ZM293.3,73H296l-1.37-3.74Z"/></g></g></g></svg>