<svg id="Layer_1" data-name="Layer 1" xmlns="http://www.w3.org/2000/svg" xmlns:xlink="http://www.w3.org/1999/xlink" viewBox="0 0 319.59 134.99"><defs><style>.cls-1{fill:none;}.cls-2{clip-path:url(#clip-path);}.cls-3{fill:#29abe2;opacity:0.3;}.cls-4{fill:#ff953b;}.cls-5{fill:#1d5888;}.cls-6{fill:#0b66a0;}</style><clipPath id="clip-path" transform="translate(-32.35 -106.63)"><polyline class="cls-1" points="137.04 122.52 163.44 122.52 163.44 174.36 137.04 174.36 137.04 122.52"/></clipPath></defs><g class="cls-2"><path class="cls-3" d="M137.38,122.74c10.42,3,19.09,12,21.76,23.94a32.24,32.24,0,0,1-6.2,27.44,29.3,29.3,0,0,0-15.56-51.38m0,0h0" transform="translate(-32.35 -106.63)"/></g><path class="cls-4" d="M95.53,152.32a36,36,0,1,1,36,35.91A36,36,0,0,1,95.53,152.32Zm120.2,80.8L165.46,183A45.82,45.82,0,1,0,158,189.6l50.7,50.56a5,5,0,0,0,7.06-7Z" transform="translate(-32.35 -106.63)"/><path class="cls-5" d="M51.83,140.18V155.1a28,28,0,0,1-.17,3.31,10.91,10.91,0,0,1-.74,2.76,7.52,7.52,0,0,1-3.21,3.66,10.61,10.61,0,0,1-5.44,1.31,11.28,11.28,0,0,1-4.83-.91,7.1,7.1,0,0,1-3.12-3,10.53,10.53,0,0,1-1-2.5,10.25,10.25,0,0,1-.39-2.71,2.54,2.54,0,0,1,2.7-2.79,2.2,2.2,0,0,1,1.73.66,4.5,4.5,0,0,1,.89,2.06,17.67,17.67,0,0,0,.67,2.39,3.57,3.57,0,0,0,1.1,1.53,3.4,3.4,0,0,0,2.22.64q3.83,0,3.83-5.61V140.18a3.9,3.9,0,0,1,.76-2.63,2.66,2.66,0,0,1,2.09-.87,2.72,2.72,0,0,1,2.13.87A3.79,3.79,0,0,1,51.83,140.18Z" transform="translate(-32.35 -106.63)"/><path class="cls-5" d="M51.83,140.18h-.57V155.1a26.87,26.87,0,0,1-.16,3.24,9.79,9.79,0,0,1-.71,2.61h0a6.9,6.9,0,0,1-3,3.39h0a10,10,0,0,1-5.15,1.23,10.65,10.65,0,0,1-4.59-.86A6.52,6.52,0,0,1,34.81,162h0a9.85,9.85,0,0,1-1-2.37,9.65,9.65,0,0,1-.37-2.56,2.13,2.13,0,0,1,.58-1.66h0a2.17,2.17,0,0,1,1.55-.57,1.64,1.64,0,0,1,1.3.47,4,4,0,0,1,.77,1.81,19.38,19.38,0,0,0,.68,2.46,4.12,4.12,0,0,0,1.28,1.78,4,4,0,0,0,2.58.77,3.79,3.79,0,0,0,3.34-1.65,8.08,8.08,0,0,0,1.06-4.53V140.18a3.36,3.36,0,0,1,.62-2.25,2,2,0,0,1,1.66-.68,2.14,2.14,0,0,1,1.71.68,3.32,3.32,0,0,1,.64,2.25H52.4a4.4,4.4,0,0,0-.93-3,3.31,3.31,0,0,0-2.56-1.06,3.16,3.16,0,0,0-2.51,1.07,4.41,4.41,0,0,0-.91,3v15.76a7,7,0,0,1-.86,3.89,2.68,2.68,0,0,1-2.4,1.16,2.83,2.83,0,0,1-1.86-.52,3,3,0,0,1-.93-1.29,18.15,18.15,0,0,1-.64-2.32,5.26,5.26,0,0,0-1-2.31,2.74,2.74,0,0,0-2.16-.85,3.27,3.27,0,0,0-2.33.87h0a3.3,3.3,0,0,0-.94,2.49,10.85,10.85,0,0,0,.41,2.86,11.65,11.65,0,0,0,1.06,2.64h0a7.64,7.64,0,0,0,3.37,3.18,11.73,11.73,0,0,0,5.07,1A11.13,11.13,0,0,0,48,165.32l0,0,0,0a8,8,0,0,0,3.44-3.94h0a10.88,10.88,0,0,0,.79-2.91,29.24,29.24,0,0,0,.17-3.37V140.18Z" transform="translate(-32.35 -106.63)"/><path class="cls-5" d="M79.73,157.1a8.45,8.45,0,0,1-1.33,4.65A8.83,8.83,0,0,1,74.5,165a14.56,14.56,0,0,1-6.08,1.17,13.73,13.73,0,0,1-7-1.59,9.34,9.34,0,0,1-3.16-3.06,7,7,0,0,1-1.21-3.73,2.53,2.53,0,0,1,2.58-2.54,2.19,2.19,0,0,1,1.55.58,4.67,4.67,0,0,1,1.08,1.73,11.11,11.11,0,0,0,1.17,2.27,4.67,4.67,0,0,0,1.78,1.51,6.5,6.5,0,0,0,3,.59,6.78,6.78,0,0,0,4.17-1.19,3.59,3.59,0,0,0,1.6-3,3.15,3.15,0,0,0-.86-2.31,5.56,5.56,0,0,0-2.24-1.35q-1.37-.47-3.66-1a27,27,0,0,1-5.14-1.68,8.34,8.34,0,0,1-3.28-2.62,6.83,6.83,0,0,1-1.22-4.13,7.13,7.13,0,0,1,1.28-4.18,8.09,8.09,0,0,1,3.72-2.81,15.07,15.07,0,0,1,5.71-1,14,14,0,0,1,4.54.65,9.66,9.66,0,0,1,3.18,1.73,7.25,7.25,0,0,1,1.84,2.26,5.19,5.19,0,0,1,.58,2.31,2.75,2.75,0,0,1-.72,1.86,2.35,2.35,0,0,1-1.82.83,2.12,2.12,0,0,1-1.51-.5,7,7,0,0,1-1.12-1.62,7.26,7.26,0,0,0-1.86-2.52,5.48,5.48,0,0,0-3.5-.9,6.06,6.06,0,0,0-3.6,1A2.83,2.83,0,0,0,63,144.12a2.41,2.41,0,0,0,.46,1.48,4,4,0,0,0,1.28,1.07,9.47,9.47,0,0,0,1.66.7c.55.17,1.47.41,2.76.73,1.6.38,3.06.8,4.36,1.25A13,13,0,0,1,76.82,151,6.75,6.75,0,0,1,79,153.46,7.9,7.9,0,0,1,79.73,157.1Z" transform="translate(-32.35 -106.63)"/><path class="cls-5" d="M79.73,157.1h-.57a7.76,7.76,0,0,1-1.24,4.34,8.31,8.31,0,0,1-3.65,3,14.2,14.2,0,0,1-5.85,1.11,13.2,13.2,0,0,1-6.67-1.51h0a8.8,8.8,0,0,1-3-2.88,6.34,6.34,0,0,1-1.12-3.42,1.89,1.89,0,0,1,.56-1.4,1.91,1.91,0,0,1,1.45-.57,1.6,1.6,0,0,1,1.16.43h0a4.19,4.19,0,0,1,.94,1.52h0A12.08,12.08,0,0,0,63,160.13h0a5.42,5.42,0,0,0,2,1.69h0a7.14,7.14,0,0,0,3.27.65,7.35,7.35,0,0,0,4.51-1.31,4.16,4.16,0,0,0,1.83-3.43,3.76,3.76,0,0,0-1-2.71h0a6.28,6.28,0,0,0-2.46-1.49c-1-.32-2.18-.65-3.72-1h0a26.7,26.7,0,0,1-5-1.65,7.69,7.69,0,0,1-3.07-2.44,6.28,6.28,0,0,1-1.1-3.79,6.51,6.51,0,0,1,1.18-3.86,7.5,7.5,0,0,1,3.46-2.6,14.45,14.45,0,0,1,5.5-.94,13.52,13.52,0,0,1,4.35.62,9,9,0,0,1,3,1.62,6.84,6.84,0,0,1,1.7,2.08,4.63,4.63,0,0,1,.53,2.06,2.15,2.15,0,0,1-.59,1.48h0a1.73,1.73,0,0,1-1.39.64,1.51,1.51,0,0,1-1.11-.34h0a6.17,6.17,0,0,1-1-1.48l-.51.27.52-.25a8,8,0,0,0-2-2.71,6,6,0,0,0-3.86-1A6.66,6.66,0,0,0,64,141.3a4,4,0,0,0-1.18,1.26,3,3,0,0,0-.42,1.56,2.93,2.93,0,0,0,.58,1.82,4.43,4.43,0,0,0,1.46,1.23,9.55,9.55,0,0,0,1.76.74h0c.58.17,1.5.42,2.79.75h0a41.06,41.06,0,0,1,4.3,1.23,12.41,12.41,0,0,1,3.18,1.57,6.3,6.3,0,0,1,2,2.26,7.31,7.31,0,0,1,.7,3.38H80.3a8.47,8.47,0,0,0-.83-3.9,7.34,7.34,0,0,0-2.32-2.66,13.64,13.64,0,0,0-3.46-1.73,45,45,0,0,0-4.42-1.26l-.13.55.14-.55c-1.28-.32-2.2-.56-2.74-.73h0a7.55,7.55,0,0,1-1.54-.65,3.3,3.3,0,0,1-1.1-.91,1.85,1.85,0,0,1-.36-1.14,2,2,0,0,1,.27-1,3,3,0,0,1,.87-.91,5.46,5.46,0,0,1,3.27-.87,4.93,4.93,0,0,1,3.14.77,6.91,6.91,0,0,1,1.71,2.33h0A7,7,0,0,0,74,146.23h0a2.67,2.67,0,0,0,1.9.66,2.92,2.92,0,0,0,2.24-1h0a3.27,3.27,0,0,0,.87-2.24,5.8,5.8,0,0,0-.64-2.56,7.71,7.71,0,0,0-2-2.44,9.94,9.94,0,0,0-3.36-1.84,14.64,14.64,0,0,0-4.72-.68,15.75,15.75,0,0,0-5.93,1,8.64,8.64,0,0,0-4,3,7.72,7.72,0,0,0-1.39,4.51,7.34,7.34,0,0,0,1.33,4.46,8.86,8.86,0,0,0,3.5,2.8,26.71,26.71,0,0,0,5.25,1.72h0c1.52.35,2.73.68,3.61,1a4.91,4.91,0,0,1,2,1.21h0a2.58,2.58,0,0,1,.71,1.91,3,3,0,0,1-1.38,2.52,6.27,6.27,0,0,1-3.83,1.09,6.15,6.15,0,0,1-2.75-.53h0a4.18,4.18,0,0,1-1.57-1.33h0a10.76,10.76,0,0,1-1.12-2.16h0a5,5,0,0,0-1.22-1.94h0a2.81,2.81,0,0,0-1.93-.73,3.09,3.09,0,0,0-3.15,3.11,7.53,7.53,0,0,0,1.3,4A9.92,9.92,0,0,0,61.17,165h0a14.25,14.25,0,0,0,7.25,1.67,15.16,15.16,0,0,0,6.32-1.22,9.39,9.39,0,0,0,4.13-3.43,9,9,0,0,0,1.43-5Z" transform="translate(-32.35 -106.63)"/><path class="cls-5" d="M118.85,156.66a7.56,7.56,0,0,1-.67,2.94,10.65,10.65,0,0,1-2.11,3.11,10.79,10.79,0,0,1-3.67,2.48,13.31,13.31,0,0,1-5.21.95,17.92,17.92,0,0,1-4.1-.43,11.4,11.4,0,0,1-3.35-1.33A11,11,0,0,1,97,162,14,14,0,0,1,95,159a15.44,15.44,0,0,1-1.19-3.55,19,19,0,0,1-.4-4,17.65,17.65,0,0,1,1-6.16,13.08,13.08,0,0,1,2.87-4.66,12.4,12.4,0,0,1,4.37-2.94,14,14,0,0,1,5.35-1,13.36,13.36,0,0,1,6.16,1.38,11.11,11.11,0,0,1,4.14,3.41,6.76,6.76,0,0,1,1.43,3.84,2.5,2.5,0,0,1-.7,1.75,2.22,2.22,0,0,1-1.69.75,2.34,2.34,0,0,1-1.66-.52,7.1,7.1,0,0,1-1.23-1.81,8.69,8.69,0,0,0-2.66-3.17,6.46,6.46,0,0,0-3.76-1.05,6.78,6.78,0,0,0-5.66,2.71q-2.11,2.7-2.11,7.67a14.28,14.28,0,0,0,.93,5.53,7,7,0,0,0,2.65,3.3,7.32,7.32,0,0,0,4,1.08,7.06,7.06,0,0,0,4.21-1.23,7.46,7.46,0,0,0,2.59-3.62,6,6,0,0,1,.92-1.84,2.06,2.06,0,0,1,1.74-.71,2.44,2.44,0,0,1,1.77.72A2.36,2.36,0,0,1,118.85,156.66Z" transform="translate(-32.35 -106.63)"/><path class="cls-5" d="M118.85,156.66h-.57a7.09,7.09,0,0,1-.62,2.72,10.28,10.28,0,0,1-5.48,5.29,12.85,12.85,0,0,1-5,.9,17.81,17.81,0,0,1-4-.41,10.86,10.86,0,0,1-3.19-1.27,10.42,10.42,0,0,1-2.63-2.26h0a13.55,13.55,0,0,1-1.84-2.89,15.14,15.14,0,0,1-1.16-3.42,19.2,19.2,0,0,1-.38-3.88,17.23,17.23,0,0,1,1-6A12.67,12.67,0,0,1,97.73,141a11.89,11.89,0,0,1,4.17-2.82,13.74,13.74,0,0,1,5.14-1,12.85,12.85,0,0,1,5.9,1.31,10.57,10.57,0,0,1,3.93,3.24,6.15,6.15,0,0,1,1.34,3.51,2,2,0,0,1-.55,1.36,1.63,1.63,0,0,1-1.28.57,1.83,1.83,0,0,1-1.27-.36,6.93,6.93,0,0,1-1.12-1.67h0a9.17,9.17,0,0,0-2.83-3.36,7,7,0,0,0-4.09-1.15,7.35,7.35,0,0,0-6.11,2.92c-1.51,1.94-2.23,4.63-2.23,8a14.79,14.79,0,0,0,1,5.75,7.53,7.53,0,0,0,2.86,3.56,8,8,0,0,0,4.31,1.17,7.61,7.61,0,0,0,4.54-1.34,8.09,8.09,0,0,0,2.8-3.89h0a5.53,5.53,0,0,1,.83-1.67,1.14,1.14,0,0,1,.47-.35,2.27,2.27,0,0,1,.82-.13,1.83,1.83,0,0,1,1.38.56,1.79,1.79,0,0,1,.56,1.38h1.14a3,3,0,0,0-.91-2.2,3.07,3.07,0,0,0-2.17-.88,3.39,3.39,0,0,0-1.25.22,2.29,2.29,0,0,0-1,.71,6.74,6.74,0,0,0-1,2l.54.18-.53-.2a7,7,0,0,1-2.39,3.36,6.55,6.55,0,0,1-3.88,1.13,6.82,6.82,0,0,1-3.7-1,6.43,6.43,0,0,1-2.42-3,13.54,13.54,0,0,1-.89-5.31c0-3.24.69-5.66,2-7.32a6.21,6.21,0,0,1,5.21-2.49,5.92,5.92,0,0,1,3.44.95,8.08,8.08,0,0,1,2.48,3h0a7.76,7.76,0,0,0,1.34,1.95,2.88,2.88,0,0,0,2,.68,2.77,2.77,0,0,0,2.11-.94,3,3,0,0,0,.85-2.13,7.32,7.32,0,0,0-1.54-4.17,11.69,11.69,0,0,0-4.35-3.59,13.93,13.93,0,0,0-6.41-1.44,14.78,14.78,0,0,0-5.56,1,13,13,0,0,0-4.57,3.08,13.72,13.72,0,0,0-3,4.85,18.21,18.21,0,0,0-1,6.36,20.2,20.2,0,0,0,.41,4.12,16.52,16.52,0,0,0,1.24,3.67,15,15,0,0,0,2,3.13h0a11.72,11.72,0,0,0,2.9,2.5,12.4,12.4,0,0,0,3.52,1.4,19.15,19.15,0,0,0,4.23.44,13.77,13.77,0,0,0,5.43-1,11.38,11.38,0,0,0,3.87-2.61,11.15,11.15,0,0,0,2.21-3.28,8.13,8.13,0,0,0,.72-3.16Z" transform="translate(-32.35 -106.63)"/><path class="cls-5" d="M145.68,157.1a8.37,8.37,0,0,1-1.33,4.65,8.78,8.78,0,0,1-3.9,3.22,14.53,14.53,0,0,1-6.08,1.17,13.73,13.73,0,0,1-7-1.59,9.31,9.31,0,0,1-3.15-3.06,7,7,0,0,1-1.22-3.73,2.45,2.45,0,0,1,.73-1.79,2.48,2.48,0,0,1,1.86-.75,2.19,2.19,0,0,1,1.54.58,4.67,4.67,0,0,1,1.08,1.73,10.62,10.62,0,0,0,1.18,2.27,4.72,4.72,0,0,0,1.77,1.51,6.55,6.55,0,0,0,3,.59,6.73,6.73,0,0,0,4.16-1.19,3.6,3.6,0,0,0,1.61-3,3.15,3.15,0,0,0-.87-2.31,5.52,5.52,0,0,0-2.23-1.35c-.92-.31-2.14-.64-3.67-1a27.19,27.19,0,0,1-5.14-1.68,8.34,8.34,0,0,1-3.28-2.62,6.83,6.83,0,0,1-1.22-4.13,7.07,7.07,0,0,1,1.29-4.18,8,8,0,0,1,3.71-2.81,15.07,15.07,0,0,1,5.71-1,14,14,0,0,1,4.54.65,9.46,9.46,0,0,1,3.18,1.73,7.29,7.29,0,0,1,1.85,2.26,5.33,5.33,0,0,1,.58,2.31,2.72,2.72,0,0,1-.73,1.86,2.34,2.34,0,0,1-1.82.83,2.07,2.07,0,0,1-1.5-.5,6.45,6.45,0,0,1-1.12-1.62,7.28,7.28,0,0,0-1.87-2.52,5.46,5.46,0,0,0-3.5-.9,6.09,6.09,0,0,0-3.6,1,2.85,2.85,0,0,0-1.37,2.36,2.36,2.36,0,0,0,.47,1.48,3.93,3.93,0,0,0,1.28,1.07,9.07,9.07,0,0,0,1.65.7c.56.17,1.48.41,2.76.73a44.83,44.83,0,0,1,4.36,1.25,13.1,13.1,0,0,1,3.33,1.65,7,7,0,0,1,2.14,2.46A7.9,7.9,0,0,1,145.68,157.1Z" transform="translate(-32.35 -106.63)"/><path class="cls-5" d="M145.68,157.1h-.57a7.76,7.76,0,0,1-1.24,4.34,8.31,8.31,0,0,1-3.65,3,14.17,14.17,0,0,1-5.85,1.11,13.2,13.2,0,0,1-6.67-1.51h0a8.68,8.68,0,0,1-3-2.88,6.36,6.36,0,0,1-1.13-3.42,1.95,1.95,0,0,1,2-2,1.63,1.63,0,0,1,1.16.43,4.18,4.18,0,0,1,.93,1.52h0a12.08,12.08,0,0,0,1.24,2.39,5.39,5.39,0,0,0,2,1.69,7.16,7.16,0,0,0,3.28.65,7.32,7.32,0,0,0,4.5-1.31,4.14,4.14,0,0,0,1.84-3.43,3.77,3.77,0,0,0-1-2.71,6.28,6.28,0,0,0-2.46-1.49c-.94-.32-2.18-.65-3.72-1h0a27,27,0,0,1-5-1.65,7.72,7.72,0,0,1-3.06-2.44,6.28,6.28,0,0,1-1.11-3.79,6.65,6.65,0,0,1,1.18-3.86,7.55,7.55,0,0,1,3.46-2.6,14.48,14.48,0,0,1,5.5-.94,13.54,13.54,0,0,1,4.36.62,9,9,0,0,1,3,1.62,6.74,6.74,0,0,1,1.71,2.08,4.75,4.75,0,0,1,.52,2.06,2.1,2.1,0,0,1-.59,1.48,1.72,1.72,0,0,1-1.39.64,1.52,1.52,0,0,1-1.11-.34h0a6.17,6.17,0,0,1-1-1.48l-.5.27.51-.25a7.93,7.93,0,0,0-2-2.71,6,6,0,0,0-3.87-1A6.61,6.61,0,0,0,130,141.3a4.05,4.05,0,0,0-1.19,1.26,3,3,0,0,0-.42,1.56,3,3,0,0,0,.58,1.82,4.58,4.58,0,0,0,1.47,1.23,9.27,9.27,0,0,0,1.76.74h0c.57.17,1.49.42,2.78.75h0a41.28,41.28,0,0,1,4.31,1.23,12.41,12.41,0,0,1,3.18,1.57,6.27,6.27,0,0,1,2,2.26,7.31,7.31,0,0,1,.7,3.38h1.14a8.47,8.47,0,0,0-.83-3.9,7.32,7.32,0,0,0-2.31-2.66,13.88,13.88,0,0,0-3.47-1.73,44.18,44.18,0,0,0-4.42-1.26l-.13.55.14-.55c-1.28-.32-2.2-.56-2.73-.73h0a7.79,7.79,0,0,1-1.54-.65,3.41,3.41,0,0,1-1.1-.91,1.84,1.84,0,0,1-.35-1.14,1.88,1.88,0,0,1,.26-1,3,3,0,0,1,.87-.91,5.48,5.48,0,0,1,3.27-.87,4.91,4.91,0,0,1,3.14.77,6.8,6.8,0,0,1,1.72,2.33h0a7.29,7.29,0,0,0,1.22,1.76h0a2.67,2.67,0,0,0,1.9.66,3,3,0,0,0,2.25-1,3.37,3.37,0,0,0,.87-2.24,5.8,5.8,0,0,0-.64-2.56,7.85,7.85,0,0,0-2-2.44,10,10,0,0,0-3.37-1.84,14.64,14.64,0,0,0-4.72-.68,15.69,15.69,0,0,0-5.92,1,8.73,8.73,0,0,0-4,3,7.64,7.64,0,0,0-1.38,4.51,7.34,7.34,0,0,0,1.32,4.46,8.86,8.86,0,0,0,3.5,2.8,26.6,26.6,0,0,0,5.26,1.72h0c1.51.35,2.72.68,3.61,1a5.05,5.05,0,0,1,2,1.21,2.62,2.62,0,0,1,.7,1.91,3,3,0,0,1-1.38,2.52,6.24,6.24,0,0,1-3.82,1.09,6.17,6.17,0,0,1-2.76-.53,4.26,4.26,0,0,1-1.57-1.33,10.77,10.77,0,0,1-1.11-2.16h0a5.29,5.29,0,0,0-1.22-1.94,2.83,2.83,0,0,0-1.93-.73,3.05,3.05,0,0,0-2.27.92,3.09,3.09,0,0,0-.89,2.19,7.46,7.46,0,0,0,1.31,4,9.8,9.8,0,0,0,3.34,3.25h0a14.21,14.21,0,0,0,7.24,1.67,15.13,15.13,0,0,0,6.32-1.22,9.41,9.41,0,0,0,4.14-3.43,9,9,0,0,0,1.42-5Z" transform="translate(-32.35 -106.63)"/><path class="cls-5" d="M154.8,140.47l6.45,19.1,6.47-19.24c.34-1,.59-1.71.76-2.11a2.89,2.89,0,0,1,.84-1.07,2.49,2.49,0,0,1,1.59-.47,2.75,2.75,0,0,1,2.36,1.35,2.42,2.42,0,0,1,.36,1.23,4,4,0,0,1-.12.93,6.74,6.74,0,0,1-.29,1l-.35,1L166,160.76c-.24.71-.49,1.39-.74,2a8.6,8.6,0,0,1-.85,1.69,3.89,3.89,0,0,1-1.29,1.19,3.82,3.82,0,0,1-2,.47,3.91,3.91,0,0,1-2-.46,3.66,3.66,0,0,1-1.3-1.2,8.72,8.72,0,0,1-.86-1.7c-.25-.64-.5-1.31-.74-2l-6.79-18.47q-.16-.49-.36-1a8.73,8.73,0,0,1-.31-1.05,4.63,4.63,0,0,1-.12-.95,2.55,2.55,0,0,1,.79-1.81,2.7,2.7,0,0,1,2-.81,2.32,2.32,0,0,1,2.08.9A12,12,0,0,1,154.8,140.47Z" transform="translate(-32.35 -106.63)"/><path class="cls-5" d="M154.8,140.47l-.54.18,7,20.7,7-20.84h0c.34-1,.59-1.7.74-2.07a2.36,2.36,0,0,1,.68-.85,1.88,1.88,0,0,1,1.23-.34,2.18,2.18,0,0,1,1.87,1.07,1.78,1.78,0,0,1,.28.94,3.35,3.35,0,0,1-.1.79,7.3,7.3,0,0,1-.27.91c-.12.32-.24.65-.35,1l.53.19-.53-.2-6.9,18.63h0c-.25.71-.49,1.38-.74,2a8,8,0,0,1-.79,1.58,3.17,3.17,0,0,1-2.8,1.41,3.46,3.46,0,0,1-1.69-.38,3.3,3.3,0,0,1-1.11-1,8.53,8.53,0,0,1-.8-1.6h0c-.25-.62-.49-1.29-.74-2h0L150,142.1l-.54.19.54-.18-.36-1h0a6.16,6.16,0,0,1-.29-1,3.31,3.31,0,0,1-.11-.83,2,2,0,0,1,.63-1.41,2.07,2.07,0,0,1,1.6-.64,2.66,2.66,0,0,1,1,.17,1.32,1.32,0,0,1,.58.48,11.47,11.47,0,0,1,1.19,2.74h0l.54-.18.54-.18a12.3,12.3,0,0,0-1.33-3,2.43,2.43,0,0,0-1.07-.88,3.68,3.68,0,0,0-1.48-.27,3.21,3.21,0,0,0-2.41,1,3,3,0,0,0-1,2.2,5.08,5.08,0,0,0,.14,1.08,9.32,9.32,0,0,0,.33,1.13h0l.36,1h0L155.7,161l.54-.19-.54.18q.38,1.08.75,2h0a9,9,0,0,0,.93,1.81,4.23,4.23,0,0,0,1.49,1.39,4.54,4.54,0,0,0,2.25.53,4.45,4.45,0,0,0,2.26-.54,4.27,4.27,0,0,0,1.48-1.38,8.92,8.92,0,0,0,.92-1.8c.24-.65.49-1.33.74-2.05l-.54-.18.54.19,6.9-18.62h0c.12-.33.23-.65.35-1s.22-.68.31-1a5,5,0,0,0,.13-1.06,3,3,0,0,0-.44-1.52,3.28,3.28,0,0,0-1.19-1.18,3.23,3.23,0,0,0-1.66-.45,3,3,0,0,0-1.95.6,3.42,3.42,0,0,0-1,1.29c-.18.43-.44,1.13-.78,2.15h0l-5.93,17.64-5.91-17.51-.54.19.54-.18Z" transform="translate(-32.35 -106.63)"/><path class="cls-5" d="M195.67,153.47h-2v9.15a3.82,3.82,0,0,1-.8,2.67,3,3,0,0,1-4.22,0,4,4,0,0,1-.75-2.63V140.7a3.74,3.74,0,0,1,.83-2.7,3.7,3.7,0,0,1,2.7-.84h9.39a28.19,28.19,0,0,1,3.32.17,8.28,8.28,0,0,1,2.49.67,7,7,0,0,1,2.37,1.61,7.06,7.06,0,0,1,1.57,2.44,8.3,8.3,0,0,1,.53,2.95,7.15,7.15,0,0,1-1.79,5.09,10.33,10.33,0,0,1-5.46,2.7,10.55,10.55,0,0,1,2.94,2.41,25.1,25.1,0,0,1,2.5,3.39,24,24,0,0,1,1.7,3.25,6.42,6.42,0,0,1,.62,2,2.06,2.06,0,0,1-.36,1.12,2.59,2.59,0,0,1-1,.87,3.18,3.18,0,0,1-1.44.32,2.75,2.75,0,0,1-1.63-.46,4.3,4.3,0,0,1-1.14-1.15c-.32-.47-.75-1.16-1.29-2.06l-2.32-3.85a21.85,21.85,0,0,0-2.22-3.23,5.5,5.5,0,0,0-2-1.51A6.74,6.74,0,0,0,195.67,153.47Zm3.3-12h-5.32v7.83h5.17a14.48,14.48,0,0,0,3.5-.36,4.15,4.15,0,0,0,2.16-1.22,3.55,3.55,0,0,0,.75-2.39,3.62,3.62,0,0,0-2.27-3.44A12.22,12.22,0,0,0,199,141.5Z" transform="translate(-32.35 -106.63)"/><path class="cls-5" d="M195.67,153.47v-.57h-2.59v9.72a3.3,3.3,0,0,1-.64,2.28,2.13,2.13,0,0,1-1.67.67,2.06,2.06,0,0,1-1.7-.69,3.39,3.39,0,0,1-.62-2.26V140.7a3.1,3.1,0,0,1,.67-2.3,3.16,3.16,0,0,1,2.29-.67h9.39a29.63,29.63,0,0,1,3.26.16,8,8,0,0,1,2.32.63h0a6.66,6.66,0,0,1,2.19,1.49,6.57,6.57,0,0,1,1.44,2.25h0a7.58,7.58,0,0,1,.49,2.75,6.56,6.56,0,0,1-1.64,4.7,9.77,9.77,0,0,1-5.16,2.53l-1.51.33,1.37.73a10.13,10.13,0,0,1,2.77,2.28,23.81,23.81,0,0,1,2.44,3.32,24.27,24.27,0,0,1,1.67,3.17,11,11,0,0,1,.44,1.17,2.26,2.26,0,0,1,.13.6,1.5,1.5,0,0,1-.27.81h0a2,2,0,0,1-.76.67h0a2.51,2.51,0,0,1-1.18.26,2.29,2.29,0,0,1-1.31-.35,4,4,0,0,1-1-1h0c-.31-.45-.73-1.13-1.28-2l-2.31-3.84h0a21,21,0,0,0-2.29-3.31,6,6,0,0,0-2.2-1.67,7.39,7.39,0,0,0-2.76-.45V154a6.43,6.43,0,0,1,2.33.36,5,5,0,0,1,1.78,1.37,19.38,19.38,0,0,1,2.16,3.14h0l2.32,3.85c.55.91,1,1.6,1.31,2.09h0a4.8,4.8,0,0,0,1.28,1.3,3.39,3.39,0,0,0,2,.56,3.58,3.58,0,0,0,1.7-.39h0a3.16,3.16,0,0,0,1.19-1.07h0a2.65,2.65,0,0,0,.45-1.42,3.59,3.59,0,0,0-.18-.94c-.11-.36-.27-.78-.48-1.28a25.92,25.92,0,0,0-1.75-3.32,25.22,25.22,0,0,0-2.56-3.47,10.9,10.9,0,0,0-3.09-2.53l-.27.5.13.55a10.86,10.86,0,0,0,5.74-2.86,7.73,7.73,0,0,0,2-5.48,8.71,8.71,0,0,0-.57-3.15h0a7.65,7.65,0,0,0-1.69-2.64,8,8,0,0,0-2.56-1.74l-.22.53.24-.52a9.21,9.21,0,0,0-2.66-.72,29.87,29.87,0,0,0-3.39-.17h-9.39a4.3,4.3,0,0,0-3.1,1,4.23,4.23,0,0,0-1,3.1v21.92a4.48,4.48,0,0,0,.89,3,3.22,3.22,0,0,0,2.57,1.1,3.29,3.29,0,0,0,2.5-1,4.35,4.35,0,0,0,.95-3V154h1.45Zm3.3-12v-.57h-5.89v9h5.74a14.79,14.79,0,0,0,3.64-.38,4.69,4.69,0,0,0,2.45-1.4,4.13,4.13,0,0,0,.89-2.76,4.25,4.25,0,0,0-.7-2.4h0a4.16,4.16,0,0,0-1.92-1.56h0a5.88,5.88,0,0,0-1.66-.36,23.11,23.11,0,0,0-2.55-.11v1.14a23.26,23.26,0,0,1,2.43.1,5.16,5.16,0,0,1,1.34.28h0a3.05,3.05,0,0,1,1.42,1.14h0a3.14,3.14,0,0,1,.5,1.77,2.91,2.91,0,0,1-.61,2,3.51,3.51,0,0,1-1.87,1,14.19,14.19,0,0,1-3.36.34h-4.6v-6.69H199Z" transform="translate(-32.35 -106.63)"/><path class="cls-5" d="M235.31,141.61h-13v7h12a2.86,2.86,0,0,1,2,.59,2,2,0,0,1,.65,1.57,2.07,2.07,0,0,1-.64,1.58,2.78,2.78,0,0,1-2,.61h-12v8.11h13.45a3,3,0,0,1,2.05.63,2.16,2.16,0,0,1,.69,1.68,2.12,2.12,0,0,1-.69,1.64,3,3,0,0,1-2.05.63H220.07a3.68,3.68,0,0,1-2.71-.83,3.74,3.74,0,0,1-.83-2.7V140.7a4.88,4.88,0,0,1,.37-2,2.32,2.32,0,0,1,1.16-1.15,4.82,4.82,0,0,1,2-.36h15.24a3,3,0,0,1,2.05.62,2,2,0,0,1,.67,1.6,2.08,2.08,0,0,1-.67,1.62A3,3,0,0,1,235.31,141.61Z" transform="translate(-32.35 -106.63)"/><path class="cls-5" d="M235.31,141.61v-.56H221.74v8.13h12.54a2.34,2.34,0,0,1,1.59.44,1.44,1.44,0,0,1,.46,1.15,1.51,1.51,0,0,1-.46,1.17,2.24,2.24,0,0,1-1.59.46H221.74v9.24h14a2.38,2.38,0,0,1,1.66.48,1.6,1.6,0,0,1,.51,1.26,1.55,1.55,0,0,1-.51,1.22,2.37,2.37,0,0,1-1.66.49H220.07a3.18,3.18,0,0,1-2.31-.67,3.24,3.24,0,0,1-.66-2.3V140.7a4.24,4.24,0,0,1,.32-1.79,1.74,1.74,0,0,1,.88-.87,4.36,4.36,0,0,1,1.77-.31h15.24a2.41,2.41,0,0,1,1.67.47,1.5,1.5,0,0,1,.48,1.18,1.53,1.53,0,0,1-.48,1.2,2.46,2.46,0,0,1-1.67.47v1.13a3.51,3.51,0,0,0,2.43-.76,2.68,2.68,0,0,0,.86-2,2.64,2.64,0,0,0-.86-2,3.47,3.47,0,0,0-2.43-.77H220.07a5.51,5.51,0,0,0-2.25.42,2.83,2.83,0,0,0-1.43,1.42,5.26,5.26,0,0,0-.42,2.27v21.42a3.56,3.56,0,0,0,4.1,4.1h15.69a3.5,3.5,0,0,0,2.43-.78,2.68,2.68,0,0,0,.87-2.06,2.75,2.75,0,0,0-.87-2.1,3.5,3.5,0,0,0-2.43-.78H222.88v-7h11.4a3.33,3.33,0,0,0,2.37-.77,2.62,2.62,0,0,0,.82-2,2.59,2.59,0,0,0-.84-2,3.37,3.37,0,0,0-2.35-.74h-11.4v-5.86h12.43Z" transform="translate(-32.35 -106.63)"/><path class="cls-5" d="M261.31,162.43,260,158.85H248.37L247,162.51a13.06,13.06,0,0,1-1.36,2.88,2.17,2.17,0,0,1-1.85.75,2.72,2.72,0,0,1-1.92-.8,2.42,2.42,0,0,1-.84-1.8,4.08,4.08,0,0,1,.2-1.21c.13-.41.34-1,.64-1.73l7.29-18.5c.2-.53.45-1.17.75-1.91a9.45,9.45,0,0,1,.93-1.86,3.85,3.85,0,0,1,1.3-1.2,4.06,4.06,0,0,1,5.31,1.18,8.44,8.44,0,0,1,.83,1.54c.23.56.52,1.29.87,2.21l7.44,18.39a9.25,9.25,0,0,1,.87,3.05,2.51,2.51,0,0,1-.82,1.81,2.69,2.69,0,0,1-2,.83,2.6,2.6,0,0,1-1.17-.24,2.39,2.39,0,0,1-.82-.66A6.48,6.48,0,0,1,262,164C261.71,163.38,261.49,162.87,261.31,162.43Zm-11.42-7.91h8.51l-4.3-11.76Z" transform="translate(-32.35 -106.63)"/><path class="cls-5" d="M261.31,162.43l.53-.2-1.49-3.95H248l-1.49,4a12.22,12.22,0,0,1-1.29,2.74,1.08,1.08,0,0,1-.5.38,2.37,2.37,0,0,1-.89.14,2.09,2.09,0,0,1-1.53-.64,1.86,1.86,0,0,1-.66-1.39,3.64,3.64,0,0,1,.17-1h0c.12-.39.33-1,.63-1.69l7.28-18.5h0c.2-.53.45-1.17.74-1.92a9,9,0,0,1,.88-1.74,3.12,3.12,0,0,1,1.11-1,4.08,4.08,0,0,1,3.44,0,3.4,3.4,0,0,1,1.12,1,9.06,9.06,0,0,1,.78,1.44c.22.54.51,1.28.85,2.19h0l7.44,18.39h0a9.12,9.12,0,0,1,.84,2.84,2,2,0,0,1-.66,1.41,2.31,2.31,0,0,1-2.51.48,1.81,1.81,0,0,1-.62-.51h0a5.44,5.44,0,0,1-.63-1.15h0c-.26-.58-.47-1.08-.65-1.52l-.53.22.53-.2-.53.2-.52.21c.18.45.4,1,.65,1.54h0a7.08,7.08,0,0,0,.79,1.41h0a3,3,0,0,0,1,.82,3.14,3.14,0,0,0,1.42.3,3.3,3.3,0,0,0,2.39-1,3.1,3.1,0,0,0,1-2.22,9.26,9.26,0,0,0-.92-3.27l-.52.22.53-.22-7.45-18.38-.52.21.53-.2q-.53-1.38-.87-2.22a8.22,8.22,0,0,0-.9-1.65,4.3,4.3,0,0,0-1.49-1.35,4.51,4.51,0,0,0-2.29-.53,4.59,4.59,0,0,0-2.27.53,4.27,4.27,0,0,0-1.49,1.37,10,10,0,0,0-1,2c-.3.74-.55,1.38-.75,1.91h0l-7.28,18.49h0c-.3.75-.52,1.33-.66,1.77h0a4.73,4.73,0,0,0-.22,1.38,3,3,0,0,0,1,2.21,3.3,3.3,0,0,0,2.31,1,3.49,3.49,0,0,0,1.32-.23,2.27,2.27,0,0,0,1-.75,12.66,12.66,0,0,0,1.44-3l1.22-3.28h10.8l1.22,3.22h0Zm-11.42-7.91v.57h9.32l-5.11-14-5,14h.81v-.57l.53.19,3.69-10.28,3.48,9.52h-7.7v.57l.53.19Z" transform="translate(-32.35 -106.63)"/><path class="cls-5" d="M275.28,137.16h7.52a19.93,19.93,0,0,1,5,.55,9.19,9.19,0,0,1,3.81,2q4.46,3.81,4.45,11.58a23.44,23.44,0,0,1-.44,4.69,13.88,13.88,0,0,1-1.38,3.81,12.12,12.12,0,0,1-2.39,3,10.47,10.47,0,0,1-2.51,1.65,11.58,11.58,0,0,1-2.93.87,22.05,22.05,0,0,1-3.52.25h-7.53a4.68,4.68,0,0,1-2.37-.47,2.27,2.27,0,0,1-1-1.34,8.68,8.68,0,0,1-.24-2.25V140.7a3,3,0,0,1,3.54-3.54Zm2.23,4.57v19.34h4.38c.95,0,1.71,0,2.25-.08a6.85,6.85,0,0,0,1.69-.39,4.83,4.83,0,0,0,1.52-.87q2.89-2.46,2.89-8.44c0-2.81-.42-4.92-1.27-6.31a5.73,5.73,0,0,0-3.14-2.68,15.57,15.57,0,0,0-4.51-.57Z" transform="translate(-32.35 -106.63)"/><path class="cls-5" d="M275.28,137.16v.57h7.52a19.59,19.59,0,0,1,4.89.53,8.63,8.63,0,0,1,3.58,1.92h0c2.81,2.41,4.25,6.07,4.25,11.15a22.12,22.12,0,0,1-.43,4.57,13.44,13.44,0,0,1-1.32,3.66,11.55,11.55,0,0,1-2.28,2.9l.39.42-.38-.43a9.53,9.53,0,0,1-2.37,1.56,10.82,10.82,0,0,1-2.78.83,21.87,21.87,0,0,1-3.43.25h-7.53a4.12,4.12,0,0,1-2.07-.4,1.62,1.62,0,0,1-.79-1,8.07,8.07,0,0,1-.22-2.09V140.7a2.49,2.49,0,0,1,3-3v-1.14a4.32,4.32,0,0,0-3.11,1,4.23,4.23,0,0,0-1,3.1v20.89a8.67,8.67,0,0,0,.27,2.4,2.79,2.79,0,0,0,1.29,1.68,5.21,5.21,0,0,0,2.66.55h7.53a22.09,22.09,0,0,0,3.61-.26,11.51,11.51,0,0,0,3.07-.92,10.21,10.21,0,0,0,2.65-1.74h0a12.16,12.16,0,0,0,2.5-3.18,14.26,14.26,0,0,0,1.44-4,23.08,23.08,0,0,0,.46-4.8c0-5.28-1.53-9.34-4.65-12l-.37.43.38-.43a9.79,9.79,0,0,0-4-2.16,20.67,20.67,0,0,0-5.17-.57h-7.52Zm2.23,4.57h-.57v19.91h4.95c1,0,1.73,0,2.3-.08a7.78,7.78,0,0,0,1.83-.42,5,5,0,0,0,1.7-1l-.37-.42.36.43a7.94,7.94,0,0,0,2.35-3.58,16.38,16.38,0,0,0,.75-5.29,13,13,0,0,0-1.35-6.61,6.27,6.27,0,0,0-3.46-2.92,16.22,16.22,0,0,0-4.68-.6h-4.38v.57h.57v.57h3.81a14.94,14.94,0,0,1,4.34.55,5.08,5.08,0,0,1,2.82,2.42,11.78,11.78,0,0,1,1.19,6,15.19,15.19,0,0,1-.69,4.92,6.78,6.78,0,0,1-2,3.08h0a4,4,0,0,1-1.33.77,6.24,6.24,0,0,1-1.55.35c-.52.05-1.26.08-2.2.08h-3.81V141.73h-.57v0Z" transform="translate(-32.35 -106.63)"/><path class="cls-5" d="M319.93,141.61h-13v7h12a2.86,2.86,0,0,1,2,.59,2,2,0,0,1,.65,1.57,2.07,2.07,0,0,1-.64,1.58,2.78,2.78,0,0,1-2,.61h-12v8.11h13.45a3,3,0,0,1,2.05.63,2.16,2.16,0,0,1,.69,1.68,2.12,2.12,0,0,1-.69,1.64,3,3,0,0,1-2.05.63H304.69a3.7,3.7,0,0,1-2.71-.83,3.74,3.74,0,0,1-.82-2.7V140.7a4.89,4.89,0,0,1,.36-2,2.32,2.32,0,0,1,1.16-1.15,4.89,4.89,0,0,1,2-.36h15.24a3,3,0,0,1,2.05.62,2,2,0,0,1,.67,1.6A2.08,2.08,0,0,1,322,141,3,3,0,0,1,319.93,141.61Z" transform="translate(-32.35 -106.63)"/><path class="cls-5" d="M319.93,141.61v-.56H306.36v8.13H318.9a2.32,2.32,0,0,1,1.59.44,1.44,1.44,0,0,1,.46,1.15,1.51,1.51,0,0,1-.46,1.17,2.24,2.24,0,0,1-1.59.46H306.36v9.24h14a2.38,2.38,0,0,1,1.66.48,1.6,1.6,0,0,1,.51,1.26,1.55,1.55,0,0,1-.51,1.22,2.37,2.37,0,0,1-1.66.49H304.69a3.14,3.14,0,0,1-2.3-.67,3.19,3.19,0,0,1-.67-2.3V140.7a4.24,4.24,0,0,1,.32-1.79,1.74,1.74,0,0,1,.88-.87,4.36,4.36,0,0,1,1.77-.31h15.24a2.41,2.41,0,0,1,1.67.47,1.72,1.72,0,0,1,0,2.38,2.46,2.46,0,0,1-1.67.47v1.13a3.51,3.51,0,0,0,2.43-.76,2.65,2.65,0,0,0,.86-2,2.6,2.6,0,0,0-.86-2,3.47,3.47,0,0,0-2.43-.77H304.69a5.43,5.43,0,0,0-2.24.42,2.81,2.81,0,0,0-1.44,1.42,5.41,5.41,0,0,0-.42,2.27v21.42a3.56,3.56,0,0,0,4.1,4.1h15.69a3.5,3.5,0,0,0,2.43-.78,2.72,2.72,0,0,0,.88-2.06,2.79,2.79,0,0,0-.88-2.1,3.49,3.49,0,0,0-2.43-.78H307.5v-7h11.4a3.33,3.33,0,0,0,2.37-.77,2.62,2.62,0,0,0,.82-2,2.59,2.59,0,0,0-.84-2,3.37,3.37,0,0,0-2.35-.74H307.5v-5.86h12.43Z" transform="translate(-32.35 -106.63)"/><path class="cls-5" d="M335.46,153.47h-2v9.15a3.82,3.82,0,0,1-.8,2.67,3,3,0,0,1-4.22,0,4,4,0,0,1-.75-2.63V140.7a3,3,0,0,1,3.53-3.54h9.39a28.44,28.44,0,0,1,3.32.17,8.28,8.28,0,0,1,2.49.67,7.17,7.17,0,0,1,2.37,1.61,7.06,7.06,0,0,1,1.57,2.44,8.3,8.3,0,0,1,.53,2.95,7.11,7.11,0,0,1-1.8,5.09,10.26,10.26,0,0,1-5.45,2.7,10.55,10.55,0,0,1,2.94,2.41,24.21,24.21,0,0,1,2.49,3.39,23.11,23.11,0,0,1,1.71,3.25,6.42,6.42,0,0,1,.62,2A2.06,2.06,0,0,1,351,165a2.59,2.59,0,0,1-1,.87,3.18,3.18,0,0,1-1.44.32,2.8,2.8,0,0,1-1.64-.46,4.27,4.27,0,0,1-1.13-1.15c-.32-.47-.75-1.16-1.29-2.06l-2.32-3.85a21.85,21.85,0,0,0-2.22-3.23,5.45,5.45,0,0,0-2-1.51A6.65,6.65,0,0,0,335.46,153.47Zm3.3-12h-5.32v7.83h5.17a14.54,14.54,0,0,0,3.5-.36,4.15,4.15,0,0,0,2.16-1.22,3.55,3.55,0,0,0,.75-2.39,3.62,3.62,0,0,0-2.27-3.44A12.27,12.27,0,0,0,338.76,141.5Z" transform="translate(-32.35 -106.63)"/><path class="cls-5" d="M335.46,153.47v-.57h-2.59v9.72a3.24,3.24,0,0,1-.65,2.28,2.1,2.1,0,0,1-1.66.67,2.06,2.06,0,0,1-1.7-.69,3.39,3.39,0,0,1-.63-2.26V140.7a2.49,2.49,0,0,1,3-3h9.39a29.63,29.63,0,0,1,3.26.16,7.81,7.81,0,0,1,2.31.63h0a6.66,6.66,0,0,1,2.19,1.49,6.57,6.57,0,0,1,1.44,2.25h0a7.62,7.62,0,0,1,.49,2.75,6.56,6.56,0,0,1-1.64,4.7,9.77,9.77,0,0,1-5.16,2.53l-1.51.33,1.37.73a10.13,10.13,0,0,1,2.77,2.28,24.64,24.64,0,0,1,2.44,3.32,24.27,24.27,0,0,1,1.67,3.17,11.89,11.89,0,0,1,.44,1.16,3,3,0,0,1,.13.61,1.5,1.5,0,0,1-.27.81h0a2,2,0,0,1-.77.67,2.44,2.44,0,0,1-1.17.26,2.29,2.29,0,0,1-1.31-.35,4,4,0,0,1-1-1c-.31-.45-.74-1.13-1.28-2l-2.31-3.84h0a21,21,0,0,0-2.29-3.31,6,6,0,0,0-2.2-1.67,7.39,7.39,0,0,0-2.76-.45V154a6.43,6.43,0,0,1,2.33.36,5,5,0,0,1,1.78,1.37,20,20,0,0,1,2.16,3.14h0l2.32,3.85c.54.91,1,1.6,1.31,2.09a4.8,4.8,0,0,0,1.28,1.3,3.39,3.39,0,0,0,2,.56,3.69,3.69,0,0,0,1.7-.38,3.16,3.16,0,0,0,1.19-1.07h0a2.49,2.49,0,0,0,.45-1.42,3.18,3.18,0,0,0-.17-.94c-.11-.36-.27-.78-.48-1.28a27.26,27.26,0,0,0-1.75-3.32,25.22,25.22,0,0,0-2.56-3.47,11,11,0,0,0-3.09-2.53l-.27.5.12.55a10.86,10.86,0,0,0,5.75-2.86,7.73,7.73,0,0,0,1.95-5.48,8.71,8.71,0,0,0-.57-3.15h0a7.8,7.8,0,0,0-1.69-2.64,8,8,0,0,0-2.56-1.74l-.22.53.24-.52a9.21,9.21,0,0,0-2.66-.72,29.87,29.87,0,0,0-3.39-.17H331.2a4.3,4.3,0,0,0-3.1,1,4.23,4.23,0,0,0-1,3.1v21.92a4.48,4.48,0,0,0,.89,3,3.19,3.19,0,0,0,2.57,1.1,3.29,3.29,0,0,0,2.5-1,4.35,4.35,0,0,0,.95-3V154h1.45Zm3.3-12v-.57h-5.89v9h5.74a14.79,14.79,0,0,0,3.64-.38,4.69,4.69,0,0,0,2.45-1.4,4.13,4.13,0,0,0,.89-2.76,4.25,4.25,0,0,0-.7-2.4A4.16,4.16,0,0,0,343,141.4h0a5.88,5.88,0,0,0-1.66-.36,23.11,23.11,0,0,0-2.55-.11v1.14a22.92,22.92,0,0,1,2.42.1,5.16,5.16,0,0,1,1.35.28h0a3.1,3.1,0,0,1,1.42,1.14,3.14,3.14,0,0,1,.5,1.77,2.91,2.91,0,0,1-.61,2,3.51,3.51,0,0,1-1.87,1,14.25,14.25,0,0,1-3.36.34H334v-6.69h4.75Z" transform="translate(-32.35 -106.63)"/><path class="cls-6" d="M189.63,174.11H192a6.7,6.7,0,0,1,1.6.17,3,3,0,0,1,1.22.65,4.61,4.61,0,0,1,1.41,3.69,7.62,7.62,0,0,1-.14,1.49,4.45,4.45,0,0,1-.44,1.21,3.75,3.75,0,0,1-.76,1,3.27,3.27,0,0,1-.8.53,3.57,3.57,0,0,1-.93.27,6.41,6.41,0,0,1-1.12.08h-2.39a1.52,1.52,0,0,1-.76-.15.69.69,0,0,1-.33-.42,2.86,2.86,0,0,1-.08-.72v-6.65a1.18,1.18,0,0,1,.27-.86A1.21,1.21,0,0,1,189.63,174.11Zm.71,1.45v6.16h1.39a6.7,6.7,0,0,0,.72,0,2.94,2.94,0,0,0,.54-.12,1.64,1.64,0,0,0,.48-.28,3.39,3.39,0,0,0,.92-2.69,4.09,4.09,0,0,0-.4-2,1.92,1.92,0,0,0-1-.85,5.05,5.05,0,0,0-1.44-.18Z" transform="translate(-32.35 -106.63)"/><path class="cls-6" d="M189.63,174.11v.18H192a6.35,6.35,0,0,1,1.56.17,2.7,2.7,0,0,1,1.14.61h0a4.4,4.4,0,0,1,1.35,3.55,7.21,7.21,0,0,1-.14,1.45,4.27,4.27,0,0,1-.42,1.17,3.76,3.76,0,0,1-.72.92l.12.13-.12-.13a3,3,0,0,1-.75.49,3.68,3.68,0,0,1-.89.27,7.13,7.13,0,0,1-1.09.07h-2.39a1.47,1.47,0,0,1-.67-.12.53.53,0,0,1-.25-.32,2.86,2.86,0,0,1-.07-.67v-6.65a1,1,0,0,1,.22-.73,1,1,0,0,1,.73-.21v-.36a1.35,1.35,0,0,0-1,.32,1.31,1.31,0,0,0-.32,1v6.65a3.31,3.31,0,0,0,.08.77.92.92,0,0,0,.42.53,1.7,1.7,0,0,0,.85.18h2.39a6.71,6.71,0,0,0,1.15-.09,3.58,3.58,0,0,0,1-.29,3.47,3.47,0,0,0,.84-.55h0a3.72,3.72,0,0,0,.8-1,4.56,4.56,0,0,0,.46-1.27,7.94,7.94,0,0,0,.14-1.52,4.77,4.77,0,0,0-1.48-3.83h0a3.22,3.22,0,0,0-1.29-.68,6.72,6.72,0,0,0-1.65-.18h-2.39Zm.71,1.45h-.18v6.34h1.57a7.26,7.26,0,0,0,.74,0,2.66,2.66,0,0,0,.58-.13,1.84,1.84,0,0,0,.54-.32l-.12-.13.12.14a3.55,3.55,0,0,0,1-2.83,4.06,4.06,0,0,0-.43-2.1,2,2,0,0,0-1.1-.93,5,5,0,0,0-1.49-.19h-1.39v.18h.18v.18h1.21a4.53,4.53,0,0,1,1.38.18,1.57,1.57,0,0,1,.9.77,3.83,3.83,0,0,1,.38,1.91,3.17,3.17,0,0,1-.86,2.55h0a1.27,1.27,0,0,1-.42.25,2,2,0,0,1-.5.11,6.67,6.67,0,0,1-.7,0h-1.21v-6h-.18v0Z" transform="translate(-32.35 -106.63)"/><path class="cls-6" d="M199.32,182.21v-7.14a1.22,1.22,0,0,1,.26-.84.92.92,0,0,1,1.32,0,1.14,1.14,0,0,1,.26.84v7.14a1.16,1.16,0,0,1-.26.84.85.85,0,0,1-.67.28.83.83,0,0,1-.65-.28A1.22,1.22,0,0,1,199.32,182.21Z" transform="translate(-32.35 -106.63)"/><path class="cls-6" d="M199.32,182.21h.18v-7.14a1,1,0,0,1,.21-.72.73.73,0,0,1,.52-.22.74.74,0,0,1,.54.22,1,1,0,0,1,.21.72v7.14a1,1,0,0,1-.21.72.67.67,0,0,1-.54.22.66.66,0,0,1-.52-.22,1,1,0,0,1-.21-.72h-.36a1.34,1.34,0,0,0,.31,1,1,1,0,0,0,.78.34,1.06,1.06,0,0,0,.81-.34,1.38,1.38,0,0,0,.3-1v-7.14a1.43,1.43,0,0,0-.3-1,1.09,1.09,0,0,0-.81-.33,1,1,0,0,0-.79.34,1.38,1.38,0,0,0-.3,1v7.14Z" transform="translate(-32.35 -106.63)"/><path class="cls-6" d="M211.49,180.45a2.69,2.69,0,0,1-.42,1.48,2.77,2.77,0,0,1-1.24,1,4.6,4.6,0,0,1-1.94.37,4.33,4.33,0,0,1-2.21-.51,3,3,0,0,1-1-1,2.28,2.28,0,0,1-.38-1.19.81.81,0,0,1,.23-.57.78.78,0,0,1,.59-.24.71.71,0,0,1,.49.19,1.45,1.45,0,0,1,.35.55,3.43,3.43,0,0,0,.37.72,1.36,1.36,0,0,0,.57.48,2,2,0,0,0,1,.19,2.18,2.18,0,0,0,1.33-.38,1.14,1.14,0,0,0,.51-.95,1,1,0,0,0-.27-.73,1.81,1.81,0,0,0-.71-.43,12,12,0,0,0-1.17-.32,8.79,8.79,0,0,1-1.64-.53,2.63,2.63,0,0,1-1-.84,2.14,2.14,0,0,1-.39-1.31,2.28,2.28,0,0,1,.41-1.33,2.51,2.51,0,0,1,1.18-.89,4.81,4.81,0,0,1,1.82-.32,4.38,4.38,0,0,1,1.44.21,3.09,3.09,0,0,1,1,.55,2.36,2.36,0,0,1,.58.72,1.6,1.6,0,0,1,.19.74.89.89,0,0,1-.23.59.77.77,0,0,1-.58.26.65.65,0,0,1-.48-.16,2,2,0,0,1-.36-.51,2.2,2.2,0,0,0-.59-.8,1.68,1.68,0,0,0-1.11-.29,1.91,1.91,0,0,0-1.15.31.92.92,0,0,0-.44.75.75.75,0,0,0,.15.47,1.27,1.27,0,0,0,.41.34,2.2,2.2,0,0,0,.53.22q.25.09.87.24a12.33,12.33,0,0,1,1.39.4,4.19,4.19,0,0,1,1.06.52,2.21,2.21,0,0,1,.68.78A2.58,2.58,0,0,1,211.49,180.45Z" transform="translate(-32.35 -106.63)"/><path class="cls-6" d="M211.49,180.45h-.18a2.48,2.48,0,0,1-.39,1.38,2.59,2.59,0,0,1-1.16,1,4.42,4.42,0,0,1-1.87.36,4.26,4.26,0,0,1-2.12-.48h0a2.76,2.76,0,0,1-.94-.92,2,2,0,0,1-.36-1.09.63.63,0,0,1,.64-.63.56.56,0,0,1,.37.14,1.29,1.29,0,0,1,.3.49h0a4.47,4.47,0,0,0,.39.76,1.64,1.64,0,0,0,.63.53,2.19,2.19,0,0,0,1,.21,2.36,2.36,0,0,0,1.44-.41,1.31,1.31,0,0,0,.58-1.1,1.18,1.18,0,0,0-.32-.86,1.89,1.89,0,0,0-.79-.47c-.3-.1-.69-.21-1.18-.32h0a8.08,8.08,0,0,1-1.6-.53,2.46,2.46,0,0,1-1-.77,2,2,0,0,1-.35-1.21,2.09,2.09,0,0,1,.38-1.23,2.44,2.44,0,0,1,1.1-.83,4.81,4.81,0,0,1,1.75-.3,4.39,4.39,0,0,1,1.39.2,3,3,0,0,1,1,.52,2.12,2.12,0,0,1,.54.66,1.54,1.54,0,0,1,.17.66.69.69,0,0,1-.19.47.55.55,0,0,1-.44.2.48.48,0,0,1-.36-.11,2.41,2.41,0,0,1-.32-.47l-.16.09.17-.08a2.65,2.65,0,0,0-.64-.86,1.88,1.88,0,0,0-1.23-.33,2.17,2.17,0,0,0-1.26.34,1.12,1.12,0,0,0-.51.9.9.9,0,0,0,.19.58h0a1.26,1.26,0,0,0,.46.39,3.37,3.37,0,0,0,.56.24l.89.24h0a9.85,9.85,0,0,1,1.37.39,3.81,3.81,0,0,1,1,.5,2,2,0,0,1,.63.72,2.39,2.39,0,0,1,.22,1.07h.37a2.67,2.67,0,0,0-.27-1.24,2.32,2.32,0,0,0-.74-.85,4.52,4.52,0,0,0-1.1-.55c-.42-.14-.89-.28-1.41-.4l0,.18,0-.18-.87-.23a2.33,2.33,0,0,1-.49-.21,1.07,1.07,0,0,1-.36-.29h0a.54.54,0,0,1-.12-.36.76.76,0,0,1,.36-.6,1.79,1.79,0,0,1,1.05-.28,1.54,1.54,0,0,1,1,.24,2.25,2.25,0,0,1,.55.75h0a2.55,2.55,0,0,0,.39.56.86.86,0,0,0,.61.21.93.93,0,0,0,.71-.32,1.06,1.06,0,0,0,.28-.71,1.9,1.9,0,0,0-.2-.82,2.56,2.56,0,0,0-.64-.78,3.22,3.22,0,0,0-1.07-.58,4.56,4.56,0,0,0-1.5-.22,5,5,0,0,0-1.89.33,2.8,2.8,0,0,0-1.26,1,2.45,2.45,0,0,0-.44,1.43,2.38,2.38,0,0,0,.42,1.42,2.76,2.76,0,0,0,1.12.89,9.07,9.07,0,0,0,1.67.55h0a11,11,0,0,1,1.15.31,1.51,1.51,0,0,1,.64.39.83.83,0,0,1,.22.6,1,1,0,0,1-.44.81,2,2,0,0,1-1.22.34,1.89,1.89,0,0,1-.87-.17,1.24,1.24,0,0,1-.5-.42,4.34,4.34,0,0,1-.36-.69h0a1.59,1.59,0,0,0-.38-.61.89.89,0,0,0-.62-.24,1,1,0,0,0-1,1,2.42,2.42,0,0,0,.41,1.29,3.2,3.2,0,0,0,1.07,1h0a4.52,4.52,0,0,0,2.3.53,4.81,4.81,0,0,0,2-.39,2.93,2.93,0,0,0,1.32-1.09,2.89,2.89,0,0,0,.46-1.58Z" transform="translate(-32.35 -106.63)"/><path class="cls-6" d="M218,179.64h-1.68v2.57a1.18,1.18,0,0,1-.26.83.88.88,0,0,1-.66.29.85.85,0,0,1-.67-.28,1.21,1.21,0,0,1-.25-.83v-7a1.11,1.11,0,0,1,.28-.86,1.22,1.22,0,0,1,.88-.26H218a6.09,6.09,0,0,1,1.61.16,2.34,2.34,0,0,1,1,.51,2.29,2.29,0,0,1,.61.88,3.13,3.13,0,0,1,.21,1.17,2.59,2.59,0,0,1-.85,2.1A3.92,3.92,0,0,1,218,179.64Zm-.45-4.15h-1.23v2.77h1.23a3.7,3.7,0,0,0,1.09-.14,1.27,1.27,0,0,0,.66-.44,1.3,1.3,0,0,0,.23-.81,1.36,1.36,0,0,0-.35-1A2.35,2.35,0,0,0,217.51,175.49Z" transform="translate(-32.35 -106.63)"/><path class="cls-6" d="M218,179.64v-.18H216.1v2.75a1,1,0,0,1-.22.71.64.64,0,0,1-.52.23.65.65,0,0,1-.53-.22,1,1,0,0,1-.21-.71v-7a1,1,0,0,1,.22-.73,1.09,1.09,0,0,1,.76-.21H218a6.07,6.07,0,0,1,1.56.15h0a2.25,2.25,0,0,1,.89.48,2.13,2.13,0,0,1,.57.81,2.92,2.92,0,0,1,.19,1.1,2.37,2.37,0,0,1-.79,2,3.68,3.68,0,0,1-2.42.67v.36a4.09,4.09,0,0,0,2.66-.75,2.8,2.8,0,0,0,.92-2.24,3.3,3.3,0,0,0-.23-1.24,2.43,2.43,0,0,0-.66-.94,2.59,2.59,0,0,0-1-.56h0a6.62,6.62,0,0,0-1.66-.16H215.6a1.49,1.49,0,0,0-1,.3,1.36,1.36,0,0,0-.33,1v7a1.37,1.37,0,0,0,.3.95,1,1,0,0,0,.8.34,1,1,0,0,0,.79-.34,1.37,1.37,0,0,0,.31-1v-2.39H218Zm-.45-4.15v-.18H216.1v3.13h1.41a3.75,3.75,0,0,0,1.14-.15,1.42,1.42,0,0,0,.76-.51,1.72,1.72,0,0,0-.14-2h0a2.5,2.5,0,0,0-1.76-.45v.36a2.14,2.14,0,0,1,1.5.35l.13-.13L219,176a1.2,1.2,0,0,1,.3.86,1.19,1.19,0,0,1-.19.7,1.09,1.09,0,0,1-.57.38,3.72,3.72,0,0,1-1,.13h-1v-2.41h1Z" transform="translate(-32.35 -106.63)"/><path class="cls-6" d="M226.08,175.07v6.6h3.72a1,1,0,0,1,.68.21.72.72,0,0,1,.24.55.71.71,0,0,1-.23.54,1,1,0,0,1-.69.2h-4.43a1.18,1.18,0,0,1-.87-.26,1.23,1.23,0,0,1-.26-.86v-7a1.22,1.22,0,0,1,.25-.84.87.87,0,0,1,.66-.28.86.86,0,0,1,.67.28A1.19,1.19,0,0,1,226.08,175.07Z" transform="translate(-32.35 -106.63)"/><path class="cls-6" d="M226.08,175.07h-.18v6.78h3.9a.76.76,0,0,1,.56.17.56.56,0,0,1,0,.81.84.84,0,0,1-.57.16h-4.43a1,1,0,0,1-.74-.21,1,1,0,0,1-.21-.73v-7a1.09,1.09,0,0,1,.2-.72.76.76,0,0,1,1.07,0,1,1,0,0,1,.21.72h.36a1.38,1.38,0,0,0-.31-1,1.06,1.06,0,0,0-.8-.33,1,1,0,0,0-.79.34,1.38,1.38,0,0,0-.3,1v7a1.13,1.13,0,0,0,1.31,1.31h4.43a1.2,1.2,0,0,0,.81-.26.85.85,0,0,0,.29-.67.87.87,0,0,0-.3-.68,1.13,1.13,0,0,0-.8-.27h-3.54v-6.41Z" transform="translate(-32.35 -106.63)"/><path class="cls-6" d="M239.12,182.15l-.44-1.14H235l-.43,1.16a3.94,3.94,0,0,1-.44.92.68.68,0,0,1-.59.24.9.9,0,0,1-.61-.25.78.78,0,0,1-.26-.58,1.31,1.31,0,0,1,.06-.38c0-.13.11-.32.2-.55l2.32-5.89c.07-.17.15-.37.24-.61a2.7,2.7,0,0,1,.3-.59,1.15,1.15,0,0,1,.41-.38,1.22,1.22,0,0,1,.63-.15,1.3,1.3,0,0,1,.65.15,1.33,1.33,0,0,1,.41.37,2.91,2.91,0,0,1,.27.49c.07.18.16.41.27.71l2.37,5.85a2.82,2.82,0,0,1,.28,1,.83.83,0,0,1-.26.58.9.9,0,0,1-.64.26.84.84,0,0,1-.37-.08.75.75,0,0,1-.26-.21,2.29,2.29,0,0,1-.23-.41C239.24,182.45,239.17,182.29,239.12,182.15Zm-3.64-2.52h2.71l-1.37-3.74Z" transform="translate(-32.35 -106.63)"/><path class="cls-6" d="M239.12,182.15l.17-.07-.48-1.25h-3.94l-.47,1.28a3.74,3.74,0,0,1-.41.87.53.53,0,0,1-.45.17.64.64,0,0,1-.48-.21.57.57,0,0,1-.21-.44,1,1,0,0,1,.05-.33h0c0-.12.11-.3.2-.54h0l2.32-5.88h0c.07-.16.15-.37.24-.6a2.64,2.64,0,0,1,.28-.56,1,1,0,0,1,.35-.32,1.08,1.08,0,0,1,.54-.13,1.1,1.1,0,0,1,.56.13,1,1,0,0,1,.35.32,2.46,2.46,0,0,1,.25.45l.27.7h0l2.37,5.86h0a2.73,2.73,0,0,1,.27.9.61.61,0,0,1-.21.45.69.69,0,0,1-.51.21.6.6,0,0,1-.29-.06h0l-.2-.16a2.19,2.19,0,0,1-.2-.37h0l-.21-.48-.16.07.17-.07-.17.07-.17.07.21.49h0a1.76,1.76,0,0,0,.25.44.82.82,0,0,0,.32.26h0a1,1,0,0,0,.45.1,1,1,0,0,0,.76-.32,1,1,0,0,0,.32-.7,2.89,2.89,0,0,0-.29-1l-.17.07.17-.07-2.37-5.85-.17.07.17-.07c-.11-.29-.2-.53-.28-.7a2.43,2.43,0,0,0-.28-.53,1.39,1.39,0,0,0-.47-.43,1.47,1.47,0,0,0-.74-.17,1.34,1.34,0,0,0-1.19.61,3.25,3.25,0,0,0-.32.62c-.09.24-.17.44-.24.61h0l-2.32,5.89h0c-.09.24-.16.42-.2.56h0a1.16,1.16,0,0,0-.07.44.92.92,0,0,0,.32.71,1.06,1.06,0,0,0,.73.3.87.87,0,0,0,.74-.31,4.54,4.54,0,0,0,.46-1l.38-1.05h3.44l.39,1h0Zm-3.64-2.52v.18h3l-1.63-4.45-1.6,4.45h.26v-.18l.17.06,1.17-3.27,1.11,3h-2.45v.18l.17.06Z" transform="translate(-32.35 -106.63)"/><path class="cls-6" d="M245.83,182.21v-2.88l-2.21-3.43a6.37,6.37,0,0,1-.41-.72,1,1,0,0,1-.13-.45.75.75,0,0,1,.25-.55.85.85,0,0,1,.6-.23.71.71,0,0,1,.57.22,5.79,5.79,0,0,1,.59.85l1.69,2.75L248.5,175l.26-.43a1.86,1.86,0,0,1,.23-.32.9.9,0,0,1,.28-.24.86.86,0,0,1,.38-.08.78.78,0,0,1,.57.23.69.69,0,0,1,.24.52,1.07,1.07,0,0,1-.12.48,6,6,0,0,1-.4.67l-2.27,3.48v2.88a1.21,1.21,0,0,1-.26.84.87.87,0,0,1-.66.28.85.85,0,0,1-.67-.28A1.24,1.24,0,0,1,245.83,182.21Z" transform="translate(-32.35 -106.63)"/><path class="cls-6" d="M245.83,182.21H246v-2.93l-2.24-3.48-.15.1.15-.09a7,7,0,0,1-.4-.71,1.09,1.09,0,0,1-.11-.37.59.59,0,0,1,.19-.42.71.71,0,0,1,.48-.18.58.58,0,0,1,.44.16,5.77,5.77,0,0,1,.56.82l1.85,3,1.87-3h0l.26-.43.22-.3h0l.22-.19a.75.75,0,0,1,.3-.06.63.63,0,0,1,.45.18.57.57,0,0,1,.18.39,1,1,0,0,1-.1.4c-.08.15-.21.37-.39.65h0l-2.3,3.53v2.93a1,1,0,0,1-.21.72.69.69,0,0,1-.53.22.64.64,0,0,1-.53-.22,1,1,0,0,1-.21-.72h-.36a1.43,1.43,0,0,0,.3,1,1,1,0,0,0,.8.33,1,1,0,0,0,.79-.34,1.34,1.34,0,0,0,.31-1v-2.82l2.24-3.44-.15-.1.15.1a5.49,5.49,0,0,0,.41-.69,1.25,1.25,0,0,0,.14-.56.89.89,0,0,0-.29-.65,1,1,0,0,0-.7-.28,1,1,0,0,0-.46.1,1.13,1.13,0,0,0-.34.28h0a3.12,3.12,0,0,0-.25.35l-.26.42h0l-1.56,2.51-1.54-2.51a6.56,6.56,0,0,0-.6-.88,1,1,0,0,0-.71-.27,1,1,0,0,0-.72.28.91.91,0,0,0-.31.68,1.19,1.19,0,0,0,.14.52c.09.19.23.43.42.75h0l2.19,3.39v2.82Z" transform="translate(-32.35 -106.63)"/><path class="cls-6" d="M265.4,180.31a2.32,2.32,0,0,1-.22.94,3.4,3.4,0,0,1-.67,1,3.49,3.49,0,0,1-1.17.79,4.19,4.19,0,0,1-1.65.3,5.85,5.85,0,0,1-1.31-.14,3.56,3.56,0,0,1-1.06-.42,3.5,3.5,0,0,1-.89-.76,4.41,4.41,0,0,1-.61-.95,5.36,5.36,0,0,1-.38-1.13,6.53,6.53,0,0,1-.13-1.28,5.71,5.71,0,0,1,.32-2,4.44,4.44,0,0,1,.91-1.48,4.16,4.16,0,0,1,1.4-.94,4.59,4.59,0,0,1,1.7-.32,4.28,4.28,0,0,1,2,.44,3.72,3.72,0,0,1,1.32,1.09,2.17,2.17,0,0,1,.45,1.22.81.81,0,0,1-.22.56.71.71,0,0,1-.54.24.77.77,0,0,1-.53-.17,2.57,2.57,0,0,1-.39-.58,2.83,2.83,0,0,0-.84-1,2,2,0,0,0-1.2-.34,2.17,2.17,0,0,0-1.8.86,3.9,3.9,0,0,0-.67,2.45,4.73,4.73,0,0,0,.29,1.76,2.26,2.26,0,0,0,.84,1,2.36,2.36,0,0,0,1.28.35,2.26,2.26,0,0,0,1.34-.39,2.36,2.36,0,0,0,.82-1.16,2.09,2.09,0,0,1,.29-.58.67.67,0,0,1,.56-.23.77.77,0,0,1,.56.23A.75.75,0,0,1,265.4,180.31Z" transform="translate(-32.35 -106.63)"/><path class="cls-6" d="M265.4,180.31h-.18a2.35,2.35,0,0,1-.2.87,3.32,3.32,0,0,1-1.75,1.68,4,4,0,0,1-1.58.29,6.12,6.12,0,0,1-1.27-.13,3.35,3.35,0,0,1-1-.41,3.5,3.5,0,0,1-.84-.72l-.14.12.14-.11a4.47,4.47,0,0,1-.95-2,6.14,6.14,0,0,1-.12-1.24,5.51,5.51,0,0,1,.3-1.89,4,4,0,0,1,.88-1.42,3.74,3.74,0,0,1,1.32-.9,4.47,4.47,0,0,1,1.64-.31,4.07,4.07,0,0,1,1.88.42,3.53,3.53,0,0,1,1.25,1,2,2,0,0,1,.42,1.12.59.59,0,0,1-.17.43.55.55,0,0,1-.41.19.54.54,0,0,1-.4-.12,2.44,2.44,0,0,1-.36-.53,2.93,2.93,0,0,0-.9-1.07,2.23,2.23,0,0,0-1.3-.37,2.39,2.39,0,0,0-1.95.93,4.1,4.1,0,0,0-.71,2.56,4.72,4.72,0,0,0,.32,1.83,2.39,2.39,0,0,0,.91,1.13,2.49,2.49,0,0,0,1.37.37,2.38,2.38,0,0,0,1.44-.43,2.48,2.48,0,0,0,.89-1.23h0a2,2,0,0,1,.27-.53c.07-.1.19-.15.41-.16a.65.65,0,0,1,.44.18.59.59,0,0,1,.18.44h.36a1,1,0,0,0-.29-.7,1,1,0,0,0-.69-.28.84.84,0,0,0-.7.3,2,2,0,0,0-.32.64l.17,0-.17-.06a2.17,2.17,0,0,1-.76,1.07,2,2,0,0,1-1.23.36,2.15,2.15,0,0,1-1.18-.32,2,2,0,0,1-.77-1,4.24,4.24,0,0,1-.28-1.68,3.75,3.75,0,0,1,.63-2.34,2,2,0,0,1,1.66-.79,1.83,1.83,0,0,1,1.09.31,2.52,2.52,0,0,1,.79.94,2.63,2.63,0,0,0,.43.62,1,1,0,0,0,1.32-.08,1,1,0,0,0,.28-.68,2.42,2.42,0,0,0-.5-1.33,3.66,3.66,0,0,0-1.38-1.14,4.38,4.38,0,0,0-2-.46,4.54,4.54,0,0,0-1.77.34,4.13,4.13,0,0,0-1.46,1,4.39,4.39,0,0,0-1,1.54,5.86,5.86,0,0,0-.33,2,7,7,0,0,0,.13,1.32,5,5,0,0,0,.4,1.16,4.49,4.49,0,0,0,.64,1h0a3.71,3.71,0,0,0,2,1.24,6.29,6.29,0,0,0,1.35.14,4.27,4.27,0,0,0,1.73-.32,3.61,3.61,0,0,0,1.23-.83,3.53,3.53,0,0,0,.7-1,2.58,2.58,0,0,0,.23-1Z" transform="translate(-32.35 -106.63)"/><path class="cls-6" d="M275.32,180.45a2.69,2.69,0,0,1-.42,1.48,2.83,2.83,0,0,1-1.24,1,4.6,4.6,0,0,1-1.94.37,4.33,4.33,0,0,1-2.21-.51,3,3,0,0,1-1-1,2.28,2.28,0,0,1-.38-1.19.81.81,0,0,1,.23-.57.78.78,0,0,1,.59-.24.71.71,0,0,1,.49.19,1.45,1.45,0,0,1,.35.55,3.43,3.43,0,0,0,.37.72,1.39,1.39,0,0,0,.56.48,2.08,2.08,0,0,0,1,.19,2.18,2.18,0,0,0,1.33-.38,1.14,1.14,0,0,0,.51-.95,1,1,0,0,0-.27-.73,1.78,1.78,0,0,0-.72-.43,11.65,11.65,0,0,0-1.16-.32,8.79,8.79,0,0,1-1.64-.53,2.57,2.57,0,0,1-1-.84,2.14,2.14,0,0,1-.39-1.31,2.28,2.28,0,0,1,.41-1.33,2.51,2.51,0,0,1,1.18-.89,4.81,4.81,0,0,1,1.82-.32,4.42,4.42,0,0,1,1.44.21,2.94,2.94,0,0,1,1,.55,2.26,2.26,0,0,1,.59.72,1.6,1.6,0,0,1,.19.74.89.89,0,0,1-.23.59.77.77,0,0,1-.58.26.65.65,0,0,1-.48-.16,2,2,0,0,1-.36-.51,2.2,2.2,0,0,0-.59-.8,1.68,1.68,0,0,0-1.11-.29,1.91,1.91,0,0,0-1.15.31.92.92,0,0,0-.44.75.75.75,0,0,0,.15.47,1.27,1.27,0,0,0,.41.34,2.31,2.31,0,0,0,.52.22c.18.06.47.14.88.24a12.33,12.33,0,0,1,1.39.4,4.36,4.36,0,0,1,1.06.52,2.21,2.21,0,0,1,.68.78A2.58,2.58,0,0,1,275.32,180.45Z" transform="translate(-32.35 -106.63)"/><path class="cls-6" d="M275.32,180.45h-.18a2.48,2.48,0,0,1-.39,1.38,2.56,2.56,0,0,1-1.17,1,4.35,4.35,0,0,1-1.86.36,4.26,4.26,0,0,1-2.12-.48h0a2.76,2.76,0,0,1-.94-.92,2,2,0,0,1-.36-1.09.63.63,0,0,1,.64-.63.56.56,0,0,1,.37.14,1.29,1.29,0,0,1,.3.49h0a4.47,4.47,0,0,0,.39.76,1.64,1.64,0,0,0,.63.53,2.19,2.19,0,0,0,1,.21,2.38,2.38,0,0,0,1.44-.41,1.36,1.36,0,0,0,.58-1.1,1.18,1.18,0,0,0-.33-.86,1.8,1.8,0,0,0-.78-.47c-.3-.1-.69-.21-1.18-.32a8.08,8.08,0,0,1-1.6-.53,2.46,2.46,0,0,1-1-.77,2,2,0,0,1-.35-1.21,2.09,2.09,0,0,1,.38-1.23,2.44,2.44,0,0,1,1.1-.83,4.81,4.81,0,0,1,1.75-.3,4.28,4.28,0,0,1,1.38.2,2.92,2.92,0,0,1,1,.52,2.12,2.12,0,0,1,.54.66,1.54,1.54,0,0,1,.17.66.69.69,0,0,1-.19.47.55.55,0,0,1-.44.2.48.48,0,0,1-.36-.11,2,2,0,0,1-.32-.47l-.16.09.17-.08a2.53,2.53,0,0,0-.65-.86,1.83,1.83,0,0,0-1.22-.33,2.15,2.15,0,0,0-1.26.34,1.12,1.12,0,0,0-.51.9,1,1,0,0,0,.18.58h0a1.26,1.26,0,0,0,.46.39,3,3,0,0,0,.56.24l.89.24h0a10.26,10.26,0,0,1,1.37.39,3.81,3.81,0,0,1,1,.5,2,2,0,0,1,.63.72,2.39,2.39,0,0,1,.22,1.07h.36a2.67,2.67,0,0,0-.26-1.24,2.41,2.41,0,0,0-.74-.85,4.52,4.52,0,0,0-1.1-.55c-.42-.14-.89-.28-1.41-.4l0,.18.05-.18-.87-.23a2.66,2.66,0,0,1-.5-.21,1.13,1.13,0,0,1-.35-.29h0a.59.59,0,0,1-.11-.36.71.71,0,0,1,.36-.6,1.79,1.79,0,0,1,1.05-.28,1.58,1.58,0,0,1,1,.24,2.25,2.25,0,0,1,.55.75h0a2.55,2.55,0,0,0,.39.56.86.86,0,0,0,.61.21.93.93,0,0,0,.71-.32,1.06,1.06,0,0,0,.28-.71,1.78,1.78,0,0,0-.21-.82,2.38,2.38,0,0,0-.63-.78,3.32,3.32,0,0,0-1.07-.58,4.56,4.56,0,0,0-1.5-.22,5,5,0,0,0-1.89.33,2.75,2.75,0,0,0-1.26,1,2.45,2.45,0,0,0-.44,1.43,2.38,2.38,0,0,0,.42,1.42,2.76,2.76,0,0,0,1.12.89,9.07,9.07,0,0,0,1.67.55,11.73,11.73,0,0,1,1.15.31,1.58,1.58,0,0,1,.64.39.83.83,0,0,1,.22.6,1,1,0,0,1-.44.81,2,2,0,0,1-1.22.34,1.89,1.89,0,0,1-.87-.17,1.24,1.24,0,0,1-.5-.42,3.15,3.15,0,0,1-.36-.69h0a1.5,1.5,0,0,0-.39-.61.85.85,0,0,0-.61-.24,1,1,0,0,0-.72.3.94.94,0,0,0-.28.69,2.42,2.42,0,0,0,.41,1.29,3.2,3.2,0,0,0,1.07,1h0a4.52,4.52,0,0,0,2.3.53,4.81,4.81,0,0,0,2-.39,3,3,0,0,0,1.32-1.09,2.88,2.88,0,0,0,.45-1.58Z" transform="translate(-32.35 -106.63)"/><path class="cls-6" d="M279.61,175.16l2.05,6.08,2.06-6.12c.11-.33.19-.55.25-.68a1,1,0,0,1,.26-.34.89.89,0,0,1,.94,0,.87.87,0,0,1,.32.31.73.73,0,0,1,.11.4,1.59,1.59,0,0,1,0,.29c0,.1-.06.21-.1.31s-.07.2-.11.31l-2.19,5.93c-.08.22-.16.44-.24.64a2.72,2.72,0,0,1-.27.54,1.15,1.15,0,0,1-.41.38,1.4,1.4,0,0,1-1.26,0,1.07,1.07,0,0,1-.41-.38,2.74,2.74,0,0,1-.28-.54l-.23-.64-2.16-5.88c0-.11-.08-.21-.11-.32a1.59,1.59,0,0,1-.1-.33,1.24,1.24,0,0,1,0-.3.82.82,0,0,1,.25-.58.87.87,0,0,1,.64-.26.74.74,0,0,1,.66.29A4,4,0,0,1,279.61,175.16Z" transform="translate(-32.35 -106.63)"/><path class="cls-6" d="M279.61,175.16l-.17.06,2.22,6.59,2.24-6.64h0a6.54,6.54,0,0,1,.23-.65h0a.75.75,0,0,1,.22-.27.62.62,0,0,1,.39-.11.59.59,0,0,1,.34.1.64.64,0,0,1,.25.24.55.55,0,0,1,.09.31,1.29,1.29,0,0,1,0,.25,1.61,1.61,0,0,1-.09.29c0,.1-.07.2-.11.31l.17.06-.17-.06L283,181.56h0c-.08.22-.16.44-.24.64a2.59,2.59,0,0,1-.25.5,1,1,0,0,1-.35.32,1.08,1.08,0,0,1-.54.13,1.2,1.2,0,0,1-.54-.12,1,1,0,0,1-.35-.33,2.7,2.7,0,0,1-.26-.51l-.23-.63-2.16-5.88-.17.06.17-.06c0-.11-.08-.21-.11-.32a2.26,2.26,0,0,1-.1-.31h0a1.58,1.58,0,0,1,0-.26.63.63,0,0,1,.2-.45.7.7,0,0,1,.51-.21.57.57,0,0,1,.51.21,3.68,3.68,0,0,1,.38.88h0l.17-.06.17-.06a3.87,3.87,0,0,0-.42-1,.94.94,0,0,0-.81-.37,1,1,0,0,0-.77.32,1,1,0,0,0-.3.7,1.48,1.48,0,0,0,0,.34h0a1.89,1.89,0,0,0,.11.36c0,.1.07.2.11.31h0l2.16,5.88.17-.06-.17.06.23.64a2.87,2.87,0,0,0,.3.58,1.34,1.34,0,0,0,1.19.61,1.4,1.4,0,0,0,.72-.17,1.41,1.41,0,0,0,.47-.44,3,3,0,0,0,.29-.57l.24-.65-.17-.06.17.06,2.19-5.93h0c0-.11.08-.21.11-.31a2.07,2.07,0,0,0,.1-.33,1.39,1.39,0,0,0,.05-.33,1,1,0,0,0-.14-.49,1.25,1.25,0,0,0-.38-.38,1.08,1.08,0,0,0-.53-.14,1,1,0,0,0-.62.19,1,1,0,0,0-.32.41h0c-.06.14-.14.36-.25.69h0l-1.89,5.61-1.88-5.57-.17.06.17-.06Z" transform="translate(-32.35 -106.63)"/><path class="cls-6" d="M294.07,174.11h2.39a6.7,6.7,0,0,1,1.6.17,3,3,0,0,1,1.22.65,4.61,4.61,0,0,1,1.41,3.69,7.62,7.62,0,0,1-.14,1.49,4.45,4.45,0,0,1-.44,1.21,3.75,3.75,0,0,1-.76,1,3.27,3.27,0,0,1-.8.53,3.57,3.57,0,0,1-.93.27,6.41,6.41,0,0,1-1.12.08h-2.4a1.5,1.5,0,0,1-.75-.15.69.69,0,0,1-.33-.42,2.86,2.86,0,0,1-.08-.72v-6.65a1.18,1.18,0,0,1,.27-.86A1.19,1.19,0,0,1,294.07,174.11Zm.71,1.45v6.16h1.39a6.7,6.7,0,0,0,.72,0,2.94,2.94,0,0,0,.54-.12,1.64,1.64,0,0,0,.48-.28,3.39,3.39,0,0,0,.92-2.69,4,4,0,0,0-.41-2,1.86,1.86,0,0,0-1-.85,5.05,5.05,0,0,0-1.44-.18Z" transform="translate(-32.35 -106.63)"/><path class="cls-6" d="M294.07,174.11v.18h2.39a6.35,6.35,0,0,1,1.56.17,2.76,2.76,0,0,1,1.14.61h0a4.4,4.4,0,0,1,1.35,3.55,7.21,7.21,0,0,1-.14,1.45,4.27,4.27,0,0,1-.42,1.17,3.76,3.76,0,0,1-.72.92l.12.13-.12-.13a3,3,0,0,1-.75.49,3.68,3.68,0,0,1-.89.27,7.13,7.13,0,0,1-1.09.07h-2.4a1.42,1.42,0,0,1-.66-.12.53.53,0,0,1-.25-.32,2.86,2.86,0,0,1-.07-.67v-6.65a1,1,0,0,1,.22-.73,1,1,0,0,1,.73-.21v-.36a1.35,1.35,0,0,0-1,.32,1.31,1.31,0,0,0-.32,1v6.65a3.31,3.31,0,0,0,.08.77.92.92,0,0,0,.42.53,1.69,1.69,0,0,0,.84.18h2.4a6.71,6.71,0,0,0,1.15-.09,3.58,3.58,0,0,0,1-.29,3.47,3.47,0,0,0,.84-.55h0a3.92,3.92,0,0,0,.8-1,4.56,4.56,0,0,0,.46-1.27,7.94,7.94,0,0,0,.14-1.52,4.77,4.77,0,0,0-1.48-3.83h0a3.12,3.12,0,0,0-1.28-.68,6.72,6.72,0,0,0-1.65-.18h-2.39Zm.71,1.45h-.18v6.34h1.57a6.91,6.91,0,0,0,.73,0,2.61,2.61,0,0,0,.59-.13,1.84,1.84,0,0,0,.54-.32l-.12-.13.12.14a3.55,3.55,0,0,0,1-2.83,4.06,4.06,0,0,0-.43-2.1,2,2,0,0,0-1.1-.93,5.09,5.09,0,0,0-1.49-.19H294.6v.18h.18v.18H296a4.53,4.53,0,0,1,1.38.18,1.6,1.6,0,0,1,.9.77,3.83,3.83,0,0,1,.38,1.91,3.17,3.17,0,0,1-.86,2.55h0a1.27,1.27,0,0,1-.42.25,2,2,0,0,1-.5.11,6.67,6.67,0,0,1-.7,0H295v-6h-.18v0Z" transform="translate(-32.35 -106.63)"/><path class="cls-6" d="M309.49,182.15l-.43-1.14h-3.69l-.43,1.16a3.94,3.94,0,0,1-.44.92.67.67,0,0,1-.58.24.92.92,0,0,1-.62-.25.82.82,0,0,1-.26-.58,1.31,1.31,0,0,1,.06-.38c0-.13.11-.32.2-.55l2.32-5.89c.07-.17.15-.37.24-.61a3.22,3.22,0,0,1,.3-.59,1.15,1.15,0,0,1,.41-.38,1.44,1.44,0,0,1,1.28,0,1.23,1.23,0,0,1,.41.37,2.34,2.34,0,0,1,.27.49c.07.18.16.41.27.71l2.37,5.85a2.82,2.82,0,0,1,.28,1,.83.83,0,0,1-.26.58.9.9,0,0,1-.64.26.87.87,0,0,1-.37-.08.75.75,0,0,1-.26-.21,1.84,1.84,0,0,1-.22-.41Zm-3.64-2.52h2.71l-1.37-3.74Z" transform="translate(-32.35 -106.63)"/><path class="cls-6" d="M309.49,182.15l.17-.07-.48-1.25h-3.94l-.47,1.28a3.74,3.74,0,0,1-.41.87.51.51,0,0,1-.44.17.64.64,0,0,1-.49-.21.57.57,0,0,1-.21-.44,1.39,1.39,0,0,1,0-.33h0c0-.12.11-.3.2-.54h0l2.32-5.88h0c.07-.16.15-.37.24-.6a2.64,2.64,0,0,1,.28-.56,1,1,0,0,1,.35-.32,1.23,1.23,0,0,1,1.1,0,1,1,0,0,1,.35.32,2.46,2.46,0,0,1,.25.45l.27.7h0l2.37,5.85h0a2.73,2.73,0,0,1,.27.9.61.61,0,0,1-.21.45.69.69,0,0,1-.51.21.62.62,0,0,1-.29-.06h0l-.19-.16a1.59,1.59,0,0,1-.21-.37h0c-.08-.18-.15-.34-.2-.48l-.17.07.17-.07-.17.07-.17.07.21.49h0a2.14,2.14,0,0,0,.25.44,1,1,0,0,0,.32.26h0a1,1,0,0,0,.45.1,1.07,1.07,0,0,0,.77-.32,1,1,0,0,0,.31-.7,2.89,2.89,0,0,0-.29-1l-.17.07.17-.07L309,175.6l-.17.07.17-.07c-.11-.29-.2-.53-.28-.7a2.43,2.43,0,0,0-.28-.53,1.39,1.39,0,0,0-.47-.43,1.65,1.65,0,0,0-1.46,0,1.41,1.41,0,0,0-.47.44,3.25,3.25,0,0,0-.32.62c-.09.24-.17.44-.23.61l-2.32,5.89h0a5.55,5.55,0,0,0-.21.56h0a1.39,1.39,0,0,0-.07.44,1,1,0,0,0,.32.71,1.07,1.07,0,0,0,.74.3.86.86,0,0,0,.73-.31,4.54,4.54,0,0,0,.46-1l.39-1.05h3.43l.39,1h0Zm-3.64-2.52v.18h3l-1.63-4.45-1.59,4.45h.25v-.18l.17.06,1.18-3.27,1.1,3h-2.45v.18l.17.06Z" transform="translate(-32.35 -106.63)"/><path class="cls-6" d="M320.07,175.62h-2v6.59a1.19,1.19,0,0,1-.26.84.83.83,0,0,1-.65.28.85.85,0,0,1-.67-.28,1.21,1.21,0,0,1-.26-.84v-6.59h-2a1.06,1.06,0,0,1-.7-.2.72.72,0,0,1-.23-.55.7.7,0,0,1,.24-.56,1.07,1.07,0,0,1,.69-.2h5.84a1,1,0,0,1,.71.21.72.72,0,0,1,.23.55.69.69,0,0,1-.24.55A1.06,1.06,0,0,1,320.07,175.62Z" transform="translate(-32.35 -106.63)"/><path class="cls-6" d="M320.07,175.62v-.18h-2.19v6.77a1.07,1.07,0,0,1-.2.72.66.66,0,0,1-.52.22.67.67,0,0,1-.54-.22,1.09,1.09,0,0,1-.2-.72v-6.77h-2.19a.84.84,0,0,1-.58-.16.54.54,0,0,1-.17-.41.52.52,0,0,1,.18-.42.84.84,0,0,1,.57-.16h5.84a.87.87,0,0,1,.59.16.54.54,0,0,1,.17.42.51.51,0,0,1-.18.41.84.84,0,0,1-.58.16v.36a1.18,1.18,0,0,0,.82-.25.87.87,0,0,0,.3-.68.93.93,0,0,0-.29-.69,1.21,1.21,0,0,0-.83-.25h-5.84a1.24,1.24,0,0,0-.81.24.89.89,0,0,0-.3.7.91.91,0,0,0,.29.68,1.18,1.18,0,0,0,.82.25h1.82v6.41a1.34,1.34,0,0,0,.31,1,1,1,0,0,0,.8.34,1,1,0,0,0,.78-.33,1.38,1.38,0,0,0,.31-1V175.8h1.82Z" transform="translate(-32.35 -106.63)"/><path class="cls-6" d="M329.29,182.15l-.44-1.14h-3.68l-.43,1.16a3.94,3.94,0,0,1-.44.92.68.68,0,0,1-.59.24.9.9,0,0,1-.61-.25.78.78,0,0,1-.26-.58,1.31,1.31,0,0,1,.06-.38c0-.13.11-.32.2-.55l2.32-5.89c.07-.17.15-.37.24-.61a2.7,2.7,0,0,1,.3-.59,1.15,1.15,0,0,1,.41-.38A1.22,1.22,0,0,1,327,174a1.3,1.3,0,0,1,.65.15,1.33,1.33,0,0,1,.41.37,2.91,2.91,0,0,1,.27.49c.07.18.16.41.27.71l2.37,5.85a2.82,2.82,0,0,1,.28,1,.83.83,0,0,1-.26.58.9.9,0,0,1-.64.26.84.84,0,0,1-.37-.08.75.75,0,0,1-.26-.21,2.29,2.29,0,0,1-.23-.41C329.41,182.45,329.34,182.29,329.29,182.15Zm-3.64-2.52h2.71L327,175.89Z" transform="translate(-32.35 -106.63)"/><path class="cls-6" d="M329.29,182.15l.17-.07-.48-1.25H325l-.47,1.28a3.74,3.74,0,0,1-.41.87.53.53,0,0,1-.45.17.64.64,0,0,1-.48-.21.57.57,0,0,1-.21-.44,1,1,0,0,1,.05-.33h0c0-.12.11-.3.2-.54h0l2.32-5.88h0c.07-.16.15-.37.24-.6a2.64,2.64,0,0,1,.28-.56,1,1,0,0,1,.35-.32,1.08,1.08,0,0,1,.54-.13,1.1,1.1,0,0,1,.56.13,1,1,0,0,1,.35.32,2.46,2.46,0,0,1,.25.45l.27.7,2.37,5.85h0a2.73,2.73,0,0,1,.27.9.61.61,0,0,1-.21.45.69.69,0,0,1-.51.21.6.6,0,0,1-.29-.06l-.2-.16a2.19,2.19,0,0,1-.2-.37h0l-.21-.48-.16.07.17-.07-.17.07-.17.07.21.49h0a1.76,1.76,0,0,0,.25.44.82.82,0,0,0,.32.26,1,1,0,0,0,.45.1,1,1,0,0,0,.76-.32,1,1,0,0,0,.32-.7,2.89,2.89,0,0,0-.29-1l-.17.07.17-.07-2.37-5.85-.17.07.17-.07c-.11-.29-.2-.53-.28-.7a2.43,2.43,0,0,0-.28-.53,1.33,1.33,0,0,0-.48-.43,1.44,1.44,0,0,0-1.92.44,3.25,3.25,0,0,0-.32.62c-.09.24-.17.44-.24.61l-2.32,5.89h0c-.09.24-.16.42-.2.56h0a1.41,1.41,0,0,0-.08.44,1,1,0,0,0,.33.71,1.06,1.06,0,0,0,.73.3.87.87,0,0,0,.74-.31,4.16,4.16,0,0,0,.45-1l.39-1.05h3.44l.39,1h0Zm-3.64-2.52v.18h3L327,175.36l-1.6,4.45h.26v-.18l.17.06,1.17-3.27,1.11,3h-2.45v.18l.17.06Z" transform="translate(-32.35 -106.63)"/></svg>