<svg xmlns="http://www.w3.org/2000/svg" xmlns:xlink="http://www.w3.org/1999/xlink" viewBox="0 0 319.59 134.99"><defs><style>.cls-1{fill:none;}.cls-2{clip-path:url(#clip-path);}.cls-3{fill:#29abe2;opacity:0.3;}.cls-4{fill:#ff953b;}.cls-5{fill:#1d5888;}.cls-6{fill:#0b66a0;}</style><clipPath id="clip-path"><polyline class="cls-1" points="104.69 15.89 131.09 15.89 131.09 67.73 104.69 67.73 104.69 15.89"/></clipPath></defs><g id="Layer_2" data-name="Layer 2"><g id="Layer_1-2" data-name="Layer 1"><g class="cls-2"><path class="cls-3" d="M105,16.11c10.43,3,19.1,12,21.77,23.94a32.24,32.24,0,0,1-6.2,27.44A29.3,29.3,0,0,0,105,16.11m0,0h0"/></g><path class="cls-4" d="M63.18,45.69a36,36,0,1,1,36,35.91A36,36,0,0,1,63.18,45.69Zm120.2,80.8L133.11,76.34A45.82,45.82,0,1,0,125.62,83l50.7,50.56a5,5,0,0,0,7.06-7Z"/><path class="cls-5" d="M19.48,33.55V48.47a28,28,0,0,1-.17,3.31,10.91,10.91,0,0,1-.74,2.76,7.52,7.52,0,0,1-3.21,3.66,10.64,10.64,0,0,1-5.44,1.31,11.28,11.28,0,0,1-4.83-.91,7.1,7.1,0,0,1-3.12-3,10.53,10.53,0,0,1-1-2.5,10.25,10.25,0,0,1-.39-2.71,2.73,2.73,0,0,1,.76-2.08,2.73,2.73,0,0,1,1.94-.71A2.2,2.2,0,0,1,5,48.3a4.5,4.5,0,0,1,.89,2.06,19.5,19.5,0,0,0,.66,2.39,3.68,3.68,0,0,0,1.11,1.53,3.4,3.4,0,0,0,2.22.64q3.82,0,3.83-5.61V33.55a3.9,3.9,0,0,1,.76-2.63,2.66,2.66,0,0,1,2.09-.87,2.72,2.72,0,0,1,2.13.87A3.79,3.79,0,0,1,19.48,33.55Z"/><path class="cls-5" d="M19.48,33.55h-.57V48.47a26.87,26.87,0,0,1-.16,3.24A9.79,9.79,0,0,1,18,54.32h0a6.9,6.9,0,0,1-3,3.39h0a10,10,0,0,1-5.15,1.23,10.62,10.62,0,0,1-4.59-.86,6.52,6.52,0,0,1-2.87-2.72h0A9.85,9.85,0,0,1,1.51,53a9.65,9.65,0,0,1-.37-2.56,2.13,2.13,0,0,1,.58-1.66h0a2.17,2.17,0,0,1,1.55-.57,1.64,1.64,0,0,1,1.3.47,4,4,0,0,1,.77,1.81A19.38,19.38,0,0,0,6,52.94,4.12,4.12,0,0,0,7.3,54.72a4,4,0,0,0,2.58.77,3.81,3.81,0,0,0,3.34-1.65,8.08,8.08,0,0,0,1.06-4.53V33.55a3.31,3.31,0,0,1,.62-2.25,2,2,0,0,1,1.66-.68,2.14,2.14,0,0,1,1.71.68,3.32,3.32,0,0,1,.64,2.25h1.14a4.35,4.35,0,0,0-.94-3,3.27,3.27,0,0,0-2.55-1.06,3.16,3.16,0,0,0-2.51,1.07,4.41,4.41,0,0,0-.91,3V49.31a7,7,0,0,1-.86,3.89,2.68,2.68,0,0,1-2.4,1.16A2.83,2.83,0,0,1,8,53.84a3,3,0,0,1-.93-1.29,18.15,18.15,0,0,1-.64-2.32,5.26,5.26,0,0,0-1-2.31,2.74,2.74,0,0,0-2.16-.85,3.27,3.27,0,0,0-2.33.87h0A3.3,3.3,0,0,0,0,50.43a10.85,10.85,0,0,0,.41,2.86,11.65,11.65,0,0,0,1.06,2.64h0a7.67,7.67,0,0,0,3.36,3.18,11.81,11.81,0,0,0,5.08,1,11.13,11.13,0,0,0,5.73-1.39l0,0,0,0a8.05,8.05,0,0,0,3.44-3.94h0a10.88,10.88,0,0,0,.79-2.91,29.24,29.24,0,0,0,.17-3.37V33.55Z"/><path class="cls-5" d="M47.38,50.47a8.45,8.45,0,0,1-1.33,4.65,8.83,8.83,0,0,1-3.9,3.22,14.56,14.56,0,0,1-6.08,1.17,13.73,13.73,0,0,1-7-1.59A9.34,9.34,0,0,1,26,54.86a7,7,0,0,1-1.21-3.73,2.53,2.53,0,0,1,2.58-2.54,2.19,2.19,0,0,1,1.55.58A4.67,4.67,0,0,1,30,50.9a11.11,11.11,0,0,0,1.17,2.27,4.67,4.67,0,0,0,1.78,1.51,6.5,6.5,0,0,0,3,.59,6.78,6.78,0,0,0,4.17-1.19,3.59,3.59,0,0,0,1.6-3,3.15,3.15,0,0,0-.86-2.31,5.56,5.56,0,0,0-2.24-1.35q-1.36-.46-3.66-1a27,27,0,0,1-5.14-1.68,8.27,8.27,0,0,1-3.28-2.62A6.83,6.83,0,0,1,25.28,38a7.11,7.11,0,0,1,1.28-4.18A8.09,8.09,0,0,1,30.28,31a15,15,0,0,1,5.71-1,14,14,0,0,1,4.54.65,9.5,9.5,0,0,1,3.17,1.73,7.15,7.15,0,0,1,1.85,2.26A5.19,5.19,0,0,1,46.13,37a2.75,2.75,0,0,1-.72,1.86,2.35,2.35,0,0,1-1.82.83,2.1,2.1,0,0,1-1.51-.5A7,7,0,0,1,41,37.57a7.26,7.26,0,0,0-1.86-2.52,5.48,5.48,0,0,0-3.5-.9,6.06,6.06,0,0,0-3.6,1,2.83,2.83,0,0,0-1.37,2.36A2.41,2.41,0,0,0,31.09,39,4,4,0,0,0,32.37,40a9.47,9.47,0,0,0,1.66.7c.55.17,1.47.41,2.76.73,1.6.38,3.06.8,4.36,1.25a13,13,0,0,1,3.32,1.65,6.75,6.75,0,0,1,2.14,2.46A7.87,7.87,0,0,1,47.38,50.47Z"/><path class="cls-5" d="M47.38,50.47h-.57a7.76,7.76,0,0,1-1.24,4.34,8.34,8.34,0,0,1-3.66,3,14.12,14.12,0,0,1-5.84,1.11,13.24,13.24,0,0,1-6.68-1.51h0a8.8,8.8,0,0,1-3-2.88,6.34,6.34,0,0,1-1.12-3.42,1.89,1.89,0,0,1,.56-1.4,1.91,1.91,0,0,1,1.45-.57,1.6,1.6,0,0,1,1.16.43h0a4.19,4.19,0,0,1,.94,1.52h0a12.08,12.08,0,0,0,1.23,2.39h0a5.42,5.42,0,0,0,2,1.69h0a7.14,7.14,0,0,0,3.27.65,7.35,7.35,0,0,0,4.51-1.31,4.16,4.16,0,0,0,1.83-3.43,3.76,3.76,0,0,0-1-2.71h0a6.28,6.28,0,0,0-2.46-1.49c-1-.32-2.18-.65-3.72-1h0a26.7,26.7,0,0,1-5-1.65A7.69,7.69,0,0,1,27,41.81,6.28,6.28,0,0,1,25.85,38,6.51,6.51,0,0,1,27,34.16a7.5,7.5,0,0,1,3.46-2.6,14.45,14.45,0,0,1,5.5-.94,13.52,13.52,0,0,1,4.35.62,9,9,0,0,1,3,1.62A6.84,6.84,0,0,1,45,34.94,4.63,4.63,0,0,1,45.57,37,2.15,2.15,0,0,1,45,38.48h0a1.73,1.73,0,0,1-1.39.64,1.51,1.51,0,0,1-1.11-.34h0a6.17,6.17,0,0,1-1-1.48l-.51.27.52-.25a8.08,8.08,0,0,0-2-2.71,6,6,0,0,0-3.86-1,6.66,6.66,0,0,0-3.94,1.09,4.1,4.1,0,0,0-1.18,1.25,3.11,3.11,0,0,0-.42,1.57,2.93,2.93,0,0,0,.58,1.82,4.43,4.43,0,0,0,1.46,1.23,9.55,9.55,0,0,0,1.76.74h0c.58.17,1.5.42,2.79.75h0A41.06,41.06,0,0,1,41,43.26a12.41,12.41,0,0,1,3.18,1.57,6.3,6.3,0,0,1,2,2.26,7.31,7.31,0,0,1,.7,3.38H48a8.47,8.47,0,0,0-.83-3.9,7.34,7.34,0,0,0-2.32-2.66,13.64,13.64,0,0,0-3.46-1.73,45,45,0,0,0-4.42-1.26l-.13.55.13-.55c-1.27-.32-2.19-.56-2.73-.73h0a7.55,7.55,0,0,1-1.54-.65,3.3,3.3,0,0,1-1.1-.91,1.85,1.85,0,0,1-.36-1.14,1.89,1.89,0,0,1,.27-1,3,3,0,0,1,.87-.91,5.46,5.46,0,0,1,3.27-.87,4.93,4.93,0,0,1,3.14.77,6.91,6.91,0,0,1,1.71,2.33h0a7,7,0,0,0,1.23,1.76h0a2.67,2.67,0,0,0,1.9.66,2.92,2.92,0,0,0,2.24-1h0A3.27,3.27,0,0,0,46.7,37a5.77,5.77,0,0,0-.64-2.56,7.71,7.71,0,0,0-2-2.44,9.94,9.94,0,0,0-3.36-1.84A14.64,14.64,0,0,0,36,29.48a15.71,15.71,0,0,0-5.93,1,8.64,8.64,0,0,0-4,3A7.65,7.65,0,0,0,24.71,38,7.34,7.34,0,0,0,26,42.48a8.86,8.86,0,0,0,3.5,2.8A26.71,26.71,0,0,0,34.79,47h0c1.52.35,2.73.68,3.61,1a4.91,4.91,0,0,1,2,1.21h0a2.58,2.58,0,0,1,.71,1.91,3,3,0,0,1-1.38,2.52,6.27,6.27,0,0,1-3.83,1.09,6.15,6.15,0,0,1-2.75-.53h0a4.18,4.18,0,0,1-1.57-1.33h0a10.76,10.76,0,0,1-1.12-2.16h0a5.17,5.17,0,0,0-1.22-1.94h0A2.81,2.81,0,0,0,27.32,48a3.09,3.09,0,0,0-3.15,3.11,7.53,7.53,0,0,0,1.3,4,9.92,9.92,0,0,0,3.35,3.25h0a14.25,14.25,0,0,0,7.25,1.67,15.2,15.2,0,0,0,6.32-1.22,9.39,9.39,0,0,0,4.13-3.43,9,9,0,0,0,1.43-5Z"/><path class="cls-5" d="M86.5,50A7.56,7.56,0,0,1,85.83,53a10.65,10.65,0,0,1-2.11,3.11,10.79,10.79,0,0,1-3.67,2.48,13.31,13.31,0,0,1-5.21.95,17.92,17.92,0,0,1-4.1-.43,11.4,11.4,0,0,1-3.35-1.33,11,11,0,0,1-2.77-2.38,14,14,0,0,1-1.93-3,15.44,15.44,0,0,1-1.19-3.55,19,19,0,0,1-.4-4,17.65,17.65,0,0,1,1-6.16A13.08,13.08,0,0,1,65,34a12.4,12.4,0,0,1,4.37-2.94,14,14,0,0,1,5.34-1,13.41,13.41,0,0,1,6.17,1.38A11.11,11.11,0,0,1,85,34.84a6.76,6.76,0,0,1,1.43,3.84,2.5,2.5,0,0,1-.7,1.75,2.22,2.22,0,0,1-1.69.75,2.33,2.33,0,0,1-1.66-.52,7.1,7.1,0,0,1-1.23-1.81,8.69,8.69,0,0,0-2.66-3.17,6.46,6.46,0,0,0-3.76-1,6.78,6.78,0,0,0-5.66,2.71Q66.95,40,67,45a14.28,14.28,0,0,0,.93,5.53,7,7,0,0,0,2.65,3.3,7.32,7.32,0,0,0,4,1.08,7.06,7.06,0,0,0,4.21-1.23,7.46,7.46,0,0,0,2.59-3.62,6,6,0,0,1,.92-1.84A2.06,2.06,0,0,1,84,47.52a2.44,2.44,0,0,1,1.77.72A2.36,2.36,0,0,1,86.5,50Z"/><path class="cls-5" d="M86.5,50h-.57a7.09,7.09,0,0,1-.62,2.72A10.28,10.28,0,0,1,79.83,58a12.85,12.85,0,0,1-5,.9,17.81,17.81,0,0,1-4-.41,10.86,10.86,0,0,1-3.19-1.27A10.42,10.42,0,0,1,65.05,55h0a13.55,13.55,0,0,1-1.84-2.89,14.66,14.66,0,0,1-1.16-3.42,19.2,19.2,0,0,1-.38-3.88,17.23,17.23,0,0,1,1-6,12.67,12.67,0,0,1,2.75-4.45,11.89,11.89,0,0,1,4.17-2.82,13.68,13.68,0,0,1,5.13-1,12.86,12.86,0,0,1,5.91,1.31,10.57,10.57,0,0,1,3.93,3.24,6.15,6.15,0,0,1,1.34,3.51A2,2,0,0,1,85.31,40a1.64,1.64,0,0,1-1.28.57,1.83,1.83,0,0,1-1.27-.36,6.93,6.93,0,0,1-1.12-1.67h0a9.29,9.29,0,0,0-2.83-3.37,7,7,0,0,0-4.09-1.14A7.35,7.35,0,0,0,68.61,37c-1.51,1.94-2.23,4.63-2.23,8a14.79,14.79,0,0,0,1,5.75,7.53,7.53,0,0,0,2.86,3.56,8,8,0,0,0,4.31,1.17,7.61,7.61,0,0,0,4.54-1.34,8.09,8.09,0,0,0,2.8-3.89h0a5.53,5.53,0,0,1,.83-1.67,1.14,1.14,0,0,1,.47-.35,2.27,2.27,0,0,1,.82-.13,1.85,1.85,0,0,1,1.38.56A1.79,1.79,0,0,1,85.93,50h1.14a3,3,0,0,0-.91-2.2A3.07,3.07,0,0,0,84,47a3.39,3.39,0,0,0-1.25.22,2.23,2.23,0,0,0-.95.71,6.74,6.74,0,0,0-1,2l.54.18-.53-.2a7,7,0,0,1-2.39,3.36,6.55,6.55,0,0,1-3.88,1.13,6.82,6.82,0,0,1-3.7-1,6.37,6.37,0,0,1-2.42-3A13.54,13.54,0,0,1,67.52,45c0-3.24.69-5.66,2-7.32a6.21,6.21,0,0,1,5.21-2.49,5.92,5.92,0,0,1,3.44.95,8.08,8.08,0,0,1,2.48,3h0a7.76,7.76,0,0,0,1.34,2,2.86,2.86,0,0,0,2,.68,2.77,2.77,0,0,0,2.11-.94A3,3,0,0,0,87,38.68a7.32,7.32,0,0,0-1.54-4.17,11.69,11.69,0,0,0-4.35-3.59,14,14,0,0,0-6.42-1.44,14.77,14.77,0,0,0-5.55,1.05,13,13,0,0,0-4.57,3.08,13.72,13.72,0,0,0-3,4.85,18.21,18.21,0,0,0-1,6.36,20.2,20.2,0,0,0,.41,4.12,16.52,16.52,0,0,0,1.24,3.67,15,15,0,0,0,2,3.13h0a11.72,11.72,0,0,0,2.9,2.5,12.4,12.4,0,0,0,3.52,1.4,19.15,19.15,0,0,0,4.23.44,13.77,13.77,0,0,0,5.43-1,11.38,11.38,0,0,0,3.87-2.61,11.15,11.15,0,0,0,2.21-3.28A8.13,8.13,0,0,0,87.07,50Z"/><path class="cls-5" d="M113.33,50.47A8.37,8.37,0,0,1,112,55.12a8.83,8.83,0,0,1-3.9,3.22A14.53,14.53,0,0,1,102,59.51a13.73,13.73,0,0,1-7-1.59,9.44,9.44,0,0,1-3.16-3.06,7,7,0,0,1-1.21-3.73,2.53,2.53,0,0,1,2.59-2.54,2.19,2.19,0,0,1,1.54.58A4.67,4.67,0,0,1,95.9,50.9a11.11,11.11,0,0,0,1.17,2.27,4.83,4.83,0,0,0,1.78,1.51,6.55,6.55,0,0,0,3,.59A6.73,6.73,0,0,0,106,54.08a3.6,3.6,0,0,0,1.61-3,3.15,3.15,0,0,0-.87-2.31,5.52,5.52,0,0,0-2.23-1.35c-.92-.31-2.14-.64-3.67-1a27.19,27.19,0,0,1-5.14-1.68,8.34,8.34,0,0,1-3.28-2.62A6.83,6.83,0,0,1,91.23,38a7,7,0,0,1,1.29-4.18A8,8,0,0,1,96.23,31a15.07,15.07,0,0,1,5.71-1,14,14,0,0,1,4.54.65,9.46,9.46,0,0,1,3.18,1.73,7.29,7.29,0,0,1,1.85,2.26,5.33,5.33,0,0,1,.58,2.31,2.72,2.72,0,0,1-.73,1.86,2.34,2.34,0,0,1-1.82.83,2.07,2.07,0,0,1-1.5-.5,6.45,6.45,0,0,1-1.12-1.62,7.28,7.28,0,0,0-1.87-2.52,5.46,5.46,0,0,0-3.5-.9,6.06,6.06,0,0,0-3.6,1,2.85,2.85,0,0,0-1.37,2.36A2.36,2.36,0,0,0,97.05,39,3.93,3.93,0,0,0,98.33,40a9.07,9.07,0,0,0,1.65.7c.56.17,1.48.41,2.76.73a44.83,44.83,0,0,1,4.36,1.25,13.1,13.1,0,0,1,3.33,1.65,6.82,6.82,0,0,1,2.13,2.46A7.75,7.75,0,0,1,113.33,50.47Z"/><path class="cls-5" d="M113.33,50.47h-.57a7.76,7.76,0,0,1-1.24,4.34,8.31,8.31,0,0,1-3.65,3A14.17,14.17,0,0,1,102,58.94a13.2,13.2,0,0,1-6.67-1.51h0a8.68,8.68,0,0,1-3-2.88,6.36,6.36,0,0,1-1.13-3.42,1.95,1.95,0,0,1,2-2,1.63,1.63,0,0,1,1.16.43,4.18,4.18,0,0,1,.93,1.52h0a12.08,12.08,0,0,0,1.24,2.39,5.39,5.39,0,0,0,2,1.69,7.16,7.16,0,0,0,3.28.65,7.32,7.32,0,0,0,4.5-1.31,4.14,4.14,0,0,0,1.84-3.43,3.77,3.77,0,0,0-1-2.71,6.28,6.28,0,0,0-2.46-1.49c-.94-.32-2.18-.65-3.72-1h0a26.7,26.7,0,0,1-5-1.65,7.72,7.72,0,0,1-3.06-2.44A6.22,6.22,0,0,1,91.8,38,6.65,6.65,0,0,1,93,34.16a7.55,7.55,0,0,1,3.46-2.6,14.48,14.48,0,0,1,5.5-.94,13.54,13.54,0,0,1,4.36.62,9,9,0,0,1,3,1.62A6.74,6.74,0,0,1,111,34.94a4.75,4.75,0,0,1,.52,2.06,2.1,2.1,0,0,1-.59,1.48,1.73,1.73,0,0,1-1.39.64,1.52,1.52,0,0,1-1.11-.34h0a6.17,6.17,0,0,1-1-1.48l-.5.27.51-.25a7.93,7.93,0,0,0-2-2.71,6,6,0,0,0-3.87-1,6.61,6.61,0,0,0-3.93,1.09,4.14,4.14,0,0,0-1.19,1.25A3.11,3.11,0,0,0,96,37.49a3,3,0,0,0,.58,1.82,4.47,4.47,0,0,0,1.47,1.23,9.27,9.27,0,0,0,1.76.74h0c.57.17,1.49.42,2.78.75h0a41.28,41.28,0,0,1,4.31,1.23,12.41,12.41,0,0,1,3.18,1.57,6.27,6.27,0,0,1,2,2.26,7.31,7.31,0,0,1,.7,3.38h1.14a8.47,8.47,0,0,0-.83-3.9,7.32,7.32,0,0,0-2.31-2.66,13.88,13.88,0,0,0-3.47-1.73,44.18,44.18,0,0,0-4.42-1.26l-.13.55.14-.55c-1.28-.32-2.2-.56-2.73-.73h0a7.79,7.79,0,0,1-1.54-.65,3.3,3.3,0,0,1-1.1-.91,1.84,1.84,0,0,1-.35-1.14,1.88,1.88,0,0,1,.26-1,3,3,0,0,1,.87-.91,5.46,5.46,0,0,1,3.27-.87,4.93,4.93,0,0,1,3.14.77,6.93,6.93,0,0,1,1.72,2.33h0a7.29,7.29,0,0,0,1.22,1.76h0a2.67,2.67,0,0,0,1.9.66,3,3,0,0,0,2.25-1,3.37,3.37,0,0,0,.87-2.24,5.77,5.77,0,0,0-.64-2.56A7.85,7.85,0,0,0,110,32a10.09,10.09,0,0,0-3.37-1.84,14.64,14.64,0,0,0-4.72-.68,15.69,15.69,0,0,0-5.92,1,8.73,8.73,0,0,0-4,3A7.64,7.64,0,0,0,90.67,38,7.34,7.34,0,0,0,92,42.48a8.86,8.86,0,0,0,3.5,2.8A26.71,26.71,0,0,0,100.74,47h0c1.51.35,2.72.68,3.6,1a5,5,0,0,1,2,1.21,2.62,2.62,0,0,1,.7,1.91,3,3,0,0,1-1.38,2.52,6.24,6.24,0,0,1-3.82,1.09,6.17,6.17,0,0,1-2.76-.53,4.26,4.26,0,0,1-1.57-1.33,10.77,10.77,0,0,1-1.11-2.16h0a5.29,5.29,0,0,0-1.22-1.94A2.83,2.83,0,0,0,93.28,48a3.05,3.05,0,0,0-2.27.92,3.09,3.09,0,0,0-.89,2.19,7.53,7.53,0,0,0,1.3,4,9.92,9.92,0,0,0,3.35,3.25h0A14.21,14.21,0,0,0,102,60.08a15.13,15.13,0,0,0,6.32-1.22,9.41,9.41,0,0,0,4.14-3.43,9,9,0,0,0,1.42-5Z"/><path class="cls-5" d="M122.45,33.84l6.45,19.1,6.47-19.24c.34-1,.59-1.71.76-2.11a2.89,2.89,0,0,1,.84-1.07,2.47,2.47,0,0,1,1.59-.47,2.75,2.75,0,0,1,2.36,1.35,2.42,2.42,0,0,1,.36,1.23,3.88,3.88,0,0,1-.12.92,6.5,6.5,0,0,1-.29,1l-.35,1-6.9,18.62c-.24.71-.49,1.39-.74,2a8.6,8.6,0,0,1-.85,1.69A3.89,3.89,0,0,1,130.74,59a3.82,3.82,0,0,1-2,.47,3.91,3.91,0,0,1-2-.46,3.66,3.66,0,0,1-1.3-1.2,9.33,9.33,0,0,1-.87-1.7c-.24-.64-.49-1.31-.73-2L117.1,35.66q-.16-.49-.36-1a8.73,8.73,0,0,1-.31-1.05,4.63,4.63,0,0,1-.12-.95,2.55,2.55,0,0,1,.79-1.81,2.7,2.7,0,0,1,2-.81,2.32,2.32,0,0,1,2.08.9A12,12,0,0,1,122.45,33.84Z"/><path class="cls-5" d="M122.45,33.84l-.54.18,7,20.7,7-20.84h0c.34-1,.59-1.7.74-2.07a2.26,2.26,0,0,1,.68-.85,1.88,1.88,0,0,1,1.23-.34,2.18,2.18,0,0,1,1.87,1.07,1.78,1.78,0,0,1,.28.94,3.35,3.35,0,0,1-.1.79,7.3,7.3,0,0,1-.27.91c-.12.32-.24.65-.35,1l.53.19-.53-.2-6.9,18.63h0c-.25.71-.49,1.38-.74,2a8,8,0,0,1-.79,1.58,3.17,3.17,0,0,1-2.8,1.41,3.46,3.46,0,0,1-1.69-.38,3.23,3.23,0,0,1-1.11-1,9.08,9.08,0,0,1-.81-1.59h0c-.24-.62-.48-1.29-.73-2h0l-6.78-18.47-.54.19.54-.18-.36-1h0a8,8,0,0,1-.28-1,4,4,0,0,1-.12-.83,2,2,0,0,1,.64-1.41,2.07,2.07,0,0,1,1.6-.64,2.66,2.66,0,0,1,1,.17,1.32,1.32,0,0,1,.58.48A11.47,11.47,0,0,1,121.91,34h0l.54-.18.54-.18a12.3,12.3,0,0,0-1.33-3,2.43,2.43,0,0,0-1.07-.88,3.72,3.72,0,0,0-1.48-.27,3.21,3.21,0,0,0-2.41,1,3,3,0,0,0-1,2.2,5.08,5.08,0,0,0,.14,1.08,9.32,9.32,0,0,0,.33,1.13h0l.36,1h0l6.78,18.47.54-.19-.54.18c.25.72.5,1.4.74,2h0a9,9,0,0,0,.93,1.81,4.23,4.23,0,0,0,1.49,1.39,4.54,4.54,0,0,0,2.25.53,4.45,4.45,0,0,0,2.26-.54,4.36,4.36,0,0,0,1.48-1.38,8.92,8.92,0,0,0,.92-1.8c.24-.65.49-1.33.74-2l-.54-.18.54.19,6.9-18.62h0c.11-.33.23-.65.35-1s.22-.68.31-1a4.86,4.86,0,0,0,.13-1,3,3,0,0,0-.44-1.52,3.28,3.28,0,0,0-1.19-1.18,3.23,3.23,0,0,0-1.66-.45,3,3,0,0,0-1.95.6,3.42,3.42,0,0,0-1,1.29c-.18.43-.44,1.13-.78,2.15h0L128.9,51.16,123,33.65l-.54.19.54-.18Z"/><path class="cls-5" d="M163.32,46.84h-2V56a3.82,3.82,0,0,1-.8,2.67,3,3,0,0,1-4.22,0,4,4,0,0,1-.75-2.63V34.07a3.74,3.74,0,0,1,.83-2.7,3.7,3.7,0,0,1,2.7-.84h9.39a28.31,28.31,0,0,1,3.32.17,8.28,8.28,0,0,1,2.49.67A7,7,0,0,1,176.63,33a7.06,7.06,0,0,1,1.57,2.44,8.3,8.3,0,0,1,.53,2.95,7.11,7.11,0,0,1-1.8,5.09,10.26,10.26,0,0,1-5.45,2.7,10.55,10.55,0,0,1,2.94,2.41,25.1,25.1,0,0,1,2.5,3.39,24,24,0,0,1,1.7,3.25,6.42,6.42,0,0,1,.62,2,2.06,2.06,0,0,1-.36,1.12,2.59,2.59,0,0,1-1,.87,3.18,3.18,0,0,1-1.44.32,2.75,2.75,0,0,1-1.63-.46,4.3,4.3,0,0,1-1.14-1.15c-.32-.47-.75-1.16-1.29-2.06L170.08,52a21.85,21.85,0,0,0-2.22-3.23,5.5,5.5,0,0,0-2-1.51A6.74,6.74,0,0,0,163.32,46.84Zm3.3-12H161.3V42.7h5.17a14.54,14.54,0,0,0,3.5-.36,4.15,4.15,0,0,0,2.16-1.22,3.55,3.55,0,0,0,.75-2.39,3.62,3.62,0,0,0-2.27-3.44A12.27,12.27,0,0,0,166.62,34.87Z"/><path class="cls-5" d="M163.32,46.84v-.57h-2.59V56a3.3,3.3,0,0,1-.64,2.28,2.13,2.13,0,0,1-1.67.67,2.06,2.06,0,0,1-1.7-.69A3.34,3.34,0,0,1,156.1,56V34.07a3.15,3.15,0,0,1,.66-2.3,3.21,3.21,0,0,1,2.3-.67h9.39a29.63,29.63,0,0,1,3.26.16,8,8,0,0,1,2.32.63h0a6.66,6.66,0,0,1,2.19,1.49,6.57,6.57,0,0,1,1.44,2.25h0a7.58,7.58,0,0,1,.49,2.75,6.56,6.56,0,0,1-1.64,4.7,9.77,9.77,0,0,1-5.16,2.53l-1.51.33,1.37.73A10.13,10.13,0,0,1,174,48.94a24.64,24.64,0,0,1,2.44,3.32,24.27,24.27,0,0,1,1.67,3.17,11,11,0,0,1,.44,1.17,2.26,2.26,0,0,1,.13.6,1.5,1.5,0,0,1-.27.81h0a2,2,0,0,1-.76.67h0a2.44,2.44,0,0,1-1.17.26,2.29,2.29,0,0,1-1.31-.35,4,4,0,0,1-1-1h0c-.31-.45-.74-1.13-1.28-2l-2.31-3.84h0a21,21,0,0,0-2.29-3.31,6,6,0,0,0-2.2-1.67,7.39,7.39,0,0,0-2.76-.45v1.14a6.43,6.43,0,0,1,2.33.36,5,5,0,0,1,1.78,1.37,20,20,0,0,1,2.16,3.14h0l2.32,3.85c.55.91,1,1.6,1.31,2.09h0a4.8,4.8,0,0,0,1.28,1.3,3.39,3.39,0,0,0,2,.56,3.58,3.58,0,0,0,1.7-.39h0a3.16,3.16,0,0,0,1.19-1.07h0a2.65,2.65,0,0,0,.45-1.42,3.59,3.59,0,0,0-.18-.94c-.11-.36-.27-.78-.48-1.28a27.26,27.26,0,0,0-1.75-3.32,25.22,25.22,0,0,0-2.56-3.47,11,11,0,0,0-3.09-2.53l-.27.5.12.55a10.86,10.86,0,0,0,5.75-2.86,7.73,7.73,0,0,0,2-5.48,8.71,8.71,0,0,0-.57-3.15h0A7.65,7.65,0,0,0,177,32.58a8,8,0,0,0-2.56-1.74l-.22.53.24-.52a9.21,9.21,0,0,0-2.66-.72,29.87,29.87,0,0,0-3.39-.17h-9.39a4.3,4.3,0,0,0-3.1,1,4.23,4.23,0,0,0-1,3.1V56a4.48,4.48,0,0,0,.89,3,3.22,3.22,0,0,0,2.57,1.1,3.29,3.29,0,0,0,2.5-1,4.35,4.35,0,0,0,1-3V47.41h1.45Zm3.3-12V34.3h-5.89v9h5.74a14.79,14.79,0,0,0,3.64-.38,4.69,4.69,0,0,0,2.45-1.4,4.13,4.13,0,0,0,.89-2.76,4.25,4.25,0,0,0-.7-2.4h0a4.16,4.16,0,0,0-1.92-1.56h0a5.88,5.88,0,0,0-1.66-.36,23.11,23.11,0,0,0-2.55-.11v1.14a23.26,23.26,0,0,1,2.43.1,5.16,5.16,0,0,1,1.34.28h0A3.05,3.05,0,0,1,171.81,37h0a3.14,3.14,0,0,1,.5,1.77,2.91,2.91,0,0,1-.61,2,3.51,3.51,0,0,1-1.87,1,14.19,14.19,0,0,1-3.36.34h-4.6V35.44h4.75Z"/><path class="cls-5" d="M203,35H190v7h12a2.86,2.86,0,0,1,2,.59,2,2,0,0,1,.65,1.57,2.07,2.07,0,0,1-.64,1.58,2.78,2.78,0,0,1-2,.61H190v8.11h13.45a3,3,0,0,1,2.05.63,2.16,2.16,0,0,1,.69,1.68,2.12,2.12,0,0,1-.69,1.64,3,3,0,0,1-2.05.63H187.72a3.68,3.68,0,0,1-2.71-.83,3.74,3.74,0,0,1-.83-2.7V34.07a4.88,4.88,0,0,1,.37-2,2.28,2.28,0,0,1,1.16-1.15,4.82,4.82,0,0,1,2-.36H203a3,3,0,0,1,2,.62,2,2,0,0,1,.67,1.6,2.08,2.08,0,0,1-.67,1.62A3,3,0,0,1,203,35Z"/><path class="cls-5" d="M203,35v-.56H189.39v8.13h12.54a2.34,2.34,0,0,1,1.59.44,1.44,1.44,0,0,1,.46,1.15,1.51,1.51,0,0,1-.46,1.17,2.24,2.24,0,0,1-1.59.46H189.39V55h14a2.38,2.38,0,0,1,1.66.48,1.6,1.6,0,0,1,.51,1.26,1.55,1.55,0,0,1-.51,1.22,2.37,2.37,0,0,1-1.66.49H187.72a3.18,3.18,0,0,1-2.31-.67,3.24,3.24,0,0,1-.66-2.3V34.07a4.24,4.24,0,0,1,.32-1.79,1.7,1.7,0,0,1,.88-.87,4.36,4.36,0,0,1,1.77-.31H203a2.41,2.41,0,0,1,1.67.47,1.5,1.5,0,0,1,.48,1.18,1.53,1.53,0,0,1-.48,1.2,2.46,2.46,0,0,1-1.67.47v1.13a3.51,3.51,0,0,0,2.43-.76,2.68,2.68,0,0,0,.86-2,2.64,2.64,0,0,0-.86-2A3.47,3.47,0,0,0,203,30H187.72a5.51,5.51,0,0,0-2.25.42A2.79,2.79,0,0,0,184,31.8a5.26,5.26,0,0,0-.42,2.27V55.49a3.56,3.56,0,0,0,4.1,4.1h15.69a3.52,3.52,0,0,0,2.43-.78,2.68,2.68,0,0,0,.87-2.06,2.75,2.75,0,0,0-.87-2.1,3.52,3.52,0,0,0-2.43-.78H190.52v-7h11.41a3.33,3.33,0,0,0,2.37-.77,2.62,2.62,0,0,0,.82-2,2.59,2.59,0,0,0-.84-2,3.37,3.37,0,0,0-2.35-.74H190.52V35.55H203Z"/><path class="cls-5" d="M229,55.8l-1.36-3.58H216l-1.36,3.66a13.06,13.06,0,0,1-1.36,2.88,2.17,2.17,0,0,1-1.85.75,2.72,2.72,0,0,1-1.92-.8,2.42,2.42,0,0,1-.84-1.8,4.08,4.08,0,0,1,.2-1.21c.13-.41.34-1,.64-1.73l7.29-18.5c.2-.53.45-1.17.74-1.92a10.22,10.22,0,0,1,.94-1.85,3.85,3.85,0,0,1,1.3-1.2,4,4,0,0,1,2-.45,4.09,4.09,0,0,1,2,.45,3.9,3.9,0,0,1,1.3,1.18,7.91,7.91,0,0,1,.84,1.54c.23.56.52,1.29.87,2.21l7.44,18.39a9.25,9.25,0,0,1,.87,3,2.51,2.51,0,0,1-.82,1.81,2.69,2.69,0,0,1-2,.83,2.6,2.6,0,0,1-1.17-.24,2.39,2.39,0,0,1-.82-.66,6.48,6.48,0,0,1-.71-1.29C229.36,56.75,229.14,56.24,229,55.8Zm-11.42-7.91h8.51l-4.3-11.76Z"/><path class="cls-5" d="M229,55.8l.53-.2-1.5-4H215.62l-1.49,4a12.22,12.22,0,0,1-1.29,2.74,1.15,1.15,0,0,1-.5.38,2.4,2.4,0,0,1-.89.14,2.09,2.09,0,0,1-1.53-.64,1.86,1.86,0,0,1-.66-1.39,3.32,3.32,0,0,1,.17-1h0c.12-.39.33-1,.62-1.69l7.29-18.5h0c.2-.53.45-1.17.74-1.92A9,9,0,0,1,219,32a3.12,3.12,0,0,1,1.11-1,3.36,3.36,0,0,1,1.71-.38A3.23,3.23,0,0,1,224.64,32a8.28,8.28,0,0,1,.77,1.44c.23.54.52,1.28.86,2.19h0L233.72,54h0a9.12,9.12,0,0,1,.84,2.84,2,2,0,0,1-.66,1.41,2.31,2.31,0,0,1-2.51.48,1.81,1.81,0,0,1-.62-.51h0a5,5,0,0,1-.63-1.15h0c-.25-.58-.46-1.08-.64-1.52l-.53.22.53-.2-.53.2-.52.21c.18.45.4,1,.65,1.54h0a7.08,7.08,0,0,0,.79,1.41h0a3.06,3.06,0,0,0,1,.82,3.19,3.19,0,0,0,1.43.3,3.3,3.3,0,0,0,2.39-1,3.1,3.1,0,0,0,1-2.22,9.48,9.48,0,0,0-.92-3.27l-.52.22.53-.22-7.45-18.38-.52.21.53-.2q-.53-1.38-.87-2.22a8.76,8.76,0,0,0-.9-1.65A4.3,4.3,0,0,0,224.08,30a4.51,4.51,0,0,0-2.29-.53,4.59,4.59,0,0,0-2.27.53A4.27,4.27,0,0,0,218,31.38a9.51,9.51,0,0,0-1,2c-.3.74-.55,1.38-.75,1.91h0L209,53.76h0c-.3.75-.52,1.33-.66,1.77h0a4.73,4.73,0,0,0-.22,1.38,3,3,0,0,0,1,2.21,3.3,3.3,0,0,0,2.31,1,3.52,3.52,0,0,0,1.32-.23,2.27,2.27,0,0,0,1-.75,12.66,12.66,0,0,0,1.44-3l1.22-3.28h10.8L228.43,56h0Zm-11.42-7.91v.57h9.32l-5.11-14-5,14h.81v-.57l.53.19,3.69-10.28,3.48,9.52h-7.7v.57l.53.19Z"/><path class="cls-5" d="M242.93,30.53h7.52a19.93,19.93,0,0,1,5,.55,9.19,9.19,0,0,1,3.81,2q4.45,3.81,4.45,11.58a23.44,23.44,0,0,1-.44,4.69,13.88,13.88,0,0,1-1.38,3.81,11.94,11.94,0,0,1-2.4,3A10.22,10.22,0,0,1,257,57.9a11.71,11.71,0,0,1-2.93.87,22.1,22.1,0,0,1-3.53.25H243a4.68,4.68,0,0,1-2.37-.47,2.27,2.27,0,0,1-1-1.34,8.68,8.68,0,0,1-.24-2.25V34.07a3.7,3.7,0,0,1,.84-2.7A3.67,3.67,0,0,1,242.93,30.53Zm2.23,4.57V54.44h4.38c1,0,1.71,0,2.25-.08a6.85,6.85,0,0,0,1.69-.39A4.83,4.83,0,0,0,255,53.1q2.89-2.46,2.89-8.44c0-2.81-.42-4.92-1.27-6.31a5.73,5.73,0,0,0-3.14-2.68A15.57,15.57,0,0,0,249,35.1Z"/><path class="cls-5" d="M242.93,30.53v.57h7.52a19.59,19.59,0,0,1,4.89.53,8.63,8.63,0,0,1,3.58,1.92h0c2.81,2.41,4.25,6.07,4.25,11.15a22.12,22.12,0,0,1-.43,4.57,13.44,13.44,0,0,1-1.32,3.66,11.55,11.55,0,0,1-2.28,2.9l.38.42-.38-.43a9.3,9.3,0,0,1-2.36,1.56,10.82,10.82,0,0,1-2.78.83,21.91,21.91,0,0,1-3.44.25H243a4.12,4.12,0,0,1-2.07-.4,1.62,1.62,0,0,1-.79-1A8.07,8.07,0,0,1,240,55V34.07a3.14,3.14,0,0,1,.67-2.3,3.17,3.17,0,0,1,2.3-.67V30a4.32,4.32,0,0,0-3.11,1,4.23,4.23,0,0,0-1,3.1V55a8.67,8.67,0,0,0,.27,2.4A2.79,2.79,0,0,0,240.38,59a5.21,5.21,0,0,0,2.66.55h7.52a22.14,22.14,0,0,0,3.62-.26,11.51,11.51,0,0,0,3.07-.92,10.21,10.21,0,0,0,2.65-1.74h0a12.38,12.38,0,0,0,2.5-3.18,14.26,14.26,0,0,0,1.44-4,23.14,23.14,0,0,0,.46-4.8c0-5.28-1.53-9.35-4.65-12l-.37.43.38-.43a9.79,9.79,0,0,0-4.05-2.16,20.67,20.67,0,0,0-5.17-.57h-7.52Zm2.23,4.57h-.57V55h4.95c1,0,1.73,0,2.3-.08a7.78,7.78,0,0,0,1.83-.42,5.14,5.14,0,0,0,1.7-1L255,53.1l.36.43A7.94,7.94,0,0,0,257.71,50a16.66,16.66,0,0,0,.75-5.29,13,13,0,0,0-1.35-6.61,6.27,6.27,0,0,0-3.46-2.92,16.22,16.22,0,0,0-4.68-.6h-4.38v.57h.57v.57H249a14.94,14.94,0,0,1,4.34.55,5,5,0,0,1,2.82,2.42,11.78,11.78,0,0,1,1.19,6,15.19,15.19,0,0,1-.69,4.92,6.78,6.78,0,0,1-2,3.08h0a4,4,0,0,1-1.33.77,6.24,6.24,0,0,1-1.55.35c-.52.05-1.26.08-2.2.08h-3.81V35.1h-.57v0Z"/><path class="cls-5" d="M287.58,35h-13v7h12a2.86,2.86,0,0,1,2,.59,2,2,0,0,1,.65,1.57,2.07,2.07,0,0,1-.64,1.58,2.78,2.78,0,0,1-2,.61h-12v8.11H288a3,3,0,0,1,2.05.63,2.16,2.16,0,0,1,.69,1.68,2.12,2.12,0,0,1-.69,1.64A3,3,0,0,1,288,59H272.34a3.7,3.7,0,0,1-2.71-.83,3.74,3.74,0,0,1-.83-2.7V34.07a4.88,4.88,0,0,1,.37-2,2.32,2.32,0,0,1,1.16-1.15,4.89,4.89,0,0,1,2-.36h15.24a3,3,0,0,1,2.05.62,2,2,0,0,1,.67,1.6,2.08,2.08,0,0,1-.67,1.62A3,3,0,0,1,287.58,35Z"/><path class="cls-5" d="M287.58,35v-.56H274v8.13h12.54a2.32,2.32,0,0,1,1.59.44,1.44,1.44,0,0,1,.46,1.15,1.51,1.51,0,0,1-.46,1.17,2.24,2.24,0,0,1-1.59.46H274V55h14a2.38,2.38,0,0,1,1.66.48,1.6,1.6,0,0,1,.51,1.26,1.55,1.55,0,0,1-.51,1.22,2.37,2.37,0,0,1-1.66.49H272.34a3.14,3.14,0,0,1-2.3-.67,3.19,3.19,0,0,1-.67-2.3V34.07a4.24,4.24,0,0,1,.32-1.79,1.74,1.74,0,0,1,.88-.87,4.36,4.36,0,0,1,1.77-.31h15.24a2.41,2.41,0,0,1,1.67.47,1.5,1.5,0,0,1,.48,1.18,1.53,1.53,0,0,1-.48,1.2,2.46,2.46,0,0,1-1.67.47v1.13a3.51,3.51,0,0,0,2.43-.76,2.65,2.65,0,0,0,.86-2,2.6,2.6,0,0,0-.86-2,3.47,3.47,0,0,0-2.43-.77H272.34a5.51,5.51,0,0,0-2.25.42,2.83,2.83,0,0,0-1.43,1.42,5.26,5.26,0,0,0-.42,2.27V55.49a3.56,3.56,0,0,0,4.1,4.1H288a3.5,3.5,0,0,0,2.43-.78,2.72,2.72,0,0,0,.88-2.06,2.79,2.79,0,0,0-.88-2.1,3.5,3.5,0,0,0-2.43-.78H275.15v-7h11.4a3.33,3.33,0,0,0,2.37-.77,2.62,2.62,0,0,0,.82-2,2.59,2.59,0,0,0-.84-2,3.37,3.37,0,0,0-2.35-.74h-11.4V35.55h12.43Z"/><path class="cls-5" d="M303.11,46.84h-2V56a3.82,3.82,0,0,1-.8,2.67,3,3,0,0,1-4.22,0,4,4,0,0,1-.76-2.63V34.07a3.7,3.7,0,0,1,.84-2.7,3.7,3.7,0,0,1,2.7-.84h9.39a28.44,28.44,0,0,1,3.32.17,8.28,8.28,0,0,1,2.49.67A7.17,7.17,0,0,1,316.42,33,7.06,7.06,0,0,1,318,35.42a8.3,8.3,0,0,1,.53,2.95,7.11,7.11,0,0,1-1.8,5.09,10.3,10.3,0,0,1-5.45,2.7,10.55,10.55,0,0,1,2.94,2.41,26.43,26.43,0,0,1,4.2,6.64,6.42,6.42,0,0,1,.62,2,2.06,2.06,0,0,1-.36,1.12,2.54,2.54,0,0,1-1,.87,3.11,3.11,0,0,1-1.43.32,2.78,2.78,0,0,1-1.64-.46,4.27,4.27,0,0,1-1.13-1.15c-.32-.47-.75-1.16-1.3-2.06L309.87,52a21.85,21.85,0,0,0-2.22-3.23,5.45,5.45,0,0,0-2-1.51A6.65,6.65,0,0,0,303.11,46.84Zm3.3-12h-5.32V42.7h5.17a14.54,14.54,0,0,0,3.5-.36,4.15,4.15,0,0,0,2.16-1.22,3.55,3.55,0,0,0,.75-2.39,3.62,3.62,0,0,0-2.27-3.44A12.31,12.31,0,0,0,306.41,34.87Z"/><path class="cls-5" d="M303.11,46.84v-.57h-2.59V56a3.24,3.24,0,0,1-.65,2.28,2.11,2.11,0,0,1-1.66.67,2.06,2.06,0,0,1-1.7-.69,3.39,3.39,0,0,1-.63-2.26V34.07a3.19,3.19,0,0,1,.67-2.3,3.21,3.21,0,0,1,2.3-.67h9.39a29.63,29.63,0,0,1,3.26.16,7.9,7.9,0,0,1,2.31.63h0a6.63,6.63,0,0,1,3.63,3.74h0a7.62,7.62,0,0,1,.49,2.75,6.56,6.56,0,0,1-1.64,4.7,9.77,9.77,0,0,1-5.16,2.53l-1.51.33,1.36.73a10,10,0,0,1,2.78,2.28,24.64,24.64,0,0,1,2.44,3.32,24.27,24.27,0,0,1,1.67,3.17,11.89,11.89,0,0,1,.44,1.16,3,3,0,0,1,.13.61,1.5,1.5,0,0,1-.27.81h0a2,2,0,0,1-.77.67,2.44,2.44,0,0,1-1.17.26,2.29,2.29,0,0,1-1.31-.35,4,4,0,0,1-1-1c-.31-.45-.74-1.13-1.28-2l-2.31-3.84h0a21,21,0,0,0-2.29-3.31,6,6,0,0,0-2.2-1.67,7.39,7.39,0,0,0-2.76-.45v1.14a6.43,6.43,0,0,1,2.33.36,5,5,0,0,1,1.78,1.37,20,20,0,0,1,2.16,3.14h0l2.32,3.85c.54.91,1,1.6,1.31,2.09a4.8,4.8,0,0,0,1.28,1.3,3.39,3.39,0,0,0,2,.56,3.72,3.72,0,0,0,1.7-.38,3.16,3.16,0,0,0,1.19-1.07h0a2.49,2.49,0,0,0,.45-1.42,3.18,3.18,0,0,0-.17-.94c-.11-.36-.27-.78-.48-1.28a27.26,27.26,0,0,0-1.75-3.32,25.22,25.22,0,0,0-2.56-3.47,11.18,11.18,0,0,0-3.09-2.53l-.27.5.12.55a10.86,10.86,0,0,0,5.75-2.86,7.73,7.73,0,0,0,1.95-5.48,8.71,8.71,0,0,0-.57-3.15h0a7.8,7.8,0,0,0-1.69-2.64,8,8,0,0,0-2.56-1.74l-.22.53.24-.52a9.21,9.21,0,0,0-2.66-.72,29.87,29.87,0,0,0-3.39-.17h-9.39a4.3,4.3,0,0,0-3.1,1,4.23,4.23,0,0,0-1,3.1V56a4.48,4.48,0,0,0,.89,3,3.19,3.19,0,0,0,2.57,1.1,3.29,3.29,0,0,0,2.5-1,4.39,4.39,0,0,0,1-3V47.41h1.45Zm3.3-12V34.3h-5.89v9h5.74a14.65,14.65,0,0,0,3.63-.38,4.68,4.68,0,0,0,2.46-1.4,4.13,4.13,0,0,0,.89-2.76,4.25,4.25,0,0,0-.7-2.4,4.16,4.16,0,0,0-1.92-1.56h0a5.88,5.88,0,0,0-1.66-.36,23.11,23.11,0,0,0-2.55-.11v1.14a22.92,22.92,0,0,1,2.42.1,5.16,5.16,0,0,1,1.35.28h0A3.1,3.1,0,0,1,311.6,37a3.14,3.14,0,0,1,.5,1.77,2.91,2.91,0,0,1-.61,2,3.51,3.51,0,0,1-1.87,1,14.25,14.25,0,0,1-3.36.34h-4.6V35.44h4.75Z"/><path class="cls-6" d="M157.28,67.48h2.39a6.7,6.7,0,0,1,1.6.17,3,3,0,0,1,1.22.65A4.61,4.61,0,0,1,163.9,72a7.62,7.62,0,0,1-.14,1.49,4.45,4.45,0,0,1-.44,1.21,3.75,3.75,0,0,1-.76,1,3.27,3.27,0,0,1-.8.53,3.57,3.57,0,0,1-.93.27,6.41,6.41,0,0,1-1.12.08h-2.4a1.5,1.5,0,0,1-.75-.15.69.69,0,0,1-.33-.42,2.86,2.86,0,0,1-.08-.72V68.6a1.18,1.18,0,0,1,.27-.86A1.19,1.19,0,0,1,157.28,67.48Zm.71,1.45v6.16h1.39a6.7,6.7,0,0,0,.72,0,2.94,2.94,0,0,0,.54-.12,1.64,1.64,0,0,0,.48-.28A3.39,3.39,0,0,0,162,72a4,4,0,0,0-.41-2,1.86,1.86,0,0,0-1-.85,5.05,5.05,0,0,0-1.44-.18Z"/><path class="cls-6" d="M157.28,67.48v.18h2.39a6.35,6.35,0,0,1,1.56.17,2.76,2.76,0,0,1,1.14.61h0A4.4,4.4,0,0,1,163.72,72a7.21,7.21,0,0,1-.14,1.45,4.27,4.27,0,0,1-.42,1.17,3.76,3.76,0,0,1-.72.92l.12.13-.12-.13a3,3,0,0,1-.75.49,3.68,3.68,0,0,1-.89.27,7.13,7.13,0,0,1-1.09.07h-2.4a1.45,1.45,0,0,1-.66-.12.53.53,0,0,1-.25-.32,2.86,2.86,0,0,1-.07-.67V68.6a1,1,0,0,1,.22-.73,1,1,0,0,1,.73-.21V67.3a1.35,1.35,0,0,0-1,.32,1.31,1.31,0,0,0-.32,1v6.65a3.31,3.31,0,0,0,.08.77.92.92,0,0,0,.42.53,1.69,1.69,0,0,0,.84.18h2.4a6.71,6.71,0,0,0,1.15-.09,3.58,3.58,0,0,0,1-.29,3.47,3.47,0,0,0,.84-.55h0a3.92,3.92,0,0,0,.8-1,4.56,4.56,0,0,0,.46-1.27,7.94,7.94,0,0,0,.14-1.52,4.77,4.77,0,0,0-1.48-3.83h0a3.12,3.12,0,0,0-1.28-.68,6.72,6.72,0,0,0-1.65-.18h-2.39Zm.71,1.45h-.18v6.34h1.57a7.26,7.26,0,0,0,.74,0,2.66,2.66,0,0,0,.58-.13,1.84,1.84,0,0,0,.54-.32l-.12-.13.12.14a3.55,3.55,0,0,0,1-2.83,4.06,4.06,0,0,0-.43-2.1,2,2,0,0,0-1.1-.93,5.09,5.09,0,0,0-1.49-.19h-1.39v.18H158v.18h1.21a4.53,4.53,0,0,1,1.38.18,1.6,1.6,0,0,1,.9.77,3.83,3.83,0,0,1,.38,1.91,3.17,3.17,0,0,1-.86,2.55h0a1.27,1.27,0,0,1-.42.25,2,2,0,0,1-.5.11,6.67,6.67,0,0,1-.7,0h-1.21v-6H158v0Z"/><path class="cls-6" d="M167,75.58V68.44a1.22,1.22,0,0,1,.26-.84.92.92,0,0,1,1.32,0,1.19,1.19,0,0,1,.26.84v7.14a1.21,1.21,0,0,1-.26.84.85.85,0,0,1-.67.28.83.83,0,0,1-.65-.28A1.22,1.22,0,0,1,167,75.58Z"/><path class="cls-6" d="M167,75.58h.18V68.44a1,1,0,0,1,.21-.72.73.73,0,0,1,.52-.22.74.74,0,0,1,.54.22,1,1,0,0,1,.21.72v7.14a1,1,0,0,1-.21.72.67.67,0,0,1-.54.22.66.66,0,0,1-.52-.22,1,1,0,0,1-.21-.72h-.36a1.34,1.34,0,0,0,.31,1,1,1,0,0,0,.78.34,1.06,1.06,0,0,0,.81-.34,1.38,1.38,0,0,0,.3-1V68.44a1.43,1.43,0,0,0-.3-1,1.09,1.09,0,0,0-.81-.33,1,1,0,0,0-.79.34,1.38,1.38,0,0,0-.3,1v7.14Z"/><path class="cls-6" d="M179.14,73.82a2.69,2.69,0,0,1-.42,1.48,2.83,2.83,0,0,1-1.24,1,4.6,4.6,0,0,1-1.94.37,4.33,4.33,0,0,1-2.21-.51,3,3,0,0,1-1-1,2.28,2.28,0,0,1-.38-1.19.81.81,0,0,1,.23-.57.78.78,0,0,1,.59-.24.67.67,0,0,1,.49.19,1.45,1.45,0,0,1,.35.55,3.43,3.43,0,0,0,.37.72,1.36,1.36,0,0,0,.57.48,2,2,0,0,0,1,.19,2.18,2.18,0,0,0,1.33-.38,1.14,1.14,0,0,0,.51-1,1,1,0,0,0-.27-.73,1.78,1.78,0,0,0-.72-.43,10.93,10.93,0,0,0-1.16-.32,8.79,8.79,0,0,1-1.64-.53,2.63,2.63,0,0,1-1-.84,2.14,2.14,0,0,1-.39-1.31,2.28,2.28,0,0,1,.41-1.33,2.51,2.51,0,0,1,1.18-.89,4.81,4.81,0,0,1,1.82-.32,4.38,4.38,0,0,1,1.44.21,2.94,2.94,0,0,1,1,.55,2.26,2.26,0,0,1,.59.72,1.6,1.6,0,0,1,.19.74.89.89,0,0,1-.23.59.77.77,0,0,1-.58.26.65.65,0,0,1-.48-.16,2,2,0,0,1-.36-.51,2.2,2.2,0,0,0-.59-.8,1.68,1.68,0,0,0-1.11-.29,1.91,1.91,0,0,0-1.15.31.92.92,0,0,0-.44.75.75.75,0,0,0,.15.47,1.27,1.27,0,0,0,.41.34,2.31,2.31,0,0,0,.52.22c.18.06.47.14.88.24a12.33,12.33,0,0,1,1.39.4,4.19,4.19,0,0,1,1.06.52,2.21,2.21,0,0,1,.68.78A2.58,2.58,0,0,1,179.14,73.82Z"/><path class="cls-6" d="M179.14,73.82H179a2.48,2.48,0,0,1-.39,1.38,2.56,2.56,0,0,1-1.17,1,4.35,4.35,0,0,1-1.86.36,4.26,4.26,0,0,1-2.12-.48h0a2.76,2.76,0,0,1-.94-.92,2,2,0,0,1-.36-1.09.63.63,0,0,1,.64-.63.56.56,0,0,1,.37.14,1.32,1.32,0,0,1,.3.48h0a4.47,4.47,0,0,0,.39.76,1.64,1.64,0,0,0,.63.53,2.19,2.19,0,0,0,1,.21,2.36,2.36,0,0,0,1.44-.41,1.31,1.31,0,0,0,.58-1.1,1.22,1.22,0,0,0-.32-.86,1.89,1.89,0,0,0-.79-.47c-.3-.1-.69-.21-1.18-.32h0a8.08,8.08,0,0,1-1.6-.53,2.46,2.46,0,0,1-1-.77,2,2,0,0,1-.35-1.21,2.09,2.09,0,0,1,.38-1.23,2.44,2.44,0,0,1,1.1-.83,4.81,4.81,0,0,1,1.75-.3,4.28,4.28,0,0,1,1.38.2,2.92,2.92,0,0,1,1,.52,2.12,2.12,0,0,1,.54.66,1.54,1.54,0,0,1,.17.66.69.69,0,0,1-.19.47.55.55,0,0,1-.44.2.48.48,0,0,1-.36-.11,2,2,0,0,1-.32-.47l-.16.09.17-.08a2.53,2.53,0,0,0-.65-.86,1.83,1.83,0,0,0-1.22-.33,2.17,2.17,0,0,0-1.26.34,1.12,1.12,0,0,0-.51.9.9.9,0,0,0,.19.58h0a1.26,1.26,0,0,0,.46.39,3.37,3.37,0,0,0,.56.24l.89.24h0a10.26,10.26,0,0,1,1.37.39,3.81,3.81,0,0,1,1,.5,2,2,0,0,1,.63.72,2.39,2.39,0,0,1,.22,1.07h.36a2.67,2.67,0,0,0-.26-1.24,2.41,2.41,0,0,0-.74-.85,4.52,4.52,0,0,0-1.1-.55c-.42-.14-.89-.28-1.41-.4l0,.18,0-.18-.87-.23a2.33,2.33,0,0,1-.49-.21,1.07,1.07,0,0,1-.36-.29h0a.54.54,0,0,1-.12-.36.76.76,0,0,1,.36-.6,1.79,1.79,0,0,1,1.05-.28,1.54,1.54,0,0,1,1,.24,2.25,2.25,0,0,1,.55.75h0a2.55,2.55,0,0,0,.39.56.86.86,0,0,0,.61.21.93.93,0,0,0,.71-.32,1.06,1.06,0,0,0,.28-.71,1.9,1.9,0,0,0-.2-.82,2.56,2.56,0,0,0-.64-.78,3.32,3.32,0,0,0-1.07-.58,4.56,4.56,0,0,0-1.5-.22,5,5,0,0,0-1.89.33,2.8,2.8,0,0,0-1.26,1,2.45,2.45,0,0,0-.44,1.43,2.38,2.38,0,0,0,.42,1.42,2.76,2.76,0,0,0,1.12.89,9.07,9.07,0,0,0,1.67.55h0a11.73,11.73,0,0,1,1.15.31,1.6,1.6,0,0,1,.64.38.88.88,0,0,1,.22.61,1,1,0,0,1-.44.81,2,2,0,0,1-1.22.34,1.89,1.89,0,0,1-.87-.17,1.24,1.24,0,0,1-.5-.42,3.65,3.65,0,0,1-.36-.69h0a1.5,1.5,0,0,0-.39-.61.85.85,0,0,0-.61-.24,1,1,0,0,0-1,1,2.42,2.42,0,0,0,.41,1.29,3.2,3.2,0,0,0,1.07,1h0a4.52,4.52,0,0,0,2.3.53,4.81,4.81,0,0,0,2-.39,2.93,2.93,0,0,0,1.32-1.09,2.8,2.8,0,0,0,.45-1.58Z"/><path class="cls-6" d="M185.61,73h-1.68v2.57a1.18,1.18,0,0,1-.26.83.88.88,0,0,1-.66.29.85.85,0,0,1-.67-.28,1.21,1.21,0,0,1-.25-.83v-7a1.11,1.11,0,0,1,.28-.86,1.22,1.22,0,0,1,.88-.26h2.36a6.09,6.09,0,0,1,1.61.16,2.34,2.34,0,0,1,1,.51,2.29,2.29,0,0,1,.61.88A3.13,3.13,0,0,1,189,70.2a2.59,2.59,0,0,1-.85,2.1A3.92,3.92,0,0,1,185.61,73Zm-.45-4.15h-1.23v2.77h1.23a3.7,3.7,0,0,0,1.09-.14,1.27,1.27,0,0,0,.66-.44,1.3,1.3,0,0,0,.23-.81,1.4,1.4,0,0,0-.35-1A2.35,2.35,0,0,0,185.16,68.86Z"/><path class="cls-6" d="M185.61,73v-.18h-1.87v2.75a1,1,0,0,1-.21.71.72.72,0,0,1-1.05,0,1,1,0,0,1-.21-.71v-7a1,1,0,0,1,.22-.73,1.09,1.09,0,0,1,.76-.21h2.36a6.07,6.07,0,0,1,1.56.15h0a2.25,2.25,0,0,1,.89.48,2.13,2.13,0,0,1,.57.81,2.92,2.92,0,0,1,.19,1.1,2.37,2.37,0,0,1-.79,2,3.68,3.68,0,0,1-2.42.67v.36a4.09,4.09,0,0,0,2.66-.75,2.8,2.8,0,0,0,.92-2.24A3.3,3.3,0,0,0,189,69a2.43,2.43,0,0,0-.66-.94,2.59,2.59,0,0,0-1-.56h0a6.62,6.62,0,0,0-1.66-.16h-2.36a1.49,1.49,0,0,0-1,.3,1.32,1.32,0,0,0-.33,1v7a1.37,1.37,0,0,0,.3,1,1,1,0,0,0,.8.34,1,1,0,0,0,.79-.34,1.42,1.42,0,0,0,.31-1V73.19h1.5Zm-.45-4.15v-.18h-1.42v3.13h1.42a3.75,3.75,0,0,0,1.14-.15,1.42,1.42,0,0,0,.76-.51,1.72,1.72,0,0,0-.14-2h0a2.5,2.5,0,0,0-1.76-.45V69a2.14,2.14,0,0,1,1.5.35l.13-.13-.13.12a1.2,1.2,0,0,1,.3.86,1.19,1.19,0,0,1-.19.7,1.09,1.09,0,0,1-.57.38,3.72,3.72,0,0,1-1,.13h-1V69h1Z"/><path class="cls-6" d="M193.73,68.44V75h3.72a1,1,0,0,1,.68.21.72.72,0,0,1,.24.55.71.71,0,0,1-.23.54,1,1,0,0,1-.69.2H193a1.17,1.17,0,0,1-.86-.26,1.23,1.23,0,0,1-.26-.86v-7a1.22,1.22,0,0,1,.25-.84.87.87,0,0,1,.66-.28.86.86,0,0,1,.67.28A1.19,1.19,0,0,1,193.73,68.44Z"/><path class="cls-6" d="M193.73,68.44h-.19v6.78h3.91a.76.76,0,0,1,.56.17.56.56,0,0,1,0,.81.84.84,0,0,1-.57.16H193a.78.78,0,0,1-.94-.94v-7a1.09,1.09,0,0,1,.2-.72.76.76,0,0,1,1.07,0,1.09,1.09,0,0,1,.2.72h.37a1.38,1.38,0,0,0-.31-1,1.06,1.06,0,0,0-.8-.33,1,1,0,0,0-.79.34,1.38,1.38,0,0,0-.3,1v7a1.13,1.13,0,0,0,1.3,1.31h4.44a1.2,1.2,0,0,0,.81-.26.88.88,0,0,0,.29-.67.87.87,0,0,0-.3-.68,1.13,1.13,0,0,0-.8-.27h-3.54V68.44Z"/><path class="cls-6" d="M206.77,75.52l-.44-1.14h-3.68l-.43,1.16a3.94,3.94,0,0,1-.44.92.68.68,0,0,1-.59.24.9.9,0,0,1-.61-.25.78.78,0,0,1-.26-.58,1.31,1.31,0,0,1,.06-.38c0-.13.11-.32.2-.55l2.32-5.89c.07-.17.15-.37.24-.61a2.7,2.7,0,0,1,.3-.59,1.15,1.15,0,0,1,.41-.38,1.22,1.22,0,0,1,.63-.15,1.3,1.3,0,0,1,.65.15,1.33,1.33,0,0,1,.41.37,2.87,2.87,0,0,1,.26.49c.08.18.17.41.28.71l2.37,5.85a3.08,3.08,0,0,1,.28,1,.83.83,0,0,1-.26.58.9.9,0,0,1-.64.26.84.84,0,0,1-.37-.08.75.75,0,0,1-.26-.21A1.8,1.8,0,0,1,207,76C206.89,75.82,206.82,75.66,206.77,75.52ZM203.13,73h2.71l-1.37-3.74Z"/><path class="cls-6" d="M206.77,75.52l.17-.07-.48-1.25h-3.94l-.47,1.28a4.22,4.22,0,0,1-.41.87.53.53,0,0,1-.45.17.64.64,0,0,1-.48-.21.57.57,0,0,1-.21-.44,1,1,0,0,1,.05-.33h0c0-.12.11-.3.2-.54h0l2.32-5.89h0c.07-.16.15-.37.24-.6a2.64,2.64,0,0,1,.28-.56,1,1,0,0,1,.35-.32,1.08,1.08,0,0,1,.54-.13,1.1,1.1,0,0,1,.56.13,1,1,0,0,1,.35.32,2.46,2.46,0,0,1,.25.45l.27.7h0L208.28,75h0a2.73,2.73,0,0,1,.27.9.61.61,0,0,1-.21.45.69.69,0,0,1-.51.21.6.6,0,0,1-.29-.06h0l-.2-.16a2.19,2.19,0,0,1-.2-.37h0l-.21-.48-.16.07.17-.07-.17.07-.17.07.21.49h0a1.76,1.76,0,0,0,.25.44.82.82,0,0,0,.32.26h0a1,1,0,0,0,.45.1,1,1,0,0,0,.76-.32,1,1,0,0,0,.32-.7,3.12,3.12,0,0,0-.29-1l-.17.07.17-.07L206.25,69l-.17.07.17-.07c-.11-.29-.2-.53-.28-.7a2.43,2.43,0,0,0-.28-.53,1.33,1.33,0,0,0-.48-.43,1.44,1.44,0,0,0-1.92.44,3.25,3.25,0,0,0-.32.62c-.09.24-.17.44-.24.61h0l-2.32,5.89h0c-.09.24-.16.42-.2.56h0a1.41,1.41,0,0,0-.08.44,1,1,0,0,0,.33.71,1.06,1.06,0,0,0,.73.3.88.88,0,0,0,.74-.31,4.16,4.16,0,0,0,.45-1l.39-1h3.44l.39,1h0ZM203.13,73v.18h3l-1.63-4.45-1.6,4.45h.26V73l.17.06,1.17-3.27,1.11,3h-2.45V73l.17.06Z"/><path class="cls-6" d="M213.48,75.58V72.7l-2.21-3.43a6.81,6.81,0,0,1-.42-.72,1.16,1.16,0,0,1-.12-.45.75.75,0,0,1,.25-.55.85.85,0,0,1,.6-.23.71.71,0,0,1,.57.22,5.79,5.79,0,0,1,.59.85l1.69,2.75,1.72-2.75.26-.43a1.86,1.86,0,0,1,.23-.32.9.9,0,0,1,.28-.24.86.86,0,0,1,.38-.08.78.78,0,0,1,.57.23.69.69,0,0,1,.24.52,1.07,1.07,0,0,1-.12.48,6,6,0,0,1-.4.67l-2.27,3.48v2.88a1.21,1.21,0,0,1-.26.84.87.87,0,0,1-.66.28.85.85,0,0,1-.67-.28A1.19,1.19,0,0,1,213.48,75.58Z"/><path class="cls-6" d="M213.48,75.58h.18V72.65l-2.24-3.48-.15.1.15-.09a7,7,0,0,1-.4-.71,1.09,1.09,0,0,1-.11-.37.59.59,0,0,1,.19-.42.71.71,0,0,1,.48-.18.58.58,0,0,1,.44.16,5.77,5.77,0,0,1,.56.82l1.85,3,1.87-3h0l.26-.43.22-.3h0l.22-.19a.75.75,0,0,1,.3-.06.63.63,0,0,1,.45.18.57.57,0,0,1,.18.39,1,1,0,0,1-.1.4c-.08.15-.21.37-.39.65h0l-2.29,3.53v2.93a1,1,0,0,1-.22.72.66.66,0,0,1-.52.22.64.64,0,0,1-.53-.22,1,1,0,0,1-.21-.72h-.36a1.43,1.43,0,0,0,.3,1,1,1,0,0,0,.8.33,1,1,0,0,0,.79-.34,1.34,1.34,0,0,0,.31-1V72.76l2.24-3.44-.15-.1.15.1a5.49,5.49,0,0,0,.41-.69,1.25,1.25,0,0,0,.14-.56.91.91,0,0,0-.29-.65,1,1,0,0,0-.7-.28,1,1,0,0,0-.46.1,1.13,1.13,0,0,0-.34.28h0a3.12,3.12,0,0,0-.25.35l-.26.42h0l-1.56,2.51-1.54-2.51a7.68,7.68,0,0,0-.6-.88,1,1,0,0,0-.71-.27,1.07,1.07,0,0,0-.73.28.93.93,0,0,0-.3.68,1.19,1.19,0,0,0,.14.52c.09.19.23.43.42.75h0l2.19,3.39v2.82Z"/><path class="cls-6" d="M233.05,73.68a2.32,2.32,0,0,1-.22.94,3.4,3.4,0,0,1-.67,1,3.49,3.49,0,0,1-1.17.79,4.19,4.19,0,0,1-1.65.3,5.85,5.85,0,0,1-1.31-.14,3.56,3.56,0,0,1-1.06-.42,3.5,3.5,0,0,1-.89-.76,4.41,4.41,0,0,1-.61-.95,4.85,4.85,0,0,1-.38-1.13A6.53,6.53,0,0,1,225,72a5.71,5.71,0,0,1,.32-2,4.44,4.44,0,0,1,.91-1.48,4.06,4.06,0,0,1,1.4-.94,4.59,4.59,0,0,1,1.7-.32,4.31,4.31,0,0,1,2,.44,3.61,3.61,0,0,1,1.32,1.09,2.17,2.17,0,0,1,.45,1.22.81.81,0,0,1-.22.56.71.71,0,0,1-.54.24.77.77,0,0,1-.53-.17,2.57,2.57,0,0,1-.39-.58,2.83,2.83,0,0,0-.84-1,2,2,0,0,0-1.2-.34,2.17,2.17,0,0,0-1.8.86,3.9,3.9,0,0,0-.67,2.45,4.53,4.53,0,0,0,.29,1.76,2.26,2.26,0,0,0,.84,1,2.36,2.36,0,0,0,1.28.35,2.26,2.26,0,0,0,1.34-.39,2.36,2.36,0,0,0,.82-1.16,2.09,2.09,0,0,1,.29-.58.67.67,0,0,1,.56-.23.77.77,0,0,1,.56.23A.75.75,0,0,1,233.05,73.68Z"/><path class="cls-6" d="M233.05,73.68h-.18a2.35,2.35,0,0,1-.2.87,3.32,3.32,0,0,1-1.75,1.68,4,4,0,0,1-1.58.29,6.12,6.12,0,0,1-1.27-.13,3.35,3.35,0,0,1-1-.41,3.5,3.5,0,0,1-.84-.72l-.14.12.14-.11a4.47,4.47,0,0,1-.95-2,6.14,6.14,0,0,1-.12-1.24,5.51,5.51,0,0,1,.3-1.89,4.14,4.14,0,0,1,.87-1.42,3.87,3.87,0,0,1,1.33-.9,4.47,4.47,0,0,1,1.64-.31,4.07,4.07,0,0,1,1.88.42,3.53,3.53,0,0,1,1.25,1,2,2,0,0,1,.42,1.12.59.59,0,0,1-.17.43.55.55,0,0,1-.41.19.54.54,0,0,1-.4-.12,2.44,2.44,0,0,1-.36-.53,2.93,2.93,0,0,0-.9-1.07,2.23,2.23,0,0,0-1.3-.37,2.39,2.39,0,0,0-2,.93,4.1,4.1,0,0,0-.71,2.56,4.72,4.72,0,0,0,.32,1.83,2.39,2.39,0,0,0,.91,1.13,2.49,2.49,0,0,0,1.37.37,2.38,2.38,0,0,0,1.44-.43,2.48,2.48,0,0,0,.89-1.23h0a2,2,0,0,1,.27-.53c.07-.1.19-.15.41-.16a.65.65,0,0,1,.44.18.59.59,0,0,1,.18.44h.36a1,1,0,0,0-.29-.7,1,1,0,0,0-.69-.28.84.84,0,0,0-.7.3,2,2,0,0,0-.32.64l.17,0-.17-.06a2.17,2.17,0,0,1-.76,1.07,2,2,0,0,1-1.23.36,2.15,2.15,0,0,1-1.18-.32,2,2,0,0,1-.77-1,4.24,4.24,0,0,1-.28-1.68,3.75,3.75,0,0,1,.63-2.34A2,2,0,0,1,229.3,69a1.83,1.83,0,0,1,1.09.31,2.52,2.52,0,0,1,.79.94,2.63,2.63,0,0,0,.43.62,1,1,0,0,0,1.32-.08.93.93,0,0,0,.27-.68,2.33,2.33,0,0,0-.49-1.33,3.66,3.66,0,0,0-1.38-1.14,4.38,4.38,0,0,0-2-.46,4.54,4.54,0,0,0-1.77.34,4.13,4.13,0,0,0-1.46,1,4.39,4.39,0,0,0-.95,1.54,5.86,5.86,0,0,0-.33,2,7,7,0,0,0,.13,1.32,5,5,0,0,0,.4,1.16,4.84,4.84,0,0,0,.63,1h0a3.58,3.58,0,0,0,.92.79,3.81,3.81,0,0,0,1.12.45,6.29,6.29,0,0,0,1.35.14,4.31,4.31,0,0,0,1.73-.32,3.61,3.61,0,0,0,1.23-.83,3.53,3.53,0,0,0,.7-1,2.58,2.58,0,0,0,.23-1Z"/><path class="cls-6" d="M243,73.82a2.69,2.69,0,0,1-.42,1.48,2.83,2.83,0,0,1-1.24,1,4.63,4.63,0,0,1-1.94.37,4.33,4.33,0,0,1-2.21-.51,3,3,0,0,1-1-1,2.28,2.28,0,0,1-.38-1.19.8.8,0,0,1,.82-.81.67.67,0,0,1,.49.19,1.33,1.33,0,0,1,.34.55,4,4,0,0,0,.38.72,1.39,1.39,0,0,0,.56.48,2.08,2.08,0,0,0,1,.19,2.18,2.18,0,0,0,1.33-.38,1.14,1.14,0,0,0,.51-1,1,1,0,0,0-.28-.73,1.67,1.67,0,0,0-.71-.43,11.65,11.65,0,0,0-1.16-.32,8.79,8.79,0,0,1-1.64-.53,2.57,2.57,0,0,1-1-.84,2.14,2.14,0,0,1-.39-1.31,2.28,2.28,0,0,1,.41-1.33,2.46,2.46,0,0,1,1.18-.89,4.81,4.81,0,0,1,1.82-.32,4.42,4.42,0,0,1,1.44.21,2.94,2.94,0,0,1,1,.55,2.26,2.26,0,0,1,.59.72,1.73,1.73,0,0,1,.19.74.86.86,0,0,1-.24.59.73.73,0,0,1-.57.26.65.65,0,0,1-.48-.16,2,2,0,0,1-.36-.51,2.2,2.2,0,0,0-.59-.8,1.69,1.69,0,0,0-1.12-.29,1.9,1.9,0,0,0-1.14.31.92.92,0,0,0-.44.75.75.75,0,0,0,.15.47,1.17,1.17,0,0,0,.41.34,2.31,2.31,0,0,0,.52.22c.18.06.47.14.88.24a12.33,12.33,0,0,1,1.39.4,4.36,4.36,0,0,1,1.06.52,2.21,2.21,0,0,1,.68.78A2.58,2.58,0,0,1,243,73.82Z"/><path class="cls-6" d="M243,73.82h-.18a2.48,2.48,0,0,1-.39,1.38,2.56,2.56,0,0,1-1.17,1,4.35,4.35,0,0,1-1.86.36,4.26,4.26,0,0,1-2.12-.48h0a2.76,2.76,0,0,1-.94-.92A2,2,0,0,1,236,74a.63.63,0,0,1,.64-.63.56.56,0,0,1,.37.14,1.47,1.47,0,0,1,.3.48h0a4.47,4.47,0,0,0,.39.76,1.64,1.64,0,0,0,.63.53,2.19,2.19,0,0,0,1,.21,2.38,2.38,0,0,0,1.44-.41,1.36,1.36,0,0,0,.58-1.1,1.18,1.18,0,0,0-.33-.86,1.8,1.8,0,0,0-.78-.47c-.3-.1-.69-.21-1.18-.32a8.08,8.08,0,0,1-1.6-.53,2.46,2.46,0,0,1-1-.77,2,2,0,0,1-.35-1.21,2.09,2.09,0,0,1,.38-1.23,2.44,2.44,0,0,1,1.1-.83,4.81,4.81,0,0,1,1.75-.3,4.28,4.28,0,0,1,1.38.2,2.92,2.92,0,0,1,1,.52,2.12,2.12,0,0,1,.54.66,1.54,1.54,0,0,1,.17.66.69.69,0,0,1-.19.47.55.55,0,0,1-.44.2.47.47,0,0,1-.36-.11,2,2,0,0,1-.32-.47l-.16.09.16-.08a2.39,2.39,0,0,0-.64-.86,1.84,1.84,0,0,0-1.23-.33,2.14,2.14,0,0,0-1.25.34,1.12,1.12,0,0,0-.51.9,1,1,0,0,0,.18.58h0a1.38,1.38,0,0,0,.47.39,3,3,0,0,0,.56.24l.89.24h0a10.26,10.26,0,0,1,1.37.39,3.81,3.81,0,0,1,1,.5,2,2,0,0,1,.63.72,2.39,2.39,0,0,1,.22,1.07h.36a2.67,2.67,0,0,0-.26-1.24,2.41,2.41,0,0,0-.74-.85,4.71,4.71,0,0,0-1.1-.55c-.42-.14-.89-.28-1.41-.4l0,.18.05-.18-.87-.23a2.66,2.66,0,0,1-.5-.21,1.13,1.13,0,0,1-.35-.29h0a.59.59,0,0,1-.11-.36.71.71,0,0,1,.36-.6,1.76,1.76,0,0,1,1-.28,1.6,1.6,0,0,1,1,.24,2.25,2.25,0,0,1,.55.75h0a2.55,2.55,0,0,0,.39.56.86.86,0,0,0,.61.21.93.93,0,0,0,.71-.32,1.06,1.06,0,0,0,.28-.71,1.78,1.78,0,0,0-.21-.82,2.38,2.38,0,0,0-.63-.78,3.32,3.32,0,0,0-1.07-.58,4.56,4.56,0,0,0-1.5-.22,5,5,0,0,0-1.89.33,2.75,2.75,0,0,0-1.26,1,2.45,2.45,0,0,0-.44,1.43,2.38,2.38,0,0,0,.42,1.42,2.76,2.76,0,0,0,1.12.89,9.07,9.07,0,0,0,1.67.55,11.73,11.73,0,0,1,1.15.31,1.76,1.76,0,0,1,.64.38A.88.88,0,0,1,241,74a1,1,0,0,1-.44.81,2,2,0,0,1-1.22.34,1.89,1.89,0,0,1-.87-.17,1.24,1.24,0,0,1-.5-.42,3.15,3.15,0,0,1-.36-.69h0a1.5,1.5,0,0,0-.39-.61.85.85,0,0,0-.61-.24,1,1,0,0,0-.72.3.9.9,0,0,0-.28.69,2.42,2.42,0,0,0,.41,1.29,3.2,3.2,0,0,0,1.07,1h0a4.52,4.52,0,0,0,2.3.53,4.81,4.81,0,0,0,2-.39,3,3,0,0,0,1.32-1.09,2.88,2.88,0,0,0,.45-1.58Z"/><path class="cls-6" d="M247.26,68.53l2.05,6.08,2.06-6.12c.11-.33.19-.55.25-.68a1,1,0,0,1,.26-.34.89.89,0,0,1,.94,0,.87.87,0,0,1,.32.31.73.73,0,0,1,.11.4,1.59,1.59,0,0,1,0,.29c0,.1-.06.21-.1.31s-.07.2-.11.31L250.82,75c-.08.22-.16.44-.24.64a2.72,2.72,0,0,1-.27.54,1.25,1.25,0,0,1-.41.38,1.4,1.4,0,0,1-1.26,0,1.07,1.07,0,0,1-.41-.38,2.74,2.74,0,0,1-.28-.54l-.23-.64-2.16-5.88c0-.11-.08-.21-.11-.32a1.59,1.59,0,0,1-.1-.33,1.24,1.24,0,0,1,0-.3.82.82,0,0,1,.25-.58.87.87,0,0,1,.64-.26.74.74,0,0,1,.66.29A4,4,0,0,1,247.26,68.53Z"/><path class="cls-6" d="M247.26,68.53l-.17.06,2.22,6.59,2.24-6.64h0a6.54,6.54,0,0,1,.23-.65h0a.75.75,0,0,1,.22-.27.62.62,0,0,1,.39-.11.59.59,0,0,1,.34.1.64.64,0,0,1,.25.24.55.55,0,0,1,.09.31,1.29,1.29,0,0,1,0,.25,1.61,1.61,0,0,1-.09.29c0,.1-.07.2-.11.31l.17.06-.17-.06-2.19,5.93h0c-.08.22-.16.44-.24.64a2.59,2.59,0,0,1-.25.5,1,1,0,0,1-.35.32,1.08,1.08,0,0,1-.54.13,1.2,1.2,0,0,1-.54-.12,1,1,0,0,1-.35-.33,2.7,2.7,0,0,1-.26-.51c-.08-.2-.15-.41-.23-.63l-2.16-5.88-.17.06.17-.06-.12-.32c0-.09-.06-.2-.09-.31h0a1.58,1.58,0,0,1,0-.26.63.63,0,0,1,.2-.45.7.7,0,0,1,.51-.21.57.57,0,0,1,.51.21,3.76,3.76,0,0,1,.38.87h0l.17-.06.17-.06a3.87,3.87,0,0,0-.42-1,.94.94,0,0,0-.81-.37,1,1,0,0,0-.77.32,1,1,0,0,0-.31.7,1.55,1.55,0,0,0,0,.34h0a1.89,1.89,0,0,0,.11.36c0,.1.07.2.11.31h0l2.16,5.88.17-.06-.17.06.23.64a2.87,2.87,0,0,0,.3.58,1.43,1.43,0,0,0,2.38,0,3,3,0,0,0,.29-.57l.24-.65-.17-.06.17.06,2.19-5.93h0c0-.11.08-.21.11-.31a2.07,2.07,0,0,0,.1-.33,1.39,1.39,0,0,0,.05-.33,1,1,0,0,0-.14-.49,1.25,1.25,0,0,0-.38-.38,1.1,1.1,0,0,0-.53-.14,1,1,0,0,0-.62.19,1,1,0,0,0-.32.41h0c-.06.14-.14.36-.25.69h0L249.31,74l-1.88-5.57-.17.06.17-.06Z"/><path class="cls-6" d="M261.72,67.48h2.39a6.7,6.7,0,0,1,1.6.17,2.92,2.92,0,0,1,1.21.65A4.58,4.58,0,0,1,268.34,72a7.62,7.62,0,0,1-.14,1.49,4.45,4.45,0,0,1-.44,1.21,3.75,3.75,0,0,1-.76,1,3.27,3.27,0,0,1-.8.53,3.57,3.57,0,0,1-.93.27,6.41,6.41,0,0,1-1.12.08h-2.4a1.5,1.5,0,0,1-.75-.15.69.69,0,0,1-.33-.42,2.86,2.86,0,0,1-.08-.72V68.6a1.18,1.18,0,0,1,.27-.86A1.19,1.19,0,0,1,261.72,67.48Zm.71,1.45v6.16h1.39a6.7,6.7,0,0,0,.72,0,2.94,2.94,0,0,0,.54-.12,1.64,1.64,0,0,0,.48-.28,3.39,3.39,0,0,0,.92-2.69,4,4,0,0,0-.41-2,1.86,1.86,0,0,0-1-.85,5.05,5.05,0,0,0-1.44-.18Z"/><path class="cls-6" d="M261.72,67.48v.18h2.39a6.35,6.35,0,0,1,1.56.17,2.76,2.76,0,0,1,1.14.61h0A4.4,4.4,0,0,1,268.16,72a7.21,7.21,0,0,1-.14,1.45,4.27,4.27,0,0,1-.42,1.17,3.76,3.76,0,0,1-.72.92l.12.13-.12-.13a3,3,0,0,1-.75.49,3.68,3.68,0,0,1-.89.27,7.13,7.13,0,0,1-1.09.07h-2.4a1.42,1.42,0,0,1-.66-.12.53.53,0,0,1-.25-.32,2.86,2.86,0,0,1-.07-.67V68.6a1.06,1.06,0,0,1,.21-.73,1,1,0,0,1,.74-.21V67.3a1.35,1.35,0,0,0-1,.32,1.31,1.31,0,0,0-.32,1v6.65a3.31,3.31,0,0,0,.08.77.92.92,0,0,0,.42.53,1.69,1.69,0,0,0,.84.18h2.4a6.79,6.79,0,0,0,1.15-.09,3.58,3.58,0,0,0,1-.29,3.47,3.47,0,0,0,.84-.55h0a3.92,3.92,0,0,0,.8-1,4.56,4.56,0,0,0,.46-1.27,7.94,7.94,0,0,0,.14-1.52A4.77,4.77,0,0,0,267,68.16h0a3.12,3.12,0,0,0-1.28-.68,6.72,6.72,0,0,0-1.65-.18h-2.39Zm.71,1.45h-.18v6.34h1.57a6.91,6.91,0,0,0,.73,0,2.61,2.61,0,0,0,.59-.13,1.84,1.84,0,0,0,.54-.32l-.12-.13.11.14a3.52,3.52,0,0,0,1-2.83,4.06,4.06,0,0,0-.43-2.1,2,2,0,0,0-1.1-.93,5.09,5.09,0,0,0-1.49-.19h-1.39v.18h.18v.18h1.21a4.53,4.53,0,0,1,1.38.18,1.6,1.6,0,0,1,.9.77A3.83,3.83,0,0,1,266.3,72a3.17,3.17,0,0,1-.86,2.55h0a1.22,1.22,0,0,1-.43.25,1.81,1.81,0,0,1-.49.11,6.67,6.67,0,0,1-.7,0h-1.21v-6h-.18v0Z"/><path class="cls-6" d="M277.14,75.52l-.43-1.14H273l-.43,1.16a3.94,3.94,0,0,1-.44.92.67.67,0,0,1-.58.24.92.92,0,0,1-.62-.25.82.82,0,0,1-.26-.58,1.31,1.31,0,0,1,.06-.38c0-.13.11-.32.2-.55l2.32-5.89c.07-.17.15-.37.24-.61a2.7,2.7,0,0,1,.3-.59,1.15,1.15,0,0,1,.41-.38,1.44,1.44,0,0,1,1.28,0,1.23,1.23,0,0,1,.41.37,2.91,2.91,0,0,1,.27.49c.07.18.16.41.27.71l2.37,5.85a2.82,2.82,0,0,1,.28,1,.83.83,0,0,1-.26.58.9.9,0,0,1-.64.26.84.84,0,0,1-.37-.08.75.75,0,0,1-.26-.21,1.84,1.84,0,0,1-.22-.41ZM273.5,73h2.71l-1.37-3.74Z"/><path class="cls-6" d="M277.14,75.52l.17-.07-.48-1.25h-3.94l-.47,1.28a3.74,3.74,0,0,1-.41.87.51.51,0,0,1-.44.17.64.64,0,0,1-.49-.21.57.57,0,0,1-.21-.44,1.39,1.39,0,0,1,.05-.33h0c0-.12.11-.3.2-.54h0l2.32-5.89h0c.07-.16.15-.37.24-.6A2.64,2.64,0,0,1,274,68a1,1,0,0,1,.35-.32,1.23,1.23,0,0,1,1.1,0,1,1,0,0,1,.35.32,2.46,2.46,0,0,1,.25.45l.27.7h0L278.65,75h0a2.73,2.73,0,0,1,.27.9.61.61,0,0,1-.21.45.69.69,0,0,1-.51.21.62.62,0,0,1-.29-.06h0l-.2-.16a2.19,2.19,0,0,1-.2-.37h0c-.08-.18-.15-.34-.2-.48l-.17.07.17-.07-.17.07-.17.07.21.49h0a2.14,2.14,0,0,0,.25.44,1,1,0,0,0,.32.26h0a1,1,0,0,0,.45.1,1,1,0,0,0,.76-.32.94.94,0,0,0,.32-.7,2.89,2.89,0,0,0-.29-1l-.17.07.17-.07L276.62,69l-.17.07.17-.07c-.11-.29-.2-.53-.28-.7a2.43,2.43,0,0,0-.28-.53,1.39,1.39,0,0,0-.47-.43,1.46,1.46,0,0,0-.73-.17,1.43,1.43,0,0,0-.73.17,1.41,1.41,0,0,0-.47.44,3.25,3.25,0,0,0-.32.62c-.09.24-.17.44-.24.61l-2.31,5.89h0a5.55,5.55,0,0,0-.21.56h0a1.39,1.39,0,0,0-.07.44,1,1,0,0,0,.32.71,1.07,1.07,0,0,0,.74.3.86.86,0,0,0,.73-.31,4.54,4.54,0,0,0,.46-1l.39-1h3.43l.39,1h0ZM273.5,73v.18h3l-1.63-4.45-1.6,4.45h.26V73l.17.06,1.18-3.27,1.1,3H273.5V73l.17.06Z"/><path class="cls-6" d="M287.72,69h-2v6.59a1.19,1.19,0,0,1-.26.84.83.83,0,0,1-.65.28.85.85,0,0,1-.67-.28,1.21,1.21,0,0,1-.26-.84V69h-2a1.06,1.06,0,0,1-.7-.2.72.72,0,0,1-.23-.55.7.7,0,0,1,.24-.56,1.07,1.07,0,0,1,.69-.2h5.84a1,1,0,0,1,.71.21.72.72,0,0,1,.23.55.69.69,0,0,1-.24.55A1.06,1.06,0,0,1,287.72,69Z"/><path class="cls-6" d="M287.72,69v-.18h-2.19v6.77a1.07,1.07,0,0,1-.2.72.66.66,0,0,1-.52.22.67.67,0,0,1-.54-.22,1.14,1.14,0,0,1-.21-.72V68.81h-2.18a.84.84,0,0,1-.58-.16.54.54,0,0,1-.17-.41.52.52,0,0,1,.18-.42.84.84,0,0,1,.57-.16h5.84a.87.87,0,0,1,.59.16.54.54,0,0,1,.17.42.51.51,0,0,1-.18.41.84.84,0,0,1-.58.16v.36a1.18,1.18,0,0,0,.82-.25.87.87,0,0,0,.3-.68.93.93,0,0,0-.29-.69,1.21,1.21,0,0,0-.83-.25h-5.84a1.24,1.24,0,0,0-.81.24.89.89,0,0,0-.3.7.91.91,0,0,0,.29.68,1.18,1.18,0,0,0,.82.25h1.82v6.41a1.34,1.34,0,0,0,.31,1,1,1,0,0,0,.8.34,1,1,0,0,0,.78-.33,1.38,1.38,0,0,0,.31-1V69.17h1.82Z"/><path class="cls-6" d="M296.94,75.52l-.44-1.14h-3.68l-.44,1.16a3.63,3.63,0,0,1-.43.92.68.68,0,0,1-.59.24.9.9,0,0,1-.61-.25.78.78,0,0,1-.26-.58,1.31,1.31,0,0,1,.06-.38c0-.13.11-.32.2-.55l2.32-5.89c.07-.17.15-.37.24-.61a2.7,2.7,0,0,1,.3-.59,1.15,1.15,0,0,1,.41-.38,1.22,1.22,0,0,1,.63-.15,1.3,1.3,0,0,1,.65.15,1.33,1.33,0,0,1,.41.37,2.87,2.87,0,0,1,.26.49c.08.18.17.41.28.71l2.37,5.85a3.08,3.08,0,0,1,.28,1,.81.81,0,0,1-.27.58.86.86,0,0,1-.63.26.84.84,0,0,1-.37-.08.75.75,0,0,1-.26-.21,1.8,1.8,0,0,1-.23-.41C297.06,75.82,297,75.66,296.94,75.52ZM293.3,73H296l-1.37-3.74Z"/><path class="cls-6" d="M296.94,75.52l.17-.07-.48-1.25h-3.94l-.47,1.28a4.22,4.22,0,0,1-.41.87.53.53,0,0,1-.45.17.64.64,0,0,1-.48-.21.57.57,0,0,1-.21-.44,1,1,0,0,1,.05-.33h0c0-.12.11-.3.2-.54h0l2.32-5.89h0c.07-.16.15-.37.24-.6a2.64,2.64,0,0,1,.28-.56,1,1,0,0,1,.35-.32,1.08,1.08,0,0,1,.54-.13,1.1,1.1,0,0,1,.56.13,1,1,0,0,1,.35.32,2.46,2.46,0,0,1,.25.45l.27.7L298.45,75h0a3,3,0,0,1,.27.9.61.61,0,0,1-.21.45.69.69,0,0,1-.51.21.6.6,0,0,1-.29-.06l-.2-.16a2.19,2.19,0,0,1-.2-.37h0l-.21-.48-.16.07.17-.07-.17.07-.17.07.21.49h0a1.76,1.76,0,0,0,.25.44.82.82,0,0,0,.32.26,1,1,0,0,0,.45.1,1,1,0,0,0,.76-.32,1,1,0,0,0,.32-.7,3.12,3.12,0,0,0-.29-1l-.17.07.17-.07L296.42,69l-.17.07.17-.07c-.11-.29-.2-.53-.28-.7a2.43,2.43,0,0,0-.28-.53,1.33,1.33,0,0,0-.48-.43,1.44,1.44,0,0,0-1.92.44,3.25,3.25,0,0,0-.32.62c-.09.24-.17.44-.24.61l-2.32,5.89h0c-.09.24-.16.42-.2.56h0a1.41,1.41,0,0,0-.08.44,1,1,0,0,0,.33.71,1.06,1.06,0,0,0,.73.3.88.88,0,0,0,.74-.31,4.16,4.16,0,0,0,.45-1l.39-1h3.44l.39,1h0ZM293.3,73v.18h3l-1.63-4.45L293,73.18h.26V73l.17.06,1.17-3.27,1.11,3H293.3V73l.17.06Z"/></g></g></svg>