<svg xmlns="http://www.w3.org/2000/svg" xmlns:xlink="http://www.w3.org/1999/xlink" viewBox="0 0 322.2 134.99"><defs><style>.cls-1,.cls-7,.cls-9{fill:none;}.cls-2{isolation:isolate;opacity:0.3;}.cls-3{clip-path:url(#clip-path);}.cls-4{fill:#29abe2;}.cls-5{fill:#ff953b;}.cls-6,.cls-7{font-size:39.8px;}.cls-6{fill:#1d5888;}.cls-6,.cls-7,.cls-8,.cls-9{font-family:ArialRoundedMTBold, Arial Rounded MT Bold;}.cls-7{stroke:#1d5888;stroke-width:1.14px;}.cls-7,.cls-9{stroke-miterlimit:10;}.cls-8,.cls-9{font-size:12.67px;}.cls-8{fill:#0b66a0;}.cls-9{stroke:#0b66a0;stroke-width:0.36px;}</style><clipPath id="clip-path"><rect class="cls-1" x="105.45" y="15.89" width="26.4" height="51.84"/></clipPath></defs><g id="Layer_2" data-name="Layer 2"><g id="Layer_1-2" data-name="Layer 1"><g id="glass"><g class="cls-2"><g class="cls-3"><path class="cls-4" d="M105.78,16.11c10.42,3,19.09,12,21.76,23.94a32.21,32.21,0,0,1-6.19,27.44,29.3,29.3,0,0,0-15.57-51.38Z"/></g></g><path class="cls-5" d="M63.94,45.69a36,36,0,1,1,36,35.91A36,36,0,0,1,63.94,45.69Zm120.2,80.8L133.87,76.34A45.82,45.82,0,1,0,126.38,83l50.7,50.56a5,5,0,1,0,7.06-7Z"/></g><g id="title"><text class="cls-6" transform="translate(0.57 59.02)">J</text><text class="cls-7" transform="translate(0.57 59.02)">J</text><text class="cls-6" transform="translate(23.38 59.02)">S</text><text class="cls-7" transform="translate(23.38 59.02)">S</text><text class="cls-6" transform="translate(59.87 59.02)">C</text><text class="cls-7" transform="translate(59.87 59.02)">C</text><text class="cls-6" transform="translate(89.33 59.02)">S</text><text class="cls-7" transform="translate(89.33 59.02)">S</text><text class="cls-6" transform="translate(115.88 59.02)">V</text><text class="cls-7" transform="translate(115.88 59.02)">V</text><text class="cls-6" transform="translate(153.21 59.02)">R</text><text class="cls-7" transform="translate(153.21 59.02)">R</text><text class="cls-6" transform="translate(181.83 59.02)">E</text><text class="cls-7" transform="translate(181.83 59.02)">E</text><text class="cls-6" transform="translate(208.38 59.02)">A</text><text class="cls-7" transform="translate(208.38 59.02)">A</text><text class="cls-6" transform="translate(237 59.02)">D</text><text class="cls-7" transform="translate(237 59.02)">D</text><text class="cls-6" transform="translate(266.45 59.02)">E</text><text class="cls-7" transform="translate(266.45 59.02)">E</text><text class="cls-6" transform="translate(293 59.02)">R</text><text class="cls-7" transform="translate(293 59.02)">R</text></g><g id="lead"><text class="cls-8" transform="translate(155.91 76.54)">D</text><text class="cls-9" transform="translate(155.91 76.54)">D</text><text class="cls-8" transform="translate(166.67 76.54)">I</text><text class="cls-9" transform="translate(166.67 76.54)">I</text><text class="cls-8" transform="translate(172.02 76.54)">S</text><text class="cls-9" transform="translate(172.02 76.54)">S</text><text class="cls-8" transform="translate(181.86 76.54)">P</text><text class="cls-9" transform="translate(181.86 76.54)">P</text><text class="cls-8" transform="translate(191.69 76.54)">L</text><text class="cls-9" transform="translate(191.69 76.54)">L</text><text class="cls-8" transform="translate(200.73 76.54)">A</text><text class="cls-9" transform="translate(200.73 76.54)">A</text><text class="cls-8" transform="translate(211.23 76.54)">Y</text><text class="cls-9" transform="translate(211.23 76.54)">Y</text><text class="cls-8" transform="translate(225.09 76.54)">C</text><text class="cls-9" transform="translate(225.09 76.54)">C</text><text class="cls-8" transform="translate(235.85 76.54)">S</text><text class="cls-9" transform="translate(235.85 76.54)">S</text><text class="cls-8" transform="translate(245.69 76.54)">V</text><text class="cls-9" transform="translate(245.69 76.54)">V</text><text class="cls-8" transform="translate(260.35 76.54)">D</text><text class="cls-9" transform="translate(260.35 76.54)">D</text><text class="cls-8" transform="translate(271.11 76.54)">A</text><text class="cls-9" transform="translate(271.11 76.54)">A</text><text class="cls-8" transform="translate(281.6 76.54)">T</text><text class="cls-9" transform="translate(281.6 76.54)">T</text><text class="cls-8" transform="translate(290.9 76.54)">A</text><text class="cls-9" transform="translate(290.9 76.54)">A</text></g></g></g></svg>